SplineFontDB: 3.0
FontName: GranaPadano
FullName: Grana Padano
FamilyName: GranaPadano
Weight: Medium
Copyright: Copyright 2009, 2010 by Daniel Johnson.
UComments: "2009-12-14: Created." 
Version: 20100429
ItalicAngle: 0
UnderlinePosition: -100
UnderlineWidth: 50
Ascent: 800
Descent: 200
LayerCount: 2
Layer: 0 0 "Back"  1
Layer: 1 0 "Fore"  0
NeedsXUIDChange: 1
XUID: [1021 1003 1579404955 4435698]
FSType: 0
OS2Version: 0
OS2_WeightWidthSlopeOnly: 0
OS2_UseTypoMetrics: 1
CreationTime: 1260827308
ModificationTime: 1272549179
OS2TypoAscent: 0
OS2TypoAOffset: 1
OS2TypoDescent: 0
OS2TypoDOffset: 1
OS2TypoLinegap: 90
OS2WinAscent: 0
OS2WinAOffset: 1
OS2WinDescent: 0
OS2WinDOffset: 1
HheadAscent: 0
HheadAOffset: 1
HheadDescent: 0
HheadDOffset: 1
Lookup: 260 0 0 "'mark' Mark Positioning in Latin lookup 0"  {"'mark' Mark Positioning in Latin lookup 0-1"  } ['mark' ('DFLT' <'dflt' > 'latn' <'dflt' > ) ]
DEI: 91125
Encoding: UnicodeBmp
UnicodeInterp: none
NameList: Adobe Glyph List
DisplaySize: -48
AntiAlias: 1
FitToEm: 1
WinInfo: 5008 16 10
BeginPrivate: 7
BlueValues 31 [-10 0 460 470 545 550 600 610]
OtherBlues 11 [-141 -140]
BlueFuzz 1 1
StdHW 4 [40]
StemSnapH 7 [20 40]
StdVW 5 [120]
StemSnapV 5 [120]
EndPrivate
Grid
-42 540 m 25
 636 540 l 25
-42 600 m 25
 636 600 l 25
-42 -140 m 25
 636 -140 l 25
-42 460 m 25
 636 460 l 25
EndSplineSet
AnchorClass2: "ogonek"  "'mark' Mark Positioning in Latin lookup 0-1" "below"  "'mark' Mark Positioning in Latin lookup 0-1" "above"  "'mark' Mark Positioning in Latin lookup 0-1" 
BeginChars: 65536 662

StartChar: A
Encoding: 65 65 0
Width: 544
VWidth: 0
Flags: W
HStem: 0 21G<72 192 352 472> 220 40<192 352> 570 40<217.483 326.517>
VStem: 72 120<0 220 260 519.858> 352 120<0 220 260 519.858>
AnchorPoint: "ogonek" 472 0 basechar 0
AnchorPoint: "below" 272 0 basechar 0
AnchorPoint: "above" 276 640 basechar 0
LayerCount: 2
Fore
SplineSet
352 450 m 2
 352 530 332 570 272 570 c 0
 212 570 192 530 192 450 c 2
 192 260 l 5
 352 260 l 5
 352 450 l 2
352 220 m 5
 192 220 l 5
 192 0 l 1
 72 0 l 1
 72 430 l 2
 72 530 132 610 272 610 c 0
 412 610 472 530 472 430 c 2
 472 0 l 1
 352 0 l 1
 352 220 l 5
EndSplineSet
Validated: 1
EndChar

StartChar: B
Encoding: 66 66 1
Width: 576
VWidth: 0
Flags: W
HStem: 0 40<228.42 337.754> 320 40<218.918 330.505> 560 40<195 329.372>
VStem: 75 120<74.6461 320 382.778 560> 355 120<391.655 522.873> 375 140<81.7826 242.94>
AnchorPoint: "below" 266 0 basechar 0
AnchorPoint: "above" 276 640 basechar 0
LayerCount: 2
Fore
SplineSet
275 360 m 0xf8
 335 360 355 400 355 460 c 0
 355 520 335 560 275 560 c 2
 195 560 l 1
 195 460 l 2
 195 400 215 360 275 360 c 0xf8
275 0 m 2
 75 0 l 1
 75 600 l 1
 275 600 l 2
 415 600 475 520 475 460 c 1xf8
 470 391 435 360 374 333 c 1
 435 320 515 260 515 160 c 0xf4
 515 60 435 0 275 0 c 2
285 40 m 0
 345 40 375 80 375 180 c 0xf4
 375 280 345 320 285 320 c 2
 195 320 l 1
 195 180 l 2
 195 80 225 40 285 40 c 0
EndSplineSet
Validated: 1
EndChar

StartChar: C
Encoding: 67 67 2
Width: 576
VWidth: 0
Flags: W
HStem: -10 40<216.848 355.152> 570 40<216.848 355.152>
VStem: 66 120<80.1421 519.858> 386 120<80.1421 170 430 519.858>
AnchorPoint: "below" 286 0 basechar 0
AnchorPoint: "above" 287 640 basechar 0
LayerCount: 2
Fore
SplineSet
186 150 m 6
 186 70 206 30 286 30 c 0
 366 30 386 70 386 150 c 2
 386 190 l 1
 506 170 l 1
 506 70 446 -10 286 -10 c 0
 126 -10 66 70 66 170 c 6
 66 430 l 6
 66 530 126 610 286 610 c 4
 446 610 506 530 506 430 c 5
 386 410 l 5
 386 450 l 6
 386 530 366 570 286 570 c 4
 206 570 186 530 186 450 c 6
 186 150 l 6
EndSplineSet
Validated: 1
EndChar

StartChar: D
Encoding: 68 68 3
Width: 599
VWidth: 0
Flags: W
HStem: 0 40<218.918 343.838> 560 40<195 343.838>
VStem: 75 120<62.7779 560> 415 120<144.312 455.688>
AnchorPoint: "below" 274 -2 basechar 0
AnchorPoint: "above" 276 640 basechar 0
LayerCount: 2
Fore
SplineSet
415 320 m 2
 415 480 375 560 275 560 c 2
 195 560 l 1
 195 140 l 2
 195 80 215 40 275 40 c 0
 375 40 415 120 415 280 c 2
 415 320 l 2
535 300 m 0
 535 120 475 0 315 0 c 2
 75 0 l 1
 75 600 l 1
 315 600 l 2
 475 600 535 480 535 300 c 0
EndSplineSet
Validated: 1
EndChar

StartChar: E
Encoding: 69 69 4
Width: 532
VWidth: 0
Flags: W
HStem: 0 40<218.918 475> 320 40<218.918 375> 560 40<195 455>
VStem: 75 120<62.7779 320 382.778 560>
AnchorPoint: "ogonek" 426 0 basechar 0
AnchorPoint: "below" 268 0 basechar 0
AnchorPoint: "above" 288 640 basechar 0
LayerCount: 2
Fore
SplineSet
75 0 m 1
 75 600 l 1
 455 600 l 1
 455 560 l 1
 195 560 l 1
 195 460 l 6
 195 400 215 360 275 360 c 6
 375 360 l 1
 375 320 l 1
 195 320 l 1
 195 140 l 2
 195 80 215 40 275 40 c 2
 475 40 l 1
 475 0 l 1
 75 0 l 1
EndSplineSet
Validated: 1
EndChar

StartChar: F
Encoding: 70 70 5
Width: 531
VWidth: 0
Flags: W
HStem: 0 21G<75 195> 320 40<218.918 375> 560 40<195 455>
VStem: 75 120<0 320 382.778 560>
AnchorPoint: "below" 136 0 basechar 0
AnchorPoint: "above" 288 640 basechar 0
LayerCount: 2
Fore
SplineSet
195 320 m 1
 195 0 l 1
 75 0 l 1
 75 600 l 1
 455 600 l 1
 455 560 l 1
 195 560 l 1
 195 460 l 2
 195 400 215 360 275 360 c 2
 375 360 l 1
 375 320 l 1
 195 320 l 1
EndSplineSet
Validated: 1
EndChar

StartChar: G
Encoding: 71 71 6
Width: 576
VWidth: 0
Flags: W
HStem: -10 40<216.848 355.152> 281 40<298 386> 570 40<216.848 355.152>
VStem: 66 120<80.1421 519.858> 386 120<80.1421 281 430 519.858>
AnchorPoint: "below" 286 0 basechar 0
AnchorPoint: "above" 287 640 basechar 0
LayerCount: 2
Fore
SplineSet
298 281 m 1
 298 321 l 1
 506 321 l 1
 506 170 l 2
 506 70 446 -10 286 -10 c 0
 126 -10 66 70 66 170 c 2
 66 430 l 2
 66 530 126 610 286 610 c 0
 446 610 506 530 506 430 c 1
 386 410 l 1
 386 450 l 2
 386 530 366 570 286 570 c 0
 206 570 186 530 186 450 c 2
 186 150 l 2
 186 70 206 30 286 30 c 0
 366 30 386 70 386 150 c 2
 386 281 l 1
 298 281 l 1
EndSplineSet
Validated: 1
EndChar

StartChar: H
Encoding: 72 72 7
Width: 611
VWidth: 0
Flags: W
HStem: 0 21G<75 195 415 535> 320 40<218.918 415> 580 20G<75 195 415 535>
VStem: 75 120<0 320 382.778 600> 415 120<0 320 360 600>
AnchorPoint: "below" 302 0 basechar 0
AnchorPoint: "above" 311 640 basechar 0
LayerCount: 2
Fore
SplineSet
195 320 m 1
 195 0 l 1
 75 0 l 1
 75 600 l 1
 195 600 l 1
 195 460 l 2
 195 400 215 360 275 360 c 2
 415 360 l 1
 415 600 l 1
 535 600 l 1
 535 0 l 1
 415 0 l 1
 415 320 l 1
 195 320 l 1
EndSplineSet
Validated: 1
EndChar

StartChar: I
Encoding: 73 73 8
Width: 271
VWidth: 0
Flags: W
HStem: 0 21G<75 195> 580 20G<75 195>
VStem: 75 120<0 600>
AnchorPoint: "ogonek" 195 0 basechar 0
AnchorPoint: "below" 135 0 basechar 0
AnchorPoint: "above" 135 640 basechar 0
LayerCount: 2
Fore
SplineSet
195 0 m 1
 106 0 75 0 75 0 c 1
 75 600 l 1
 195 600 l 1
 195 0 l 1
EndSplineSet
Validated: 1
EndChar

StartChar: J
Encoding: 74 74 9
Width: 530
VWidth: 0
Flags: W
HStem: -10 40<179.997 308.003> 580 20G<334 454>
VStem: 34 120<76.402 170> 334 120<76.402 600>
AnchorPoint: "below" 244 0 basechar 0
AnchorPoint: "above" 398 640 basechar 0
LayerCount: 2
Fore
SplineSet
334 600 m 1
 454 600 l 1
 454 170 l 2
 454 70 404 -10 244 -10 c 0
 84 -10 34 70 34 170 c 1
 154 190 l 1
 154 150 l 2
 154 70 164 30 244 30 c 0
 324 30 334 70 334 150 c 2
 334 600 l 1
EndSplineSet
Validated: 1
EndChar

StartChar: K
Encoding: 75 75 10
Width: 648
VWidth: 0
Flags: W
HStem: 0 21G<75 195 446.578 604> 580 20G<75 195 439 555>
VStem: 75 120<0 240 336 600>
AnchorPoint: "below" 318 0 basechar 0
AnchorPoint: "above" 313 640 basechar 0
LayerCount: 2
Fore
SplineSet
195 0 m 1
 75 0 l 1
 75 600 l 1
 195 600 l 1
 195 336 l 1
 459 600 l 1
 555 600 l 1
 332 377 l 1
 604 0 l 1
 461 0 l 1
 249 294 l 1
 195 240 l 1
 195 0 l 1
EndSplineSet
Validated: 1
EndChar

StartChar: L
Encoding: 76 76 11
Width: 519
VWidth: 0
Flags: W
HStem: 0 40<218.918 475> 580 20G<75 195>
VStem: 75 120<62.7779 600>
AnchorPoint: "below" 284 0 basechar 0
AnchorPoint: "above" 139 640 basechar 0
LayerCount: 2
Fore
SplineSet
195 140 m 2
 195 80 215 40 275 40 c 2
 475 40 l 1
 475 0 l 5
 75 0 l 5
 75 600 l 1
 195 600 l 1
 195 140 l 2
EndSplineSet
Validated: 1
EndChar

StartChar: M
Encoding: 77 77 12
Width: 729
VWidth: 0
Flags: W
HStem: 0 21G<75 195 533 653> 580 20G<75 206.051 510.881 653>
VStem: 75 120<0 486> 533 120<0 508>
AnchorPoint: "below" 362 0 basechar 0
AnchorPoint: "above" 361 640 basechar 0
LayerCount: 2
Fore
SplineSet
358 305 m 1
 522 600 l 1
 653 600 l 1
 653 0 l 1
 533 0 l 1
 533 508 l 1
 358 194 l 1
 195 486 l 1
 195 0 l 1
 75 0 l 1
 75 600 l 1
 195 600 l 1
 358 305 l 1
EndSplineSet
Validated: 1
EndChar

StartChar: N
Encoding: 78 78 13
Width: 651
VWidth: 0
Flags: W
HStem: 0 21G<75 195 444.144 575> 580 20G<75 205.856 455 575>
VStem: 75 120<0 479> 455 120<121 600>
AnchorPoint: "below" 322 0 basechar 0
AnchorPoint: "above" 331 640 basechar 0
LayerCount: 2
Fore
SplineSet
195 0 m 1
 75 0 l 1
 75 600 l 1
 195 600 l 1
 455 121 l 1
 455 600 l 1
 575 600 l 1
 575 0 l 1
 455 0 l 1
 195 479 l 1
 195 0 l 1
EndSplineSet
Validated: 1
EndChar

StartChar: O
Encoding: 79 79 14
Width: 576
VWidth: 0
Flags: W
HStem: -10 40<216.848 355.152> 570 40<216.848 355.152>
VStem: 66 120<80.1421 519.858> 386 120<80.1421 519.858>
AnchorPoint: "ogonek" 349 0 basechar 0
AnchorPoint: "below" 287 0 basechar 0
AnchorPoint: "above" 287 640 basechar 0
LayerCount: 2
Fore
SplineSet
386 450 m 2
 386 530 366 570 286 570 c 0
 206 570 186 530 186 450 c 2
 186 150 l 2
 186 70 206 30 286 30 c 0
 366 30 386 70 386 150 c 2
 386 450 l 2
506 170 m 2
 506 70 446 -10 286 -10 c 0
 126 -10 66 70 66 170 c 2
 66 430 l 2
 66 530 126 610 286 610 c 0
 446 610 506 530 506 430 c 2
 506 170 l 2
EndSplineSet
Validated: 1
EndChar

StartChar: P
Encoding: 80 80 15
Width: 537
VWidth: 0
Flags: W
HStem: 0 21G<75 195> 280 40<218.918 323.508> 560 40<195 323.508>
VStem: 75 120<0 280 342.778 560> 355 120<354.28 525.72>
AnchorPoint: "below" 136 0 basechar 0
AnchorPoint: "above" 255 640 basechar 0
LayerCount: 2
Fore
SplineSet
275 280 m 2
 195 280 l 1
 195 0 l 5
 75 0 l 5
 75 600 l 1
 275 600 l 2
 415 600 475 540 475 440 c 0
 475 340 415 280 275 280 c 2
275 320 m 0
 335 320 355 380 355 440 c 0
 355 500 335 560 275 560 c 2
 195 560 l 1
 195 420 l 2
 195 360 215 320 275 320 c 0
EndSplineSet
Validated: 1
EndChar

StartChar: R
Encoding: 82 82 16
Width: 563
VWidth: 0
Flags: W
HStem: 0 21G<75 196 374 506> 300 40<219.918 322.849> 560 40<195 329.426>
VStem: 75 121<0 300 362.778 560> 356 120<9.28619 241.307 373.865 536.271>
AnchorPoint: "below" 276 0 basechar 0
AnchorPoint: "above" 263 640 basechar 0
LayerCount: 2
Fore
SplineSet
275 600 m 2
 415 600 476 550 476 460 c 0
 476 370 436 345 375 318 c 1
 436 305 476 240 476 100 c 0
 476 20 506 0 506 0 c 1
 377 0 l 1
 377 0 356 20 356 140 c 0
 356 220 336 300 286 300 c 2
 196 300 l 1
 196 0 l 17
 75 0 l 1
 75 599 l 1
 275 600 l 2
275 560 m 2
 195 560 l 1
 196 440 l 2
 196 380 216 340 276 340 c 0
 336 340 356 361 356 460 c 0
 356 520 335 560 275 560 c 2
EndSplineSet
Validated: 1
EndChar

StartChar: Q
Encoding: 81 81 17
Width: 578
VWidth: 0
Flags: W
HStem: -144 120<379.013 470> 0 40<218.172 291> 570 40<216.848 355.152>
VStem: 66 120<90.1421 519.858> 290 40<46.4226 76> 386 120<89.0643 519.858>
AnchorPoint: "below" 212 0 basechar 0
AnchorPoint: "above" 287 640 basechar 0
LayerCount: 2
Fore
SplineSet
386 450 m 2
 386 530 366 570 286 570 c 0
 206 570 186 530 186 450 c 2
 186 160 l 2
 186 80 206 40 286 40 c 2
 291 40 l 1
 290 51 290 63 290 76 c 1
 330 76 l 1
 330 65 330 55 332 46 c 1
 374 60 386 98 386 160 c 2
 386 450 l 2
297 0 m 1
 286 0 l 2
 126 0 66 80 66 180 c 2
 66 430 l 2
 66 530 126 610 286 610 c 0
 446 610 506 530 506 430 c 2
 506 180 l 2
 506 95 462 24 350 5 c 1
 369 -17 403 -24 450 -24 c 2
 490 -24 l 1
 470 -144 l 1
 388 -144 319 -104 297 0 c 1
EndSplineSet
Validated: 1
EndChar

StartChar: S
Encoding: 83 83 18
Width: 564
VWidth: 0
Flags: W
HStem: -10 40<211.61 348.58> 570 40<221.388 323.289>
VStem: 62 120<84.1699 170> 77 120<411.904 541.458> 347 120<430 527.279> 382 120<68.2146 193.03>
AnchorPoint: "below" 282 0 basechar 0
AnchorPoint: "above" 273 640 basechar 0
LayerCount: 2
Fore
SplineSet
77 450 m 0xd4
 77 550 128 610 272 610 c 0
 416 610 467 530 467 430 c 1
 347 410 l 1
 347 450 l 2
 347 530 332 570 272 570 c 0
 212 570 197 526 197 460 c 0xd8
 197 341 502 345 502 150 c 0
 502 50 432 -10 282 -10 c 0
 132 -10 62 70 62 170 c 1
 182 190 l 1
 182 150 l 2xe4
 182 70 202 30 282 30 c 0
 362 30 382 74 382 140 c 0
 382 273 77 274 77 450 c 0xd4
EndSplineSet
Validated: 1
EndChar

StartChar: T
Encoding: 84 84 19
Width: 610
VWidth: 0
Flags: W
HStem: 0 21G<194 314> 560 40<-26 170.082 314 534>
VStem: 194 120<0 537.222>
AnchorPoint: "below" 254 0 basechar 0
AnchorPoint: "above" 251 640 basechar 0
LayerCount: 2
Fore
SplineSet
314 560 m 1
 314 0 l 1
 194 0 l 1
 194 460 l 2
 194 520 174 560 114 560 c 2
 -26 560 l 1
 -26 600 l 1
 534 600 l 1
 534 560 l 1
 314 560 l 1
EndSplineSet
Validated: 1
EndChar

StartChar: U
Encoding: 85 85 20
Width: 579
VWidth: 0
Flags: W
HStem: -10 40<224.095 349.905> 580 20G<71 191 383 503>
VStem: 71 120<80.1421 600> 383 120<80.1421 600>
AnchorPoint: "ogonek" 349 0 basechar 0
AnchorPoint: "below" 288 0 basechar 0
AnchorPoint: "above" 290 640 basechar 0
LayerCount: 2
Fore
SplineSet
383 600 m 1
 503 600 l 1
 503 170 l 2
 503 70 443 -10 287 -10 c 0
 131 -10 71 70 71 170 c 2
 71 600 l 1
 191 600 l 1
 191 150 l 2
 191 70 215 30 287 30 c 0
 359 30 383 70 383 150 c 2
 383 600 l 1
EndSplineSet
Validated: 1
EndChar

StartChar: V
Encoding: 86 86 21
Width: 555
VWidth: 0
Flags: W
HStem: 0 21G<197.633 323.367> 580 20G<42 172.365 411.635 479>
AnchorPoint: "below" 262 0 basechar 0
AnchorPoint: "above" 287 640 basechar 0
LayerCount: 2
Fore
SplineSet
479 600 m 1
 318 0 l 1
 203 0 l 1
 42 600 l 1
 167 600 l 1
 292 134 l 1
 417 600 l 1
 479 600 l 1
EndSplineSet
Validated: 1
EndChar

StartChar: W
Encoding: 87 87 22
Width: 798
VWidth: 0
Flags: W
HStem: 0 21G<197.633 323.378 440.622 566.367> 580 20G<42 172.365 285 415.365 654.635 722>
AnchorPoint: "below" 384 0 basechar 0
AnchorPoint: "above" 377 640 basechar 0
LayerCount: 2
Fore
SplineSet
722 600 m 1
 561 0 l 1
 446 0 l 1
 382 238 l 1
 318 0 l 1
 203 0 l 1
 42 600 l 1
 167 600 l 1
 292 134 l 1
 351 354 l 1
 285 600 l 1
 410 600 l 1
 535 134 l 1
 660 600 l 1
 722 600 l 1
EndSplineSet
Validated: 1
EndChar

StartChar: X
Encoding: 88 88 23
Width: 610
VWidth: 0
Flags: W
HStem: 0 21G<57 142.484 394.416 544> 580 20G<59 209.524 447.476 534>
AnchorPoint: "below" 274 0 basechar 0
AnchorPoint: "above" 329 640 basechar 0
LayerCount: 2
Fore
SplineSet
245 279 m 1
 59 600 l 1
 198 600 l 1
 319 390 l 1
 461 600 l 1
 534 600 l 1
 353 332 l 1
 544 0 l 1
 406 0 l 1
 278 221 l 1
 129 0 l 1
 57 0 l 1
 245 279 l 1
EndSplineSet
Validated: 1
EndChar

StartChar: Y
Encoding: 89 89 24
Width: 570
VWidth: 0
Flags: W
HStem: 0 21G<196 316> 580 20G<19 169.469 407.54 494>
VStem: 196 120<0 293>
AnchorPoint: "ogonek" 316 0 basechar 0
AnchorPoint: "below" 258 0 basechar 0
AnchorPoint: "above" 279 640 basechar 0
LayerCount: 2
Fore
SplineSet
279 389 m 1
 421 600 l 1
 494 600 l 1
 316 336 l 1
 316 0 l 1
 196 0 l 1
 196 293 l 1
 19 600 l 1
 158 600 l 1
 279 389 l 1
EndSplineSet
Validated: 1
EndChar

StartChar: Z
Encoding: 90 90 25
Width: 543
VWidth: 0
Flags: W
HStem: 0 40<221.035 476> 560 40<59 315>
AnchorPoint: "below" 280 0 basechar 0
AnchorPoint: "above" 280 640 basechar 0
LayerCount: 2
Fore
SplineSet
252 40 m 2
 476 40 l 1
 476 0 l 1
 54 0 l 1
 315 560 l 1
 59 560 l 1
 59 600 l 1
 467 600 l 1
 234 103 l 2
 225 84 221 71 221 61 c 0
 221 45 233 40 252 40 c 2
EndSplineSet
Validated: 1
EndChar

StartChar: bracketleft
Encoding: 91 91 26
Width: 312
VWidth: 0
Flags: W
HStem: 0 40<180 252> 560 40<180 252>
VStem: 60 120<40 560>
LayerCount: 2
Fore
SplineSet
252 0 m 1
 60 0 l 1
 60 600 l 1
 252 600 l 1
 252 560 l 1
 180 560 l 1
 180 40 l 1
 252 40 l 1
 252 0 l 1
EndSplineSet
Validated: 1
EndChar

StartChar: bracketright
Encoding: 93 93 27
Width: 312
VWidth: 0
Flags: W
HStem: 0 40<60 132> 560 40<60 132>
VStem: 132 120<40 560>
LayerCount: 2
Fore
SplineSet
60 0 m 1
 60 40 l 1
 132 40 l 1
 132 560 l 1
 60 560 l 1
 60 600 l 1
 252 600 l 1
 252 0 l 1
 60 0 l 1
EndSplineSet
Validated: 1
EndChar

StartChar: backslash
Encoding: 92 92 28
Width: 405
VWidth: 0
Flags: W
HStem: 0 21G<315.433 425> 580 20G<-20 90.5333>
LayerCount: 2
Fore
SplineSet
79 600 m 1
 425 0 l 1
 327 0 l 1
 -20 600 l 1
 79 600 l 1
EndSplineSet
Validated: 1
EndChar

StartChar: a
Encoding: 97 97 29
Width: 518
VWidth: 0
Flags: W
HStem: 0 40<205.211 334> 210 40<205.211 310.082> 430 40<208.269 309.612>
VStem: 54 120<65.2075 184.793> 67 117<327.863 391.493> 334 120<40 187.222 250 401.386>
AnchorPoint: "ogonek" 454 0 basechar 0
AnchorPoint: "below" 254 0 basechar 0
AnchorPoint: "above" 261 500 basechar 0
LayerCount: 2
Fore
SplineSet
67 329 m 1xec
 80 410 134 470 259 470 c 0
 403 470 454 410 454 310 c 2
 454 0 l 1
 254 0 l 2
 114 0 54 55 54 125 c 0xf4
 54 195 114 250 254 250 c 2
 334 250 l 1
 334 320 l 2
 334 386 319 430 259 430 c 0
 199 430 184 390 184 310 c 1
 67 329 l 1xec
254 210 m 0
 194 210 174 158 174 125 c 0
 174 92 194 40 254 40 c 2
 334 40 l 1
 334 110 l 2
 334 170 314 210 254 210 c 0
EndSplineSet
Validated: 1
EndChar

StartChar: c
Encoding: 99 99 30
Width: 519
VWidth: 0
Flags: W
HStem: -10 40<205.599 317.346> 430 40<205.599 317.346>
VStem: 58 120<58.6138 401.386> 343 117<70.1074 132.137 327.863 389.893>
AnchorPoint: "below" 260 0 basechar 0
AnchorPoint: "above" 261 500 basechar 0
LayerCount: 2
Fore
SplineSet
178 140 m 2
 178 74 194 30 260 30 c 0
 326 30 343 70 343 150 c 1
 460 131 l 1
 447 50 392 -10 260 -10 c 0
 108 -10 58 50 58 150 c 2
 58 310 l 2
 58 410 108 470 260 470 c 0
 392 470 447 410 460 329 c 1
 343 310 l 1
 343 390 326 430 260 430 c 0
 194 430 178 386 178 320 c 2
 178 140 l 2
EndSplineSet
Validated: 1
EndChar

StartChar: b
Encoding: 98 98 31
Width: 541
VWidth: 0
Flags: W
HStem: -10 40<220.064 332.401> 430 40<220.064 332.401> 580 20G<75 195>
VStem: 75 120<52.9688 407.031 460 600> 360 120<58.6138 401.386>
AnchorPoint: "below" 277 0 basechar 0
AnchorPoint: "above" 139 640 basechar 0
LayerCount: 2
Fore
SplineSet
360 320 m 2
 360 386 344 430 278 430 c 0
 212 430 195 390 195 310 c 2
 195 150 l 2
 195 70 212 30 278 30 c 0
 344 30 360 74 360 140 c 2
 360 320 l 2
75 0 m 1
 75 600 l 1
 195 600 l 1
 195 460 l 1
 218 467 246 470 278 470 c 0
 430 470 480 410 480 310 c 2
 480 150 l 2
 480 50 430 -10 278 -10 c 0
 246 -10 218 -7 195 0 c 1
 75 0 l 1
EndSplineSet
Validated: 1
EndChar

StartChar: d
Encoding: 100 100 32
Width: 547
VWidth: 0
Flags: W
HStem: -10 40<204.589 324.766> 0 21G<351 471> 430 40<204.589 324.766> 580 20G<351 471>
VStem: 58 120<60.25 399.75> 351 120<0 1 54.6387 405.361 459 600>
AnchorPoint: "below" 264 0 basechar 0
AnchorPoint: "above" 414 640 basechar 0
LayerCount: 2
Fore
SplineSet
178 320 m 2xbc
 178 140 l 2
 178 74 195 30 264 30 c 0
 333 30 351 70 351 150 c 2
 351 310 l 2
 351 390 333 430 264 430 c 0
 195 430 178 386 178 320 c 2xbc
351 459 m 1
 351 600 l 1
 471 600 l 1
 471 0 l 1
 351 0 l 1x7c
 351 1 l 1
 327 -6 298 -10 264 -10 c 0
 108 -10 58 50 58 150 c 2
 58 310 l 2
 58 410 108 470 264 470 c 0
 298 470 327 466 351 459 c 1
EndSplineSet
Validated: 1
EndChar

StartChar: e
Encoding: 101 101 33
Width: 523
VWidth: 0
Flags: W
HStem: -10 40<205.599 317.346> 270 40<178 343> 430 40<205.599 317.878>
VStem: 58 120<58.6138 270 310 401.386> 343 121<78.0097 132.099 310 386.606>
AnchorPoint: "ogonek" 333 0 basechar 0
AnchorPoint: "below" 260 0 basechar 0
AnchorPoint: "above" 261 500 basechar 0
LayerCount: 2
Fore
SplineSet
464 270 m 1
 178 270 l 1
 178 140 l 2
 178 74 194 30 260 30 c 0
 326 30 343 70 343 150 c 1
 460 131 l 1
 447 50 392 -10 260 -10 c 0
 108 -10 58 50 58 150 c 2
 58 310 l 2
 58 410 108 470 260 470 c 0
 392 470 464 405 464 302 c 2
 464 270 l 1
178 310 m 1
 343 310 l 1
 343 390 326 430 260 430 c 0
 194 430 178 386 178 320 c 2
 178 310 l 1
EndSplineSet
Validated: 1
EndChar

StartChar: f
Encoding: 102 102 34
Width: 392
VWidth: 0
Flags: W
HStem: 0 21G<88 208> 364 40<48 88 208 332> 570 40<233.628 332>
VStem: 88 120<0 364 404 519.858>
AnchorPoint: "below" 148 0 basechar 0
AnchorPoint: "above" 287 640 basechar 0
LayerCount: 2
Fore
SplineSet
288 570 m 2
 228 570 208 530 208 450 c 2
 208 404 l 1
 332 404 l 1
 332 364 l 1
 208 364 l 1
 208 0 l 1
 88 0 l 1
 88 364 l 1
 48 364 l 1
 48 404 l 1
 88 404 l 1
 88 430 l 2
 88 530 148 610 288 610 c 2
 332 610 l 1
 332 570 l 1
 288 570 l 2
EndSplineSet
Validated: 1
EndChar

StartChar: g
Encoding: 103 103 35
Width: 567
VWidth: 0
Flags: W
HStem: -150 40<220.47 340.349> 29 40<213.727 340.441> 429 40<213.727 340.441>
VStem: 53 120<107.579 390.421> 378 120<-71.4209 39 106.969 391.031>
AnchorPoint: "below" 283 -141 basechar 0
AnchorPoint: "above" 277 500 basechar 0
LayerCount: 2
Fore
SplineSet
173 179 m 2
 173 113 209 69 275 69 c 0
 341 69 378 109 378 189 c 2
 378 309 l 2
 378 389 341 429 275 429 c 0
 209 429 173 385 173 319 c 2
 173 179 l 2
191 -41 m 5
 198 -87 237 -110 283 -110 c 4
 343 -110 378 -66 378 0 c 6
 378 39 l 1
 355 32 307 29 275 29 c 0
 123 29 53 89 53 189 c 2
 53 309 l 2
 53 409 123 469 275 469 c 0
 307 469 355 465 378 459 c 1
 498 459 l 1
 498 10 l 6
 498 -90 427 -150 283 -150 c 4
 197 -150 125 -122 96 -78 c 5
 191 -41 l 5
EndSplineSet
Validated: 1
EndChar

StartChar: h
Encoding: 104 104 36
Width: 544
VWidth: 0
Flags: W
HStem: 0 21G<75 195 360 481> 430 40<220.348 334.878> 580 20G<75 195>
VStem: 75 120<0 406.577 462 600> 360 121<0 386.606>
AnchorPoint: "below" 278 0 basechar 0
AnchorPoint: "above" 139 640 basechar 0
LayerCount: 2
Fore
SplineSet
360 0 m 1
 360 310 l 2
 360 390 343 430 277 430 c 0
 211 430 195 386 195 320 c 2
 195 0 l 1
 75 0 l 1
 75 600 l 1
 195 600 l 1
 195 462 l 1
 218 467 245 470 277 470 c 0
 409 470 481 405 481 302 c 2
 481 0 l 1
 360 0 l 1
EndSplineSet
Validated: 1
EndChar

StartChar: l
Encoding: 108 108 37
Width: 305
VWidth: 0
Flags: W
HStem: -10 40<201.242 249> 580 20G<73 193>
VStem: 73 120<35.1176 600>
AnchorPoint: "below" 137 0 basechar 0
AnchorPoint: "above" 137 640 basechar 0
LayerCount: 2
Fore
SplineSet
249 30 m 9
 249 -10 l 17
 109 -10 73 24 73 124 c 2
 73 600 l 1
 193 600 l 1
 193 104 l 2
 193 40 199 30 249 30 c 9
EndSplineSet
Validated: 1
EndChar

StartChar: i
Encoding: 105 105 38
Width: 271
VWidth: 0
Flags: W
HStem: 0 21G<75 195> 440 20G<75 195> 550 80<75 195>
VStem: 75 120<0 460 550 630>
AnchorPoint: "ogonek" 195 0 basechar 0
AnchorPoint: "below" 136 0 basechar 0
AnchorPoint: "above" 137 654 basechar 0
LayerCount: 2
Fore
SplineSet
75 630 m 1
 195 630 l 1
 195 550 l 1
 75 550 l 1
 75 630 l 1
195 0 m 1
 106 0 75 0 75 0 c 1
 75 460 l 1
 195 460 l 1
 195 0 l 1
EndSplineSet
Validated: 1
EndChar

StartChar: j
Encoding: 106 106 39
Width: 274
VWidth: 0
Flags: W
HStem: -150 40<22 69.7578> 440 20G<78 198> 550 80<78 198>
VStem: 78 120<-104.882 460 550 630>
AnchorPoint: "below" 139 -140 basechar 0
AnchorPoint: "above" 141 648 basechar 0
LayerCount: 2
Fore
SplineSet
78 630 m 1
 198 630 l 1
 198 550 l 1
 78 550 l 1
 78 630 l 1
22 -110 m 17
 72 -110 78 -100 78 -36 c 2
 78 460 l 1
 198 460 l 1
 198 -16 l 2
 198 -116 162 -150 22 -150 c 9
 22 -110 l 17
EndSplineSet
Validated: 1
EndChar

StartChar: k
Encoding: 107 107 40
Width: 554
VWidth: 0
Flags: W
HStem: 0 21G<75 195 346.545 504> 440 20G<357 473> 580 20G<75 195>
VStem: 75 120<0 182 278 600>
AnchorPoint: "below" 268 0 basechar 0
AnchorPoint: "above" 135 640 basechar 0
LayerCount: 2
Fore
SplineSet
215 202 m 1
 195 182 l 1
 195 0 l 1
 75 0 l 1
 75 600 l 1
 195 600 l 1
 195 278 l 1
 377 460 l 1
 473 460 l 1
 298 285 l 1
 504 0 l 1
 361 0 l 1
 215 202 l 1
EndSplineSet
Validated: 1
EndChar

StartChar: m
Encoding: 109 109 41
Width: 760
VWidth: 0
Flags: W
HStem: 0 21G<67 187 321 442 576 697> 430 40<207.21 299.577 463.151 554.812>
VStem: 67 120<0 412.598> 321 121<0 411.17> 576 121<0 386.606>
AnchorPoint: "below" 383 0 basechar 0
AnchorPoint: "above" 377 500 basechar 0
LayerCount: 2
Fore
SplineSet
321 0 m 1
 321 310 l 2
 321 390 306 430 253 430 c 0
 200 430 187 386 187 320 c 2
 187 0 l 1
 67 0 l 1
 67 460 l 1
 170 460 l 1
 193 467 221 470 253 470 c 0
 302 470 344 458 375 437 c 1
 405 459 448 470 508 470 c 0
 624 470 697 405 697 302 c 2
 697 0 l 1
 576 0 l 1
 576 310 l 2
 576 390 561 430 508 430 c 0
 455 430 442 386 442 320 c 2
 442 0 l 1
 321 0 l 1
EndSplineSet
Validated: 1
EndChar

StartChar: n
Encoding: 110 110 42
Width: 576
VWidth: 0
Flags: W
HStem: 0 21G<67 187 392 513> 430 40<225.409 353.898>
VStem: 67 120<0 394.121> 392 121<0 379.288>
AnchorPoint: "below" 291 0 basechar 0
AnchorPoint: "above" 290 500 basechar 0
LayerCount: 2
Fore
SplineSet
392 0 m 1
 392 310 l 2
 392 390 355 430 289 430 c 0
 223 430 187 386 187 320 c 2
 187 0 l 1
 67 0 l 1
 67 460 l 1
 177 460 l 1
 202 467 253 470 289 470 c 0
 421 470 513 405 513 302 c 2
 513 0 l 1
 392 0 l 1
EndSplineSet
Validated: 1
EndChar

StartChar: o
Encoding: 111 111 43
Width: 539
VWidth: 0
Flags: W
HStem: -10 40<206.311 329.689> 430 40<206.311 329.689>
VStem: 58 120<61.8671 398.133> 358 120<61.8671 398.133>
AnchorPoint: "ogonek" 333 0 basechar 0
AnchorPoint: "below" 269 0 basechar 0
AnchorPoint: "above" 269 500 basechar 0
LayerCount: 2
Fore
SplineSet
268 470 m 0
 428 470 478 410 478 310 c 2
 478 150 l 2
 478 50 428 -10 268 -10 c 0
 108 -10 58 50 58 150 c 2
 58 310 l 2
 58 410 108 470 268 470 c 0
268 30 m 0
 341 30 358 74 358 140 c 2
 358 320 l 2
 358 386 341 430 268 430 c 0
 195 430 178 386 178 320 c 2
 178 140 l 2
 178 74 195 30 268 30 c 0
EndSplineSet
Validated: 1
EndChar

StartChar: p
Encoding: 112 112 44
Width: 541
VWidth: 0
Flags: W
HStem: -11 40<213.234 333.411> 429 40<213.234 333.411> 439 20G<67 187>
VStem: 67 120<-141 0 53.6387 404.361 458 459> 360 120<59.25 398.75>
AnchorPoint: "below" 274 0 basechar 0
AnchorPoint: "above" 276 500 basechar 0
LayerCount: 2
Fore
SplineSet
360 139 m 2xd8
 360 319 l 2
 360 385 343 429 274 429 c 0
 205 429 187 389 187 309 c 2
 187 149 l 2
 187 69 205 29 274 29 c 0
 343 29 360 73 360 139 c 2xd8
187 -0 m 1
 187 -141 l 1
 67 -141 l 1
 67 459 l 1
 187 459 l 1xb8
 187 458 l 1
 211 465 240 469 274 469 c 0
 430 469 480 409 480 309 c 2
 480 149 l 2
 480 49 430 -11 274 -11 c 0
 240 -11 211 -7 187 -0 c 1
EndSplineSet
Validated: 1
EndChar

StartChar: q
Encoding: 113 113 45
Width: 532
VWidth: 0
Flags: W
HStem: -10 40<205.599 317.936> 430 40<205.599 317.936>
VStem: 58 120<58.6138 401.386> 343 120<-140 0 52.9688 407.031>
AnchorPoint: "below" 261 0 basechar 0
AnchorPoint: "above" 261 500 basechar 0
LayerCount: 2
Fore
SplineSet
178 140 m 2
 178 74 194 30 260 30 c 0
 326 30 343 70 343 150 c 2
 343 310 l 2
 343 390 326 430 260 430 c 0
 194 430 178 386 178 320 c 2
 178 140 l 2
463 460 m 1
 463 -140 l 1
 343 -140 l 1
 343 0 l 1
 320 -7 292 -10 260 -10 c 0
 108 -10 58 50 58 150 c 2
 58 310 l 2
 58 410 108 470 260 470 c 0
 292 470 320 467 343 460 c 1
 463 460 l 1
EndSplineSet
Validated: 1
EndChar

StartChar: r
Encoding: 114 114 46
Width: 483
VWidth: 0
Flags: W
HStem: 0 21G<67 187> 430 40<210.317 312.731>
VStem: 67 120<0 408.159> 337 117<327.863 391.493>
AnchorPoint: "below" 126 0 basechar 0
AnchorPoint: "above" 264 500 basechar 0
LayerCount: 2
Fore
SplineSet
187 0 m 1
 67 0 l 1
 67 460 l 1
 174 460 l 1
 198 467 228 470 262 470 c 0
 387 470 441 410 454 329 c 1
 337 310 l 1
 337 390 322 430 262 430 c 0
 202 430 187 386 187 320 c 2
 187 0 l 1
EndSplineSet
Validated: 1
EndChar

StartChar: t
Encoding: 116 116 47
Width: 370
VWidth: 0
Flags: W
HStem: -10 40<241.628 340> 420 40<56 96 216 340>
VStem: 96 120<80.1421 420 460 558>
AnchorPoint: "below" 253 0 basechar 0
AnchorPoint: "above" 159 600 basechar 0
LayerCount: 2
Fore
SplineSet
296 30 m 2
 340 30 l 1
 340 -10 l 1
 296 -10 l 2
 156 -10 96 70 96 170 c 2
 96 420 l 1
 56 420 l 5
 56 460 l 5
 96 460 l 1
 96 558 l 1
 216 558 l 1
 216 460 l 1
 340 460 l 5
 340 420 l 5
 216 420 l 1
 216 150 l 2
 216 70 236 30 296 30 c 2
EndSplineSet
Validated: 1
EndChar

StartChar: u
Encoding: 117 117 48
Width: 552
VWidth: 0
Flags: W
HStem: -10 40<211.576 336.841> 440 20G<62 183 364 484>
VStem: 62 121<73.3943 460> 364 120<55.0557 460>
AnchorPoint: "ogonek" 484 0 basechar 0
AnchorPoint: "below" 274 0 basechar 0
AnchorPoint: "above" 275 500 basechar 0
LayerCount: 2
Fore
SplineSet
183 460 m 1
 183 150 l 2
 183 70 201 30 274 30 c 0
 347 30 364 74 364 140 c 2
 364 460 l 1
 484 460 l 1
 484 0 l 1
 371 0 l 1
 345 -7 312 -10 274 -10 c 0
 134 -10 62 55 62 158 c 2
 62 460 l 1
 183 460 l 1
EndSplineSet
Validated: 1
EndChar

StartChar: v
Encoding: 118 118 49
Width: 496
VWidth: 0
Flags: W
HStem: 0 21G<194.696 291.261> 440 20G<34 170.249 380.686 451>
AnchorPoint: "below" 244 0 basechar 0
AnchorPoint: "above" 270 500 basechar 0
LayerCount: 2
Fore
SplineSet
202 0 m 1
 34 460 l 1
 163 460 l 1
 275 151 l 1
 388 460 l 1
 451 460 l 1
 284 0 l 1
 202 0 l 1
EndSplineSet
Validated: 1
EndChar

StartChar: w
Encoding: 119 119 50
Width: 731
VWidth: 0
Flags: W
HStem: 0 21G<165.652 314.327 418.579 567.348> 440 20G<48 177.366 301 430.366 617.634 685>
AnchorPoint: "below" 370 0 basechar 0
AnchorPoint: "above" 378 500 basechar 0
LayerCount: 2
Fore
SplineSet
685 460 m 1
 562 0 l 1
 424 0 l 1
 366 214 l 1
 309 0 l 1
 171 0 l 1
 48 460 l 1
 172 460 l 1
 271 91 l 1
 336 330 l 1
 301 460 l 1
 425 460 l 1
 524 91 l 1
 623 460 l 1
 685 460 l 1
EndSplineSet
Validated: 1
EndChar

StartChar: x
Encoding: 120 120 51
Width: 517
VWidth: 0
Flags: W
HStem: 0 21G<57 142.544 315.481 465> 440 20G<61 211.493 353.567 440>
AnchorPoint: "below" 232 0 basechar 0
AnchorPoint: "above" 286 500 basechar 0
LayerCount: 2
Fore
SplineSet
202 216 m 1
 61 460 l 1
 200 460 l 1
 277 326 l 1
 367 460 l 1
 440 460 l 1
 310 268 l 1
 465 0 l 1
 327 0 l 1
 236 158 l 1
 129 0 l 1
 57 0 l 1
 202 216 l 1
EndSplineSet
Validated: 1
EndChar

StartChar: s
Encoding: 115 115 52
Width: 502
VWidth: 0
Flags: W
HStem: -10 40<195.269 297.943> 430 40<204.17 305.93>
VStem: 54 117<68.5073 132.137> 68 120<316.344 409.032> 321 120<53.7432 157.909>
AnchorPoint: "below" 246 0 basechar 0
AnchorPoint: "above" 255 500 basechar 0
LayerCount: 2
Fore
SplineSet
328 342 m 1xd8
 324 401 306 430 254 430 c 0
 193 430 188 383 188 352 c 0xd8
 188 264 441 295 441 128 c 0
 441 52 390 -10 246 -10 c 4
 121 -10 67 50 54 131 c 5
 171 150 l 5xe8
 171 70 186 30 246 30 c 4
 306 30 321 72 321 118 c 0
 321 213 68 200 68 342 c 0
 68 401 109 470 254 470 c 0
 362 470 417 425 438 361 c 1
 328 342 l 1xd8
EndSplineSet
Validated: 1
EndChar

StartChar: y
Encoding: 121 121 53
Width: 538
VWidth: 0
Flags: W
HStem: 440 20G<42 185.283 411.696 482>
AnchorPoint: "ogonek" 409 0 basechar 0
AnchorPoint: "below" 232 -140 basechar 0
AnchorPoint: "above" 309 500 basechar 0
LayerCount: 2
Fore
SplineSet
254 6 m 1
 42 460 l 1
 176 460 l 1
 312 167 l 1
 419 460 l 1
 482 460 l 1
 265 -140 l 1
 201 -140 l 1
 254 6 l 1
EndSplineSet
Validated: 1
EndChar

StartChar: z
Encoding: 122 122 54
Width: 527
VWidth: 0
Flags: W
HStem: 0 40<220 463> 420 40<61 301>
AnchorPoint: "below" 263 0 basechar 0
AnchorPoint: "above" 261 500 basechar 0
LayerCount: 2
Fore
SplineSet
61 460 m 1
 463 460 l 1
 220 40 l 1
 463 40 l 1
 463 0 l 1
 59 0 l 1
 301 420 l 1
 61 420 l 1
 61 460 l 1
EndSplineSet
Validated: 1
EndChar

StartChar: period
Encoding: 46 46 56
Width: 209
VWidth: 0
Flags: W
HStem: 0 110<47 162>
VStem: 47 115<0 110>
LayerCount: 2
Fore
SplineSet
47 110 m 1
 162 110 l 1
 162 0 l 1
 47 0 l 1
 47 110 l 1
EndSplineSet
Validated: 1
EndChar

StartChar: exclam
Encoding: 33 33 57
Width: 242
VWidth: 0
Flags: W
HStem: 0 100<66 176> 580 20G<61 181>
VStem: 66 110<0 100 513.6 600> 76 90<168 369.6>
LayerCount: 2
Fore
SplineSet
61 600 m 1xd0
 181 600 l 1
 166 168 l 1
 76 168 l 1
 61 600 l 1xd0
66 100 m 5xe0
 176 100 l 5
 176 0 l 5
 66 0 l 5
 66 100 l 5xe0
EndSplineSet
Validated: 1
EndChar

StartChar: quotesingle
Encoding: 39 39 59
Width: 242
VWidth: 0
Flags: W
HStem: 360 240<86 156>
VStem: 86 70<360 472>
LayerCount: 2
Fore
SplineSet
71 600 m 5
 171 600 l 5
 156 360 l 5
 86 360 l 5
 71 600 l 5
EndSplineSet
Validated: 1
EndChar

StartChar: dollar
Encoding: 36 36 60
Width: 502
VWidth: 0
Flags: W
HStem: 79 40<235.27 264.112> 479 40<235.927 265 305 308.491>
VStem: 68 120<376.903 462.32> 195 40<0 79 519 600> 265 40<0 79 519 600> 321 120<139.175 233.993>
LayerCount: 2
Fore
SplineSet
328 400 m 1
 324 453 306 479 254 479 c 0
 193 479 188 437 188 409 c 0
 188 330 441 357 441 207 c 0
 441 149 404 97 305 83 c 1
 305 0 l 5
 265 0 l 5
 265 79 l 1
 259 79 253 79 246 79 c 0
 242 79 239 79 235 79 c 1
 235 0 l 5
 195 0 l 5
 195 83 l 1
 106 97 65 148 54 210 c 1
 171 227 l 1
 171 155 186 119 246 119 c 0
 306 119 321 157 321 198 c 0
 321 284 68 272 68 400 c 0
 68 445 98 500 195 515 c 1
 195 600 l 5
 235 600 l 5
 235 519 l 1
 241 519 247 519 254 519 c 0
 258 519 261 519 265 519 c 1
 265 600 l 5
 305 600 l 5
 305 515 l 1
 380 503 421 465 438 417 c 1
 328 400 l 1
EndSplineSet
Validated: 1
EndChar

StartChar: comma
Encoding: 44 44 61
Width: 230
VWidth: 0
Flags: W
HStem: -106 215<77 106>
VStem: 47 145
LayerCount: 2
Fore
SplineSet
77 109 m 1
 192 109 l 1
 106 -106 l 1
 47 -106 l 1
 77 109 l 1
EndSplineSet
Validated: 1
EndChar

StartChar: numbersign
Encoding: 35 35 64
Width: 581
VWidth: 0
Flags: W
HStem: 0 21G<78 170.333 254 346.333> 180 40<42 108 204 284 380 456> 380 40<62 141 237 317 413 476> 580 20G<174.667 267 350.667 443>
LayerCount: 2
Fore
SplineSet
141 380 m 1
 62 380 l 1
 62 420 l 1
 148 420 l 1
 178 600 l 1
 267 600 l 1
 237 420 l 1
 324 420 l 1
 354 600 l 1
 443 600 l 1
 413 420 l 1
 476 420 l 1
 476 380 l 1
 406 380 l 1
 380 220 l 1
 456 220 l 1
 456 180 l 1
 373 180 l 1
 343 0 l 1
 254 0 l 1
 284 180 l 1
 197 180 l 1
 167 0 l 1
 78 0 l 1
 108 180 l 1
 42 180 l 1
 42 220 l 1
 115 220 l 1
 141 380 l 1
317 380 m 1
 230 380 l 1
 204 220 l 1
 291 220 l 1
 317 380 l 1
EndSplineSet
Validated: 1
EndChar

StartChar: slash
Encoding: 47 47 65
Width: 405
VWidth: 0
Flags: W
HStem: 0 21G<-20 89.5667> 580 20G<314.467 425>
LayerCount: 2
Fore
SplineSet
326 600 m 1
 425 600 l 1
 78 0 l 1
 -20 0 l 1
 326 600 l 1
EndSplineSet
Validated: 1
EndChar

StartChar: percent
Encoding: 37 37 66
Width: 613
VWidth: 0
Flags: W
HStem: 20 40<425.049 470.951> 200 40<425.049 470.951> 360 40<142.049 187.951> 540 40<142.049 187.951>
VStem: 55 77<404.155 535.845> 198 77<404.155 535.845> 338 77<64.1552 195.845> 481 77<64.1552 195.845>
LayerCount: 2
Fore
SplineSet
132 470 m 0
 132 444 139 400 165 400 c 0
 191 400 198 444 198 470 c 0
 198 496 191 540 165 540 c 0
 139 540 132 496 132 470 c 0
55 470 m 0
 55 531 104 580 165 580 c 0
 226 580 275 531 275 470 c 0
 275 409 226 360 165 360 c 0
 104 360 55 409 55 470 c 0
415 130 m 4
 415 104 422 60 448 60 c 4
 474 60 481 104 481 130 c 4
 481 156 474 200 448 200 c 4
 422 200 415 156 415 130 c 4
338 130 m 4
 338 191 387 240 448 240 c 4
 509 240 558 191 558 130 c 4
 558 69 509 20 448 20 c 4
 387 20 338 69 338 130 c 4
430 540 m 1
 529 540 l 1
 182 60 l 1
 84 60 l 1
 430 540 l 1
EndSplineSet
Validated: 1
EndChar

StartChar: hyphen
Encoding: 45 45 67
Width: 276
VWidth: 0
Flags: W
HStem: 206 50<42 234>
VStem: 42 192<206 256>
LayerCount: 2
Fore
SplineSet
42 256 m 1
 234 256 l 1
 234 206 l 1
 42 206 l 1
 42 256 l 1
EndSplineSet
Validated: 1
EndChar

StartChar: ampersand
Encoding: 38 38 68
Width: 564
VWidth: 0
Flags: W
HStem: -10 40<213.045 335.516> 0 40<445.453 519> 510 40<242.632 306.683>
VStem: 43 120<90.7661 243.248> 115 120<356.555 505.635> 314 61<389.123 505.906> 417 102<165.105 273>
LayerCount: 2
Fore
SplineSet
375 446 m 0xae
 375 366 314 348 258 321 c 1
 284 244 329 162 385 106 c 1
 408 151 417 212 417 273 c 1
 519 273 l 1
 519 194 485 119 434 66 c 1
 461 49 489 40 519 40 c 1
 519 0 l 1x6e
 478 0 437 13 398 35 c 1
 359 6 313 -10 265 -10 c 0
 119 -10 43 82 43 168 c 0xb6
 43 244 93 281 150 309 c 1
 128 352 115 390 115 414 c 0
 115 494 131 550 275 550 c 0
 356 550 375 496 375 446 c 0xae
248 355 m 1
 286 376 314 402 314 444 c 0
 314 483 309 510 275 510 c 0
 241 510 235 483 235 444 c 0
 235 418 239 388 248 355 c 1
181 256 m 1
 170 236 163 211 163 178 c 0
 163 109 195 30 265 30 c 0xb6
 303 30 332 43 354 64 c 1
 285 115 224 187 181 256 c 1
EndSplineSet
Validated: 1
EndChar

StartChar: parenleft
Encoding: 40 40 69
Width: 341
VWidth: 0
Flags: W
HStem: -40 40<242.199 286> 600 40<242.199 286>
VStem: 66 120<139.564 460.644>
LayerCount: 2
Fore
SplineSet
286 600 m 1
 186 600 186 401 186 300 c 0
 186 200 186 0 286 0 c 1
 286 -40 l 1
 198 -40 66 33 66 300 c 0
 66 567 198 640 286 640 c 1
 286 600 l 1
EndSplineSet
Validated: 1
EndChar

StartChar: parenright
Encoding: 41 41 70
Width: 341
VWidth: 0
Flags: W
HStem: -40 40<55 98.8013> 600 40<55 98.8013>
VStem: 155 120<139.356 460.436>
LayerCount: 2
Fore
SplineSet
55 0 m 1
 155 0 155 199 155 300 c 0
 155 400 155 600 55 600 c 1
 55 640 l 1
 143 640 275 567 275 300 c 0
 275 33 143 -40 55 -40 c 1
 55 0 l 1
EndSplineSet
Validated: 1
EndChar

StartChar: plus
Encoding: 43 43 71
Width: 345
VWidth: 0
Flags: W
HStem: 206 50<42 148 198 303>
VStem: 148 50<100 206 256 362>
LayerCount: 2
Fore
SplineSet
148 206 m 1
 42 206 l 1
 42 256 l 1
 148 256 l 1
 148 362 l 1
 198 362 l 1
 198 256 l 1
 303 256 l 1
 303 206 l 1
 198 206 l 1
 198 100 l 1
 148 100 l 1
 148 206 l 1
EndSplineSet
Validated: 1
EndChar

StartChar: asterisk
Encoding: 42 42 72
Width: 341
VWidth: 0
Flags: W
HStem: 324 236
VStem: 150 40<465 560>
LayerCount: 2
Fore
SplineSet
190 560 m 1
 190 465 l 1
 192 464 l 1
 281 493 l 1
 293 455 l 1
 204 426 l 1
 203 423 l 1
 258 347 l 1
 226 324 l 1
 170 401 l 1
 114 324 l 1
 82 347 l 1
 137 423 l 1
 136 426 l 1
 47 455 l 1
 59 493 l 1
 148 464 l 1
 150 465 l 1
 150 560 l 1
 190 560 l 1
EndSplineSet
Validated: 1
EndChar

StartChar: zero
Encoding: 48 48 73
Width: 500
VWidth: 0
Flags: W
HStem: -10 40<205.363 294.637> 510 40<205.363 294.637>
VStem: 30 120<147.431 392.569> 350 120<147.431 392.569>
LayerCount: 2
Fore
SplineSet
350 300 m 2
 350 380 330 510 250 510 c 0
 170 510 150 380 150 300 c 2
 150 240 l 2
 150 160 170 30 250 30 c 0
 330 30 350 160 350 240 c 2
 350 300 l 2
470 260 m 2
 470 160 410 -10 250 -10 c 0
 90 -10 30 160 30 260 c 2
 30 280 l 2
 30 380 90 550 250 550 c 0
 410 550 470 380 470 280 c 2
 470 260 l 2
EndSplineSet
Validated: 1
EndChar

StartChar: one
Encoding: 49 49 74
Width: 500
VWidth: 0
Flags: W
HStem: 0 21G<241 361>
VStem: 241 120<0 429>
LayerCount: 2
Fore
SplineSet
361 0 m 1
 241 0 l 1
 241 429 l 1
 139 371 l 1
 139 417 l 1
 361 545 l 1
 361 0 l 1
EndSplineSet
Validated: 1
EndChar

StartChar: two
Encoding: 50 50 75
Width: 500
VWidth: 0
Flags: W
HStem: 0 40<184 445> 510 40<199.509 301.421>
VStem: 55 120<370 463.598> 325 120<340.812 481.458>
LayerCount: 2
Fore
SplineSet
55 0 m 1
 55 195 325 281 325 400 c 0
 325 466 311 510 251 510 c 0
 191 510 175 470 175 390 c 2
 175 350 l 1
 55 370 l 1
 55 470 107 550 251 550 c 0
 395 550 445 490 445 390 c 0
 445 232 235 151 184 40 c 1
 445 40 l 1
 445 0 l 1
 55 0 l 1
EndSplineSet
Validated: 1
EndChar

StartChar: three
Encoding: 51 51 76
Width: 500
VWidth: 0
Flags: W
HStem: -10 40<180.848 319.152> 260 40<220 290.137> 510 40<199.509 301.421>
VStem: 30 120<80.1421 170> 55 120<370 463.598> 325 120<331.122 481.458> 350 120<79.6951 213.412>
LayerCount: 2
Fore
SplineSet
220 260 m 1xf2
 220 300 l 1
 282 300 325 328 325 400 c 0
 325 466 311 510 251 510 c 0
 191 510 175 470 175 390 c 2
 175 350 l 1
 55 370 l 1
 55 470 107 550 251 550 c 0
 395 550 445 490 445 390 c 0xec
 445 335 407 301 354 281 c 1
 417 262 470 228 470 170 c 0
 470 70 410 -10 250 -10 c 0
 90 -10 30 70 30 170 c 1
 150 190 l 1
 150 150 l 2
 150 70 170 30 250 30 c 0
 330 30 350 70 350 150 c 0
 350 220 286 260 220 260 c 1xf2
EndSplineSet
Validated: 1
EndChar

StartChar: four
Encoding: 52 52 77
Width: 500
VWidth: 0
Flags: W
HStem: 0 21G<263 383> 133 40<104 263 383 455>
VStem: 263 120<0 133 173 343>
LayerCount: 2
Fore
SplineSet
263 133 m 1
 45 133 l 1
 45 183 l 1
 383 545 l 1
 383 173 l 1
 455 173 l 1
 455 133 l 1
 383 133 l 1
 383 0 l 1
 263 0 l 1
 263 133 l 1
263 173 m 1
 263 343 l 1
 104 173 l 1
 263 173 l 1
EndSplineSet
Validated: 1
EndChar

StartChar: five
Encoding: 53 53 78
Width: 500
VWidth: 0
Flags: W
HStem: -10 40<190.868 302.592> 305 40<207 300.363> 500 40<221 397>
VStem: 49 117<68.5073 132.137> 331 120<61.8671 273.133>
LayerCount: 2
Fore
SplineSet
94 305 m 1
 116 540 l 1
 397 540 l 1
 397 500 l 1
 221 500 l 1
 207 345 l 1
 248 345 l 2
 400 345 451 285 451 185 c 2
 451 150 l 2
 451 50 400 -10 248 -10 c 0
 116 -10 62 50 49 131 c 1
 166 150 l 1
 166 70 182 30 248 30 c 0
 314 30 331 74 331 140 c 2
 331 195 l 2
 331 261 314 305 248 305 c 2
 94 305 l 1
EndSplineSet
Validated: 1
EndChar

StartChar: six
Encoding: 54 54 79
Width: 500
VWidth: 0
Flags: W
HStem: -10 40<190.16 309.84> 310 40<190.2 309.84> 500 40<323.597 407>
VStem: 31 120<70.9976 266.427> 349 120<71.6762 269.002>
LayerCount: 2
Fore
SplineSet
250 30 m 0
 332 30 349 102 349 170 c 0
 349 238 332 310 250 310 c 0
 168 310 151 238 151 170 c 0
 151 102 168 30 250 30 c 0
250 350 m 0
 454 350 469 246 469 170 c 0
 469 100 454 -10 250 -10 c 0
 46 -10 31 94 31 170 c 0
 31 403 231 540 407 540 c 1
 407 500 l 1
 327 500 237 448 188 346 c 1
 206 349 227 350 250 350 c 0
EndSplineSet
Validated: 1
EndChar

StartChar: seven
Encoding: 55 55 80
Width: 500
VWidth: 0
Flags: W
HStem: 0 21G<115 251.444> 500 40<55 317>
LayerCount: 2
Fore
SplineSet
244 0 m 1
 115 0 l 1
 317 500 l 1
 55 500 l 1
 55 540 l 1
 445 540 l 1
 244 0 l 1
EndSplineSet
Validated: 1
EndChar

StartChar: eight
Encoding: 56 56 81
Width: 500
VWidth: 0
Flags: W
HStem: -10 40<189.099 310.901> 270 40<199.938 300.062> 510 40<200.522 299.478>
VStem: 31 120<66.0745 233.726> 73 106<330.06 491.088> 321 106<332.684 490.817> 349 120<67.3929 233.666>
LayerCount: 2
Fore
SplineSet
250 30 m 0xf2
 332 30 349 98 349 150 c 0
 349 202 332 270 250 270 c 0
 168 270 151 202 151 150 c 0
 151 98 168 30 250 30 c 0xf2
250 550 m 0
 415 550 427 477 427 415 c 0xec
 427 376 421 325 363 298 c 1
 460 272 469 208 469 150 c 0
 469 80 454 -10 250 -10 c 0
 46 -10 31 74 31 150 c 0xf2
 31 204 40 270 137 297 c 1
 79 323 73 372 73 415 c 0xe8
 73 472 85 550 250 550 c 0
250 310 m 0
 316 310 321 369 321 411 c 0
 321 453 316 510 250 510 c 0
 184 510 179 453 179 411 c 0
 179 369 184 310 250 310 c 0
EndSplineSet
Validated: 1
EndChar

StartChar: nine
Encoding: 57 57 82
Width: 500
VWidth: 0
Flags: W
HStem: 0 40<93 176.403> 190 40<190.16 309.8> 510 40<190.16 309.84>
VStem: 31 120<270.998 468.324> 349 120<277.512 467.638>
LayerCount: 2
Fore
SplineSet
250 510 m 0
 168 510 151 438 151 370 c 0
 151 302 168 230 250 230 c 0
 332 230 349 301 349 369 c 2
 349 370 l 2
 349 438 332 510 250 510 c 0
250 190 m 0
 46 190 31 294 31 370 c 0
 31 440 46 550 250 550 c 0
 454 550 469 446 469 370 c 0
 469 137 269 0 93 0 c 1
 93 40 l 1
 173 40 263 92 312 194 c 1
 294 191 273 190 250 190 c 0
EndSplineSet
Validated: 1
EndChar

StartChar: less
Encoding: 60 60 83
Width: 398
VWidth: 0
Flags: W
VStem: 58 284
LayerCount: 2
Fore
SplineSet
124 270 m 1
 342 36 l 1
 276 36 l 1
 58 270 l 1
 276 504 l 1
 342 504 l 1
 124 270 l 1
EndSplineSet
Validated: 1
EndChar

StartChar: greater
Encoding: 62 62 84
Width: 398
VWidth: 0
Flags: W
VStem: 56 284
LayerCount: 2
Fore
SplineSet
274 270 m 1
 56 504 l 1
 122 504 l 1
 340 270 l 1
 122 36 l 1
 56 36 l 1
 274 270 l 1
EndSplineSet
Validated: 1
EndChar

StartChar: equal
Encoding: 61 61 85
Width: 350
VWidth: 0
Flags: W
HStem: 156 50<42 308> 256 50<42 308>
VStem: 42 266<156 206 256 306>
LayerCount: 2
Fore
SplineSet
42 306 m 1
 308 306 l 1
 308 256 l 1
 42 256 l 1
 42 306 l 1
42 206 m 1
 308 206 l 1
 308 156 l 1
 42 156 l 1
 42 206 l 1
EndSplineSet
Validated: 1
EndChar

StartChar: question
Encoding: 63 63 86
Width: 480
VWidth: 0
Flags: W
HStem: 0 100<180 290> 510 40<189.509 291.421>
VStem: 45 120<370 463.598> 180 110<0 100 177 228.411> 315 120<335.054 481.458>
LayerCount: 2
Fore
SplineSet
180 100 m 1
 290 100 l 1
 290 0 l 1
 180 0 l 1
 180 100 l 1
180 177 m 5
 180 323 315 281 315 400 c 4
 315 466 301 510 241 510 c 4
 181 510 165 470 165 390 c 6
 165 350 l 5
 45 370 l 5
 45 470 97 550 241 550 c 4
 385 550 435 490 435 390 c 4
 435 232 290 281 290 177 c 5
 180 177 l 5
EndSplineSet
Validated: 1
EndChar

StartChar: asciicircum
Encoding: 94 94 87
Width: 444
VWidth: 0
Flags: W
HStem: 178 282
LayerCount: 2
Fore
SplineSet
222 404 m 1
 110 178 l 1
 54 178 l 1
 194 460 l 1
 250 460 l 1
 390 178 l 1
 334 178 l 1
 222 404 l 1
EndSplineSet
Validated: 1
EndChar

StartChar: underscore
Encoding: 95 95 88
Width: 280
VWidth: 0
Flags: W
HStem: -90 50<0 280>
VStem: 0 280<-90 -40>
LayerCount: 2
Fore
SplineSet
0 -40 m 1
 280 -40 l 1
 280 -90 l 1
 0 -90 l 1
 0 -40 l 1
EndSplineSet
Validated: 1
EndChar

StartChar: sterling
Encoding: 163 163 89
Width: 502
VWidth: 0
Flags: W
HStem: 0 40<54 89.5594 152 452> 329 40<54 110 259 331> 570 40<214.17 315.93>
VStem: 78 120<412.142 549.032> 148 120<158.436 328.131>
LayerCount: 2
Fore
SplineSet
54 329 m 1xe8
 54 369 l 1
 110 369 l 1
 94 397 78 429 78 482 c 0
 78 541 119 610 264 610 c 0
 372 610 427 565 448 501 c 1
 338 482 l 1
 334 541 316 570 264 570 c 0
 203 570 198 523 198 492 c 0xf0
 198 439 223 409 243 369 c 1
 331 369 l 1
 331 329 l 1
 259 329 l 1
 264 312 268 292 268 268 c 0
 268 155 210 81 152 40 c 1
 452 40 l 1
 452 0 l 1
 54 0 l 1
 54 40 l 1
 94 40 148 118 148 258 c 0
 148 288 141 309 132 329 c 1
 54 329 l 1xe8
EndSplineSet
Validated: 1
EndChar

StartChar: exclamdown
Encoding: 161 161 90
Width: 242
VWidth: 0
Flags: W
HStem: 400 100<66 176>
VStem: 66 110<-100 -13.6 400 500> 76 90<130.4 332>
LayerCount: 2
Fore
SplineSet
181 -100 m 1xa0
 61 -100 l 1
 76 332 l 1
 166 332 l 1
 181 -100 l 1xa0
176 400 m 1xc0
 66 400 l 1
 66 500 l 1
 176 500 l 1
 176 400 l 1xc0
EndSplineSet
Validated: 1
EndChar

StartChar: questiondown
Encoding: 191 191 91
Width: 480
VWidth: 0
Flags: W
HStem: -100 40<188.579 290.491> 350 100<190 300>
VStem: 45 120<-31.4583 114.946> 190 110<221.589 273 350 450> 315 120<-13.598 80>
LayerCount: 2
Fore
SplineSet
300 350 m 1
 190 350 l 1
 190 450 l 1
 300 450 l 1
 300 350 l 1
300 273 m 1
 300 127 165 169 165 50 c 0
 165 -16 179 -60 239 -60 c 0
 299 -60 315 -20 315 60 c 2
 315 100 l 1
 435 80 l 1
 435 -20 383 -100 239 -100 c 0
 95 -100 45 -40 45 60 c 0
 45 218 190 169 190 273 c 1
 300 273 l 1
EndSplineSet
Validated: 1
EndChar

StartChar: at
Encoding: 64 64 92
Width: 613
VWidth: 0
Flags: W
HStem: -10 40<248.872 419.828> 117 40<278.049 324.351 420.702 449.345> 297 40<278.049 323.951> 430 40<236.681 378.583>
VStem: 50 100<137.621 337.876> 191 77<161.155 292.845> 334 77<163.453 292.768> 462 100<178.112 347.025>
LayerCount: 2
Fore
SplineSet
480 97 m 1
 552 56 l 1
 505 14 462 -10 333 -10 c 0
 137 -10 50 111 50 247 c 0
 50 365 141 470 301 470 c 0
 461 470 562 383 562 264 c 0
 562 173 510 123 435 123 c 0
 416 123 393 131 374 145 c 1
 355 128 329 117 301 117 c 0
 240 117 191 166 191 227 c 0
 191 288 240 337 301 337 c 0
 362 337 411 288 411 227 c 0
 411 195 421 163 435 163 c 0
 447 163 462 187 462 264 c 0
 462 358 393 430 301 430 c 0
 218 430 150 342 150 247 c 0
 150 133 201 30 333 30 c 0
 405 30 445 60 480 97 c 1
268 227 m 0
 268 201 275 157 301 157 c 0
 327 157 334 201 334 227 c 0
 334 253 327 297 301 297 c 0
 275 297 268 253 268 227 c 0
EndSplineSet
Validated: 1
EndChar

StartChar: gravecomb
Encoding: 768 768 93
Width: 0
VWidth: 0
Flags: W
HStem: 580 226
VStem: -402 204
AnchorPoint: "above" -221 560 mark 0
LayerCount: 2
Fore
SplineSet
-402 742 m 1
 -326 806 l 1
 -198 599 l 1
 -221 580 l 1
 -402 742 l 1
EndSplineSet
Validated: 1
EndChar

StartChar: acutecomb
Encoding: 769 769 94
Width: 0
VWidth: 0
Flags: W
HStem: 577 226
VStem: -377 204
AnchorPoint: "above" -354 550 mark 0
LayerCount: 2
Fore
SplineSet
-249 803 m 1
 -173 739 l 1
 -354 577 l 1
 -377 597 l 1
 -249 803 l 1
EndSplineSet
Validated: 1
EndChar

StartChar: uni0302
Encoding: 770 770 95
Width: 0
VWidth: 0
Flags: W
HStem: 589 165
VStem: -438 301
AnchorPoint: "above" -286 560 mark 0
LayerCount: 2
Fore
SplineSet
-286 754 m 1
 -137 614 l 1
 -154 589 l 1
 -285 655 l 1
 -421 586 l 1
 -438 612 l 1
 -286 754 l 1
EndSplineSet
Validated: 1
EndChar

StartChar: tildecomb
Encoding: 771 771 102
Width: 0
VWidth: 0
Flags: W
HStem: 586 78<-267.011 -160.126> 634 78<-397.874 -290.989>
VStem: -447 34<586.588 618.379> -145 34<679.621 711.412>
AnchorPoint: "above" -286 574 mark 0
LayerCount: 2
Fore
SplineSet
-348 634 m 0x70
 -373 634 -406 632 -413 585 c 1
 -447 587 l 17
 -437 648 -405 712 -340 712 c 0x70
 -266 712 -271 664 -210 664 c 0
 -185 664 -152 666 -145 713 c 1
 -111 711 l 17
 -121 650 -153 586 -218 586 c 0xb0
 -292 586 -287 634 -348 634 c 0x70
EndSplineSet
Validated: 1
EndChar

StartChar: uni0307
Encoding: 775 775 105
Width: 0
VWidth: 0
Flags: W
HStem: 601 90<-400 -310>
VStem: -400 90<601 691>
AnchorPoint: "above" -354 550 mark 0
LayerCount: 2
Fore
SplineSet
-400 691 m 1
 -310 691 l 1
 -310 601 l 1
 -400 601 l 1
 -400 691 l 1
EndSplineSet
Validated: 1
EndChar

StartChar: uni0308
Encoding: 776 776 106
Width: 0
VWidth: 0
Flags: W
HStem: 601 90<-490 -400 -310 -220>
VStem: -490 90<601 691> -310 90<601 691>
AnchorPoint: "above" -354 550 mark 0
LayerCount: 2
Fore
SplineSet
-310 691 m 5
 -220 691 l 5
 -220 601 l 5
 -310 601 l 5
 -310 691 l 5
-490 691 m 5
 -400 691 l 5
 -400 601 l 5
 -490 601 l 5
 -490 691 l 5
EndSplineSet
Validated: 1
EndChar

StartChar: uni030A
Encoding: 778 778 109
Width: 0
VWidth: 0
Flags: W
HStem: 551 33<-392.725 -315.275> 694 33<-392.725 -315.275>
VStem: -442 33<600.275 677.725> -299 33<600.275 677.725>
AnchorPoint: "above" -354 550 mark 0
LayerCount: 2
Fore
SplineSet
-409 639 m 0
 -409 608 -385 584 -354 584 c 0
 -323 584 -299 608 -299 639 c 0
 -299 670 -323 694 -354 694 c 0
 -385 694 -409 670 -409 639 c 0
-442 639 m 0
 -442 688 -403 727 -354 727 c 0
 -305 727 -266 688 -266 639 c 0
 -266 590 -305 551 -354 551 c 0
 -403 551 -442 590 -442 639 c 0
EndSplineSet
Validated: 1
EndChar

StartChar: dotlessi
Encoding: 305 305 124
Width: 271
VWidth: 0
Flags: W
HStem: 0 21G<75 195> 440 20G<75 195>
VStem: 75 120<0 460>
AnchorPoint: "above" 140 500 basechar 0
LayerCount: 2
Fore
SplineSet
195 0 m 5
 106 0 75 0 75 0 c 5
 75 460 l 5
 195 460 l 5
 195 0 l 5
EndSplineSet
Validated: 1
EndChar

StartChar: uni030C
Encoding: 780 780 152
Width: 0
VWidth: 0
Flags: W
HStem: 554 166
VStem: -392 282
AnchorPoint: "above" -249 560 mark 0
LayerCount: 2
Fore
SplineSet
-225 554 m 1
 -277 554 l 1
 -392 701 l 1
 -369 720 l 1
 -251 642 l 1
 -133 720 l 1
 -110 701 l 1
 -225 554 l 1
EndSplineSet
Validated: 1
EndChar

StartChar: florin
Encoding: 402 402 158
Width: 392
VWidth: 0
Flags: W
HStem: -138 40<-36 62.372> 364 40<48 88 208 332> 570 40<233.628 332>
VStem: 88 120<-47.8579 364 404 519.858>
LayerCount: 2
Fore
SplineSet
208 42 m 2
 208 -58 148 -138 8 -138 c 2
 -36 -138 l 1
 -36 -98 l 1
 8 -98 l 2
 68 -98 88 -58 88 22 c 2
 88 364 l 1
 48 364 l 1
 48 404 l 1
 88 404 l 1
 88 430 l 2
 88 530 148 610 288 610 c 2
 332 610 l 1
 332 570 l 1
 288 570 l 2
 228 570 208 530 208 450 c 2
 208 404 l 1
 332 404 l 1
 332 364 l 1
 208 364 l 1
 208 42 l 2
EndSplineSet
Validated: 1
EndChar

StartChar: Euro
Encoding: 8364 8364 159
Width: 576
VWidth: 0
Flags: W
HStem: -10 40<216.848 354.62> 223 50<42 66 186 362> 348 50<42 66 186 362> 570 40<216.848 355.081>
VStem: 66 120<80.1421 223 273 348 398 519.858> 386 114<70.1512 120.632 477.474 531.531>
LayerCount: 2
Fore
SplineSet
500 119 m 1
 481 44 417 -10 286 -10 c 0
 126 -10 66 70 66 170 c 2
 66 223 l 1
 27 223 l 1
 42 273 l 1
 66 273 l 1
 66 348 l 1
 27 348 l 1
 42 398 l 1
 66 398 l 1
 66 430 l 2
 66 530 126 610 286 610 c 0
 419 610 483 555 501 479 c 1
 386 450 l 1
 386 530 366 570 286 570 c 0
 206 570 186 530 186 450 c 2
 186 398 l 1
 377 398 l 1
 362 348 l 1
 186 348 l 1
 186 273 l 1
 377 273 l 1
 362 223 l 1
 186 223 l 1
 186 150 l 2
 186 70 206 30 286 30 c 0
 366 30 386 70 386 150 c 1
 500 119 l 1
EndSplineSet
Validated: 1
EndChar

StartChar: thorn
Encoding: 254 254 160
Width: 541
VWidth: 0
Flags: W
HStem: -11 40<213.234 333.411> 429 40<213.234 333.411> 580 20G<67 187>
VStem: 67 120<-141 0 53.6387 404.361 458 600> 360 120<59.25 398.75>
LayerCount: 2
Fore
SplineSet
360 139 m 2
 360 319 l 2
 360 385 343 429 274 429 c 0
 205 429 187 389 187 309 c 2
 187 149 l 2
 187 69 205 29 274 29 c 0
 343 29 360 73 360 139 c 2
187 -0 m 1
 187 -141 l 1
 67 -141 l 1
 67 600 l 1
 187 600 l 1
 187 458 l 1
 211 465 240 469 274 469 c 0
 430 469 480 409 480 309 c 2
 480 149 l 2
 480 49 430 -11 274 -11 c 0
 240 -11 211 -7 187 -0 c 1
EndSplineSet
Validated: 1
EndChar

StartChar: Thorn
Encoding: 222 222 161
Width: 537
VWidth: 0
Flags: W
HStem: 0 21G<75 195> 140 40<218.918 323.508> 420 40<195 323.508> 580 20G<75 195>
VStem: 75 120<0 140 202.778 420 460 600> 355 120<214.28 385.72>
LayerCount: 2
Fore
SplineSet
195 600 m 1
 195 460 l 1
 275 460 l 2
 415 460 475 400 475 300 c 0
 475 200 415 140 275 140 c 2
 195 140 l 1
 195 0 l 1
 75 0 l 1
 75 600 l 1
 195 600 l 1
275 180 m 0
 335 180 355 240 355 300 c 0
 355 360 335 420 275 420 c 2
 195 420 l 1
 195 280 l 2
 195 220 215 180 275 180 c 0
EndSplineSet
Validated: 1
EndChar

StartChar: uni0304
Encoding: 772 772 162
Width: 0
VWidth: 0
Flags: W
HStem: 612 52<-252 -42>
VStem: -252 210<612 664>
AnchorPoint: "above" -145 574 mark 0
LayerCount: 2
Fore
SplineSet
-252 664 m 1
 -42 664 l 1
 -42 612 l 1
 -252 612 l 1
 -252 664 l 1
EndSplineSet
Validated: 1
EndChar

StartChar: uni0306
Encoding: 774 774 163
Width: 0
VWidth: 0
Flags: W
HStem: 602 42<-338.725 -235.275>
VStem: -411 44<671.798 714.114> -207 44<671.798 714.114>
AnchorPoint: "above" -286 574 mark 0
LayerCount: 2
Fore
SplineSet
-207 720 m 0
 -163 713 l 0
 -172 660 -213 602 -287 602 c 0
 -361 602 -402 660 -411 713 c 0
 -367 720 l 0
 -359 675 -329 644 -287 644 c 0
 -245 644 -215 675 -207 720 c 0
EndSplineSet
Validated: 1
EndChar

StartChar: uni030B
Encoding: 779 779 164
Width: 0
VWidth: 0
Flags: W
HStem: 577 226
AnchorPoint: "above" -354 550 mark 0
LayerCount: 2
Fore
SplineSet
-149 803 m 1
 -73 739 l 1
 -254 577 l 1
 -277 597 l 1
 -149 803 l 1
-349 803 m 1
 -273 739 l 1
 -454 577 l 1
 -477 597 l 1
 -349 803 l 1
EndSplineSet
Validated: 1
EndChar

StartChar: uni0312
Encoding: 786 786 165
Width: 0
VWidth: 0
Flags: W
HStem: 586 215<-72 -59>
VStem: -158 129
AnchorPoint: "above" -106 550 mark 0
LayerCount: 2
Fore
SplineSet
-59 586 m 1
 -158 586 l 1
 -72 801 l 1
 -29 801 l 1
 -59 586 l 1
EndSplineSet
Validated: 1
EndChar

StartChar: dotbelowcomb
Encoding: 803 803 166
Width: 257
VWidth: 0
Flags: W
HStem: -150 90<92 182>
VStem: 92 90<-150 -60>
AnchorPoint: "below" 140 0 mark 0
LayerCount: 2
Fore
SplineSet
92 -60 m 1
 182 -60 l 1
 182 -150 l 1
 92 -150 l 1
 92 -60 l 1
EndSplineSet
Validated: 1
EndChar

StartChar: uni0326
Encoding: 806 806 167
Width: 0
VWidth: 0
Flags: W
HStem: -272 215<-404 -391>
VStem: -434 129
AnchorPoint: "below" -352 0 mark 0
LayerCount: 2
Fore
SplineSet
-404 -57 m 1
 -305 -57 l 1
 -391 -272 l 1
 -434 -272 l 1
 -404 -57 l 1
EndSplineSet
Validated: 1
EndChar

StartChar: uni0327
Encoding: 807 807 168
Width: 0
VWidth: 0
Flags: W
HStem: -244 28<-241 -153.175>
VStem: -120 66<-196.781 -127.841>
AnchorPoint: "below" -135 0 mark 0
LayerCount: 2
Fore
SplineSet
-197 -113 m 1
 -197 -82 -187 0 -187 0 c 1
 -88 0 l 1
 -136 -82 l 1
 -97 -82 -54 -117 -54 -152 c 1
 -54 -210 -91 -244 -241 -244 c 1
 -243 -216 l 17
 -148 -216 -120 -191 -120 -159 c 1
 -120 -131 -161 -113 -197 -113 c 1
EndSplineSet
Validated: 1
EndChar

StartChar: AE
Encoding: 198 198 171
Width: 806
VWidth: 0
Flags: W
HStem: 0 40<492.918 749> 220 40<192 349> 320 40<492.918 649> 560 40<469 729> 570 40<217.483 326.179>
VStem: 72 120<0 220 260 519.858> 349 120<62.7779 220 260 320 382.778 548.983>
AnchorPoint: "below" 414 0 basechar 0
AnchorPoint: "above" 412 640 basechar 0
LayerCount: 2
Fore
SplineSet
349 600 m 1xf6
 729 600 l 1
 729 560 l 1
 469 560 l 1xf6
 469 460 l 2
 469 400 489 360 549 360 c 2
 649 360 l 1
 649 320 l 1
 469 320 l 1
 469 140 l 2
 469 80 489 40 549 40 c 2
 749 40 l 1
 749 0 l 1
 349 0 l 1
 349 220 l 1
 192 220 l 1
 192 0 l 1
 72 0 l 1
 72 430 l 2
 72 530 132 610 272 610 c 0xee
 301 610 327 606 349 600 c 1xf6
272 570 m 0xee
 212 570 192 530 192 450 c 2
 192 260 l 1
 349 260 l 1
 349 496 l 1
 341 545 319 570 272 570 c 0xee
EndSplineSet
Validated: 1
EndChar

StartChar: multiply
Encoding: 215 215 173
Width: 434
VWidth: 0
Flags: W
HStem: 136 234
VStem: 87 234
LayerCount: 2
Fore
SplineSet
240 253 m 1
 321 172 l 1
 285 136 l 1
 204 217 l 1
 123 136 l 1
 87 172 l 1
 168 253 l 1
 87 334 l 1
 123 370 l 1
 204 289 l 1
 285 370 l 1
 321 334 l 1
 240 253 l 1
EndSplineSet
Validated: 1
EndChar

StartChar: ae
Encoding: 230 230 174
Width: 801
VWidth: 0
Flags: W
HStem: -10 40<481.144 595.346> 0 40<205.211 334> 210 40<205.211 310.082> 270 40<456 621> 430 40<208.269 310.915 481.997 595.878>
VStem: 54 120<65.2075 184.793> 67 117<327.863 391.493> 334 122<53.4233 187.222 250 270 310 406.577> 621 121<78.0097 132.099 310 386.606>
AnchorPoint: "below" 402 0 basechar 0
AnchorPoint: "above" 395 500 basechar 0
LayerCount: 2
Fore
SplineSet
254 210 m 0x7d80
 194 210 174 158 174 125 c 0
 174 92 194 40 254 40 c 2
 334 40 l 1
 334 110 l 2
 334 170 314 210 254 210 c 0x7d80
67 329 m 1x7b80
 80 410 134 470 259 470 c 0
 320 470 364 459 395 439 c 1
 427 459 473 470 538 470 c 0
 670 470 742 405 742 302 c 2
 742 270 l 1
 456 270 l 1
 456 140 l 2
 456 74 472 30 538 30 c 0
 604 30 621 70 621 150 c 1
 738 131 l 1
 725 50 670 -10 538 -10 c 0xbb80
 502 -10 471 -7 446 0 c 1
 254 0 l 2
 114 0 54 55 54 125 c 0x7d80
 54 195 114 250 254 250 c 2
 334 250 l 1
 334 320 l 2
 334 386 319 430 259 430 c 0
 199 430 184 390 184 310 c 1
 67 329 l 1x7b80
456 310 m 1
 621 310 l 1
 621 390 604 430 538 430 c 0
 472 430 456 386 456 320 c 2
 456 310 l 1
EndSplineSet
Validated: 1
EndChar

StartChar: eth
Encoding: 240 240 175
Width: 576
VWidth: 0
Flags: W
HStem: -10 40<234.317 341.683> 350 40<234.317 343.21> 560 40<131 206.685>
VStem: 69 120<84.0681 298.665> 387 120<81.3352 298.976>
LayerCount: 2
Fore
SplineSet
346 386 m 1
 327 428 301 463 273 491 c 1
 155 436 l 1
 134 482 l 1
 231 527 l 1
 198 549 164 560 131 560 c 1
 131 600 l 1
 184 600 240 584 291 555 c 1
 388 600 l 1
 409 555 l 1
 340 522 l 1
 435 449 507 330 507 190 c 0
 507 114 492 -10 288 -10 c 0
 84 -10 69 120 69 190 c 0
 69 266 84 390 288 390 c 0
 309 390 329 389 346 386 c 1
387 190 m 0
 387 258 370 350 288 350 c 0
 206 350 189 258 189 190 c 0
 189 122 206 30 288 30 c 0
 370 30 387 122 387 190 c 0
EndSplineSet
Validated: 1
EndChar

StartChar: Oslash
Encoding: 216 216 176
Width: 576
VWidth: 0
UnlinkRmOvrlpSave: 1
Flags: W
HStem: -10 40<216.848 355.152> 0 21G<88 146.967> 570 40<216.848 355.152> 580 20G<435.033 494>
VStem: 66 120<80.1421 519.858> 386 120<80.1421 519.858>
LayerCount: 2
Fore
SplineSet
447 600 m 5x5c
 494 600 l 5
 135 0 l 5
 88 0 l 5
 447 600 l 5x5c
EndSplineSet
Refer: 14 79 N 1 0 0 1 0 0 2
EndChar

StartChar: oslash
Encoding: 248 248 177
Width: 539
VWidth: 0
UnlinkRmOvrlpSave: 1
Flags: W
HStem: -10 40<206.311 329.689> 0 21G<106 164.957> 430 40<206.311 329.689> 440 20G<369.043 428>
VStem: 58 120<61.8671 398.133> 358 120<61.8671 398.133>
LayerCount: 2
Fore
SplineSet
428 460 m 1x5c
 153 0 l 1
 106 0 l 1
 381 460 l 1
 428 460 l 1x5c
EndSplineSet
Refer: 43 111 N 1 0 0 1 0 0 2
EndChar

StartChar: tcaron
Encoding: 357 357 185
Width: 461
VWidth: 0
Flags: W
HStem: -10 40<241.628 340> 420 40<56 96 216 256>
VStem: 96 120<80.1421 420 460 558>
LayerCount: 2
Fore
SplineSet
296 30 m 2
 340 30 l 1
 340 -10 l 1
 296 -10 l 2
 156 -10 96 70 96 170 c 2
 96 420 l 1
 56 420 l 1
 56 460 l 1
 96 460 l 1
 96 558 l 1
 216 558 l 1
 216 460 l 1
 256 460 l 1
 256 420 l 1
 216 420 l 1
 216 150 l 2
 216 70 236 30 296 30 c 2
299 558 m 1
 414 558 l 1
 328 343 l 1
 269 343 l 1
 299 558 l 1
EndSplineSet
Validated: 1
EndChar

StartChar: Dcroat
Encoding: 272 272 218
Width: 599
VWidth: 0
Flags: W
HStem: 0 40<218.918 343.838> 317 50<0 75 195 280> 560 40<195 343.838>
VStem: 75 120<62.7779 317 367 560> 415 120<144.312 455.688>
LayerCount: 2
Fore
SplineSet
535 300 m 0
 535 120 475 0 315 0 c 2
 75 0 l 1
 75 317 l 1
 0 317 l 1
 0 367 l 1
 75 367 l 1
 75 600 l 1
 315 600 l 2
 475 600 535 480 535 300 c 0
415 320 m 2
 415 480 375 560 275 560 c 2
 195 560 l 1
 195 367 l 1
 280 367 l 1
 280 317 l 1
 195 317 l 1
 195 140 l 2
 195 80 215 40 275 40 c 0
 375 40 415 120 415 280 c 2
 415 320 l 2
EndSplineSet
Validated: 1
EndChar

StartChar: dcroat
Encoding: 273 273 219
Width: 574
VWidth: 0
Flags: W
HStem: -10 40<204.589 324.766> 0 21G<351 471> 430 40<204.589 324.766> 490 50<247 351 471 527> 580 20G<351 471>
VStem: 58 120<60.25 399.75> 351 120<0 1 54.6387 405.361 459 490 540 600>
LayerCount: 2
Fore
SplineSet
178 320 m 2xbe
 178 140 l 2
 178 74 195 30 264 30 c 0
 333 30 351 70 351 150 c 2
 351 310 l 2
 351 390 333 430 264 430 c 0
 195 430 178 386 178 320 c 2xbe
471 490 m 1
 471 0 l 1
 351 0 l 1x7e
 351 1 l 1
 327 -6 298 -10 264 -10 c 0
 108 -10 58 50 58 150 c 2
 58 310 l 2
 58 410 108 470 264 470 c 0
 298 470 327 466 351 459 c 1
 351 490 l 1
 247 490 l 5
 247 540 l 5
 351 540 l 1
 351 600 l 1
 471 600 l 1
 471 540 l 1
 527 540 l 5
 527 490 l 5
 471 490 l 1
EndSplineSet
Validated: 1
EndChar

StartChar: Lslash
Encoding: 321 321 220
Width: 519
VWidth: 0
UnlinkRmOvrlpSave: 1
Flags: W
HStem: 0 40<218.918 475> 440 20G<207.143 259.474> 580 20<75 195>
VStem: 75 120<62.7779 600>
LayerCount: 2
Fore
SplineSet
40 362 m 1
 250 460 l 1
 268 422 l 1
 57 324 l 1
 40 362 l 1
EndSplineSet
Refer: 11 76 N 1 0 0 1 0 0 2
EndChar

StartChar: lslash
Encoding: 322 322 221
Width: 305
VWidth: 0
UnlinkRmOvrlpSave: 1
Flags: W
HStem: -10 40<201.242 249> 440 20G<207.143 259.474> 580 20<73 193>
VStem: 40 228 73 120<35.1176 600>
LayerCount: 2
Fore
SplineSet
40 362 m 1xf0
 250 460 l 1
 268 422 l 1
 57 324 l 1
 40 362 l 1xf0
EndSplineSet
Refer: 37 108 N 1 0 0 1 0 0 2
EndChar

StartChar: uni0328
Encoding: 808 808 222
Width: 0
VWidth: 0
Flags: W
HStem: -200 28<-124.885 -58> -20 20G<-190 -98>
VStem: -215 66<-155.862 -31.9856>
AnchorPoint: "ogonek" -98 0 mark 0
LayerCount: 2
Fore
SplineSet
-149 -106 m 0
 -149 -160 -112 -172 -56 -172 c 9
 -58 -200 l 1
 -150 -200 -215 -181 -215 -108 c 0
 -215 -50 -194 -16 -186 0 c 1
 -98 0 l 1
 -129 -22 -149 -64 -149 -106 c 0
EndSplineSet
Validated: 1
EndChar

StartChar: uni0237
Encoding: 567 567 233
Width: 274
VWidth: 0
Flags: W
HStem: -150 40<22 69.7578> 440 20G<78 198>
VStem: 78 120<-104.882 460>
AnchorPoint: "above" 140 500 basechar 0
AnchorPoint: "below" 139 -140 basechar 0
LayerCount: 2
Fore
SplineSet
22 -110 m 21
 72 -110 78 -100 78 -36 c 6
 78 460 l 1
 198 460 l 1
 198 -16 l 6
 198 -116 162 -150 22 -150 c 13
 22 -110 l 21
EndSplineSet
Validated: 1
EndChar

StartChar: Hbar
Encoding: 294 294 247
Width: 611
VWidth: 0
UnlinkRmOvrlpSave: 1
Flags: W
HStem: 0 21<75 195 415 535> 320 40<218.918 415> 490 50<45 565> 580 20<75 195 415 535>
VStem: 75 120<0 320 382.778 600> 415 120<0 320 360 600>
LayerCount: 2
Fore
SplineSet
45 540 m 1
 565 540 l 1
 565 490 l 1
 45 490 l 1
 45 540 l 1
EndSplineSet
Refer: 7 72 N 1 0 0 1 0 0 2
EndChar

StartChar: hbar
Encoding: 295 295 248
Width: 544
VWidth: 0
UnlinkRmOvrlpSave: 1
Flags: W
HStem: 0 21<75 195 360 481> 430 40<220.348 334.878> 490 50<36 316> 580 20<75 195>
VStem: 75 120<0 406.577 462 600> 360 121<0 386.606>
LayerCount: 2
Fore
SplineSet
36 490 m 1
 36 540 l 1
 316 540 l 1
 316 490 l 1
 36 490 l 1
EndSplineSet
Refer: 36 104 N 1 0 0 1 0 0 2
EndChar

StartChar: kgreenlandic
Encoding: 312 312 249
Width: 554
VWidth: 0
Flags: W
HStem: 0 21G<75 195 346.545 504> 440 20G<75 195 357 473>
VStem: 75 120<0 182 278 460>
AnchorPoint: "below" 268 0 basechar 0
AnchorPoint: "above" 277 500 basechar 0
LayerCount: 2
Fore
SplineSet
215 202 m 1
 195 182 l 1
 195 0 l 1
 75 0 l 1
 75 460 l 1
 195 460 l 1
 195 278 l 1
 377 460 l 1
 473 460 l 1
 298 285 l 1
 504 0 l 1
 361 0 l 1
 215 202 l 1
EndSplineSet
Validated: 1
EndChar

StartChar: Eng
Encoding: 330 330 280
Width: 663
VWidth: 0
Flags: W
HStem: -10 40<380.968 446.715> 0 21G<71 191> 570 40<235.19 421.168> 580 20G<71 191>
VStem: 71 120<0 529.893 592 600> 467 120<58.6138 516.06>
LayerCount: 2
Fore
SplineSet
71 600 m 1x5c
 191 600 l 1x5c
 191 592 l 1
 227 604 272 610 329 610 c 0
 527 610 587 530 587 430 c 2
 587 150 l 2
 587 50 536 -10 412 -10 c 0
 336 -10 294 18 265 62 c 1
 360 99 l 1
 367 53 394 30 412 30 c 0
 453 30 467 74 467 140 c 2
 467 450 l 2
 467 530 432 570 329 570 c 0xac
 226 570 191 530 191 450 c 2
 191 0 l 1
 71 0 l 1
 71 600 l 1x5c
EndSplineSet
Validated: 1
EndChar

StartChar: eng
Encoding: 331 331 281
Width: 617
VWidth: 0
Flags: W
HStem: -150 40<235.47 355.179> 0 21G<67 187> 430 40<225.409 353.898>
VStem: 67 120<0 394.121> 392 121<-71.4209 379.288>
LayerCount: 2
Fore
SplineSet
392 310 m 2
 392 390 355 430 289 430 c 0
 223 430 187 386 187 320 c 2
 187 0 l 1
 67 0 l 1
 67 460 l 1
 177 460 l 1
 202 467 253 470 289 470 c 0
 421 470 513 405 513 302 c 2
 513 10 l 6
 513 -90 442 -150 298 -150 c 4
 212 -150 140 -122 111 -78 c 5
 206 -41 l 5
 213 -87 252 -110 298 -110 c 4
 358 -110 392 -66 392 0 c 6
 392 310 l 2
EndSplineSet
Validated: 1
EndChar

StartChar: Tbar
Encoding: 358 358 282
Width: 610
VWidth: 0
UnlinkRmOvrlpSave: 1
Flags: W
HStem: 0 21<194 314> 317 50<113 393> 560 40<-26 170.082 314 534>
VStem: 194 120<0 537.222>
LayerCount: 2
Fore
SplineSet
113 317 m 5
 113 367 l 5
 393 367 l 5
 393 317 l 5
 113 317 l 5
EndSplineSet
Refer: 19 84 N 1 0 0 1 0 0 2
EndChar

StartChar: tbar
Encoding: 359 359 283
Width: 370
VWidth: 0
UnlinkRmOvrlpSave: 1
Flags: W
HStem: -10 40<241.628 340> 317 50<56 336> 420 40<56 96 216 340>
VStem: 96 120<80.1421 420 460 558>
LayerCount: 2
Fore
SplineSet
56 317 m 1
 56 367 l 1
 336 367 l 1
 336 317 l 1
 56 317 l 1
EndSplineSet
Refer: 47 116 N 1 0 0 1 0 0 2
EndChar

StartChar: OE
Encoding: 338 338 320
Width: 822
VWidth: 0
Flags: W
HStem: -10 40<216.848 355.616> -0 40<508.918 765> 320 40<508.918 665> 560 40<485 745> 570 40<216.848 355.616>
VStem: 66 120<80.1421 519.858> 365 120<62.7779 320 382.778 558.525>
LayerCount: 2
Fore
SplineSet
374 -0 m 1x76
 349 -6 320 -10 286 -10 c 0
 126 -10 66 70 66 170 c 2
 66 430 l 2
 66 530 126 610 286 610 c 0xae
 320 610 349 606 374 600 c 1
 745 600 l 1
 745 560 l 1
 485 560 l 1
 485 460 l 2
 485 400 505 360 565 360 c 2
 665 360 l 1
 665 320 l 1
 485 320 l 1
 485 140 l 2
 485 80 505 40 565 40 c 2
 765 40 l 1
 765 0 l 1
 374 -0 l 1x76
365 59 m 1
 365 541 l 1
 350 560 325 570 286 570 c 0
 206 570 186 530 186 450 c 2
 186 150 l 2
 186 70 206 30 286 30 c 0
 325 30 350 40 365 59 c 1
EndSplineSet
Validated: 1
EndChar

StartChar: oe
Encoding: 339 339 321
Width: 823
VWidth: 0
Flags: W
HStem: -10 40<206.311 330.737 503.997 617.346> 270 40<478 643> 430 40<206.311 330.737 503.997 617.878>
VStem: 58 120<61.8671 398.133> 358 120<55.0557 270 310 404.944> 643 121<78.0097 132.099 310 386.606>
LayerCount: 2
Fore
SplineSet
268 30 m 0
 341 30 358 74 358 140 c 2
 358 320 l 2
 358 386 341 430 268 430 c 0
 195 430 178 386 178 320 c 2
 178 140 l 2
 178 74 195 30 268 30 c 0
478 310 m 1
 643 310 l 1
 643 390 626 430 560 430 c 0
 494 430 478 386 478 320 c 2
 478 310 l 1
417 439 m 1
 449 459 495 470 560 470 c 0
 692 470 764 405 764 302 c 2
 764 270 l 1
 478 270 l 1
 478 140 l 2
 478 74 494 30 560 30 c 0
 626 30 643 70 643 150 c 1
 760 131 l 1
 747 50 692 -10 560 -10 c 0
 495 -10 449 1 417 21 c 1
 384 1 336 -10 268 -10 c 0
 108 -10 58 50 58 150 c 2
 58 310 l 2
 58 410 108 470 268 470 c 0
 336 470 384 459 417 439 c 1
EndSplineSet
Validated: 1
EndChar

StartChar: cent
Encoding: 162 162 324
Width: 519
VWidth: 0
Flags: W
HStem: 94 40<235.028 263.058> 430 40<235.028 263.058>
VStem: 58 120<163.539 400.461> 195 40<0 95 469 540> 265 40<0 94 470 540> 343 117<173.949 236.137 327.863 390.051>
LayerCount: 2
Fore
SplineSet
178 244 m 2
 178 178 194 134 260 134 c 0
 326 134 343 174 343 254 c 1
 460 235 l 1
 449 164 405 109 305 97 c 1
 305 0 l 1
 265 0 l 1
 265 94 l 1
 263 94 262 94 260 94 c 0
 251 94 243 95 235 95 c 1
 235 0 l 1
 195 0 l 1
 195 98 l 1
 93 114 58 170 58 254 c 2
 58 310 l 2
 58 394 93 450 195 466 c 1
 195 540 l 1
 235 540 l 1
 235 469 l 1
 243 469 251 470 260 470 c 0
 262 470 263 470 265 470 c 1
 265 540 l 1
 305 540 l 1
 305 467 l 1
 405 455 449 400 460 329 c 1
 343 310 l 1
 343 390 326 430 260 430 c 0
 194 430 178 386 178 320 c 2
 178 244 l 2
EndSplineSet
Validated: 1
EndChar

StartChar: currency
Encoding: 164 164 325
Width: 508
VWidth: 0
Flags: W
HStem: 116 70<194.789 311.45> 363 69<195.365 311.064> 448 20G<76 116 390 430>
VStem: 95 69<217.291 332.064> 342 69<216.845 331.635>
LayerCount: 2
Fore
SplineSet
253 186 m 0
 299 186 342 222 342 274 c 0
 342 320 305 363 253 363 c 0
 207 363 164 326 164 274 c 0
 164 228 201 186 253 186 c 0
345 145 m 1
 318 126 286 116 253 116 c 0
 217 116 186 128 161 146 c 1
 96 81 l 1
 59 117 l 1
 124 182 l 1
 105 209 95 241 95 274 c 0
 95 309 106 341 124 366 c 1
 59 431 l 1
 96 468 l 1
 161 403 l 1
 188 422 220 432 253 432 c 0
 288 432 320 421 345 403 c 1
 410 468 l 1
 447 431 l 1
 382 366 l 1
 401 339 411 307 411 274 c 0
 411 239 400 207 382 182 c 1
 447 117 l 1
 410 81 l 1
 345 145 l 1
EndSplineSet
Validated: 1
EndChar

StartChar: bar
Encoding: 124 124 327
Width: 238
VWidth: 0
Flags: W
VStem: 90 58<-60 660>
LayerCount: 2
Fore
SplineSet
90 660 m 1
 148 660 l 1
 148 -60 l 1
 90 -60 l 1
 90 660 l 1
EndSplineSet
Validated: 1
EndChar

StartChar: brokenbar
Encoding: 166 166 328
Width: 238
VWidth: 0
Flags: W
VStem: 90 58<-60 241 359 660>
LayerCount: 2
Fore
SplineSet
90 660 m 1
 148 660 l 1
 148 359 l 1
 90 359 l 1
 90 660 l 1
90 241 m 1
 148 241 l 1
 148 -60 l 1
 90 -60 l 1
 90 241 l 1
EndSplineSet
Validated: 1
EndChar

StartChar: braceleft
Encoding: 123 123 329
Width: 375
VWidth: 0
Flags: W
HStem: -10 40<265.628 320> 280 40<40 96.0818> 570 40<265.628 320>
VStem: 120 120<76.4038 235.387 364.999 524.041>
CounterMasks: 1 e0
LayerCount: 2
Fore
SplineSet
320 30 m 1
 320 -10 l 1
 180 -10 120 65 120 165 c 0
 120 246 100 280 40 280 c 5
 40 320 l 5
 100 320 120 355 120 435 c 4
 120 536 180 610 320 610 c 5
 320 570 l 5
 260 570 240 536 240 455 c 0
 240 386 212 329 148 300 c 1
 212 271 240 215 240 145 c 0
 240 65 260 30 320 30 c 1
EndSplineSet
Validated: 1
EndChar

StartChar: braceright
Encoding: 125 125 330
Width: 375
VWidth: 0
Flags: W
HStem: -10 40<40 94.372> 280 40<263.918 320> 570 40<40 94.372>
VStem: 120 120<75.9595 235.001 364.613 523.596>
CounterMasks: 1 e0
LayerCount: 2
Fore
SplineSet
40 570 m 1
 40 610 l 1
 180 610 240 535 240 435 c 0
 240 354 260 320 320 320 c 1
 320 280 l 1
 260 280 240 245 240 165 c 0
 240 64 180 -10 40 -10 c 1
 40 30 l 1
 100 30 120 64 120 145 c 0
 120 214 148 271 212 300 c 1
 148 329 120 385 120 455 c 0
 120 535 100 570 40 570 c 1
EndSplineSet
Validated: 1
EndChar

StartChar: asciitilde
Encoding: 126 126 331
Width: 522
VWidth: 0
Flags: W
HStem: 261 88<279 396.758> 333 88<125.242 243>
LayerCount: 2
Fore
SplineSet
443 384 m 1x80
 477 361 l 1
 429 292 375 261 320 261 c 0x80
 238 261 193 333 137 333 c 0
 109 333 92 317 79 298 c 1
 45 321 l 1
 93 390 147 421 202 421 c 0x40
 284 421 329 349 385 349 c 0
 413 349 430 365 443 384 c 1x80
EndSplineSet
Validated: 1
EndChar

StartChar: section
Encoding: 167 167 332
Width: 479
VWidth: 0
Flags: W
HStem: -10 40<158.91 268.083> 570 40<210.917 320.09>
VStem: 57 109<267.022 374.625> 65 120<429.693 546.553> 294 120<53.4469 170.307> 313 109<225.375 332.978>
LayerCount: 2
Fore
SplineSet
414 124 m 0xc8
 414 50 359 -10 225 -10 c 0
 177 -10 65 15 35 81 c 1
 138 104 l 1
 140 60 163 30 216 30 c 0
 263 30 294 57 294 128 c 0
 294 228 57 178 57 309 c 0xe8
 57 349 82 385 108 409 c 1
 83 425 65 445 65 476 c 0
 65 550 120 610 254 610 c 0
 302 610 414 585 444 519 c 1
 341 496 l 1
 339 540 316 570 263 570 c 0
 216 570 185 543 185 472 c 0
 185 372 422 422 422 291 c 0xd4
 422 251 397 215 371 191 c 1
 396 175 414 155 414 124 c 0xc8
181 378 m 1
 172 362 166 338 166 305 c 0
 166 258 234 243 298 222 c 1
 307 238 313 262 313 295 c 0xe4
 313 342 245 357 181 378 c 1
EndSplineSet
Validated: 1
EndChar

StartChar: copyright
Encoding: 169 169 335
Width: 710
VWidth: 0
Flags: W
HStem: -10 69<255.35 454.65> 135 40<314.395 399.863> 425 40<314.395 399.565> 541 69<255.35 454.65>
VStem: 45 69<200.35 399.65> 217 90<183.414 416.586> 407 90<183.414 235 365 416.573> 596 69<200.35 399.65>
LayerCount: 2
Fore
SplineSet
307 235 m 2
 307 195 317 175 357 175 c 0
 402 175 407 198 407 245 c 1
 497 235 l 1
 497 185 437 135 357 135 c 0
 277 135 217 185 217 235 c 2
 217 365 l 2
 217 415 277 465 357 465 c 0
 437 465 497 415 497 365 c 1
 407 355 l 1
 407 401 402 425 357 425 c 0
 317 425 307 405 307 365 c 2
 307 235 l 2
114 300 m 0
 114 166 221 59 355 59 c 0
 489 59 596 166 596 300 c 0
 596 434 489 541 355 541 c 0
 221 541 114 434 114 300 c 0
45 300 m 0
 45 472 183 610 355 610 c 0
 527 610 665 472 665 300 c 0
 665 128 527 -10 355 -10 c 0
 183 -10 45 128 45 300 c 0
EndSplineSet
Validated: 1
EndChar

StartChar: registered
Encoding: 174 174 336
Width: 710
VWidth: 0
Flags: W
HStem: -10 69<255.35 454.65> 290 40<315.596 384.825> 410 40<313 390.083> 541 69<255.35 454.65>
VStem: 45 69<200.35 399.65> 222 91<150 290 332.031 410> 393 90<150.007 281.735 332.284 407.746> 596 69<200.35 399.65>
LayerCount: 2
Fore
SplineSet
352 450 m 2
 422 450 483 431 483 380 c 0
 483 326 452 323 422 309 c 1
 452 303 483 270 483 200 c 0
 483 160 498 150 498 150 c 1
 404 150 l 1
 404 150 393 160 393 220 c 0
 393 260 383 290 358 290 c 2
 313 290 l 1
 313 150 l 17
 222 150 l 1
 222 450 l 1
 352 450 l 2
352 410 m 2
 313 410 l 1
 313 370 l 2
 313 340 323 330 353 330 c 0
 383 330 393 341 393 380 c 0
 393 401 382 410 352 410 c 2
114 300 m 0
 114 166 221 59 355 59 c 0
 489 59 596 166 596 300 c 0
 596 434 489 541 355 541 c 0
 221 541 114 434 114 300 c 0
45 300 m 0
 45 472 183 610 355 610 c 0
 527 610 665 472 665 300 c 0
 665 128 527 -10 355 -10 c 0
 183 -10 45 128 45 300 c 0
EndSplineSet
Validated: 1
EndChar

StartChar: ordfeminine
Encoding: 170 170 337
Width: 404
VWidth: 0
Flags: W
HStem: 143 32<60 344> 236 40<155.104 254> 330 40<151.59 252.282> 430 40<159.719 246.454>
VStem: 60 90<280.681 327.095> 254 90<276 326.336 370 423.594>
LayerCount: 2
Fore
SplineSet
60 175 m 1
 344 175 l 1
 344 143 l 1
 60 143 l 1
 60 175 l 1
68 400 m 1
 76 440 124 470 205 470 c 0
 299 470 344 440 344 390 c 2
 344 236 l 1
 202 236 l 2
 111 236 60 263 60 298 c 0
 60 333 111 370 202 370 c 2
 254 370 l 1
 254 405 248 430 205 430 c 0
 184 430 156 430 156 390 c 1
 68 400 l 1
202 330 m 0
 163 330 150 320 150 308 c 0
 150 292 163 276 202 276 c 2
 254 276 l 1
 254 300 l 2
 254 318 241 330 202 330 c 0
EndSplineSet
Validated: 1
EndChar

StartChar: ordmasculine
Encoding: 186 186 338
Width: 416
VWidth: 0
Flags: W
HStem: 143 32<60 356> 230 40<158.681 257.319> 430 40<158.681 257.319>
VStem: 60 90<278.268 421.732> 266 90<278.268 421.732>
LayerCount: 2
Fore
SplineSet
60 175 m 1
 356 175 l 1
 356 143 l 1
 60 143 l 1
 60 175 l 1
208 470 m 0
 312 470 356 440 356 390 c 2
 356 310 l 2
 356 260 312 230 208 230 c 0
 104 230 60 260 60 310 c 2
 60 390 l 2
 60 440 104 470 208 470 c 0
208 270 m 0
 255 270 266 292 266 325 c 2
 266 375 l 2
 266 408 255 430 208 430 c 0
 161 430 150 408 150 375 c 2
 150 325 l 2
 150 292 161 270 208 270 c 0
EndSplineSet
Validated: 1
EndChar

StartChar: logicalnot
Encoding: 172 172 339
Width: 318
VWidth: 0
Flags: W
HStem: 148 108<203 276> 206 50<42 203>
VStem: 203 73<148 206>
LayerCount: 2
Fore
SplineSet
203 206 m 1x60
 42 206 l 1
 42 256 l 1x60
 276 256 l 1
 276 148 l 1
 203 148 l 1xa0
 203 206 l 1x60
EndSplineSet
Validated: 1
EndChar

StartChar: degree
Encoding: 176 176 342
Width: 376
VWidth: 0
Flags: W
HStem: 370 40<148.999 227.001> 570 40<148.999 227.001>
VStem: 60 70<425.182 553.829> 246 70<426.171 554.818>
LayerCount: 2
Fore
SplineSet
188 610 m 0
 278 610 316 546 316 490 c 0
 316 433 278 370 188 370 c 0
 98 370 60 434 60 490 c 0
 60 547 98 610 188 610 c 0
188 410 m 0
 224 410 246 444 246 490 c 0
 246 536 224 570 188 570 c 0
 152 570 130 536 130 490 c 0
 130 444 152 410 188 410 c 0
EndSplineSet
Validated: 1
EndChar

StartChar: plusminus
Encoding: 177 177 343
Width: 345
VWidth: 0
Flags: W
HStem: 74 50<42 303> 258 50<42 148 198 303>
VStem: 148 50<172 258 308 394>
LayerCount: 2
Fore
SplineSet
42 74 m 1
 42 124 l 1
 303 124 l 1
 303 74 l 1
 42 74 l 1
148 258 m 1
 42 258 l 1
 42 308 l 1
 148 308 l 1
 148 394 l 1
 198 394 l 1
 198 308 l 1
 303 308 l 1
 303 258 l 1
 198 258 l 1
 198 172 l 1
 148 172 l 1
 148 258 l 1
EndSplineSet
Validated: 1
EndChar

StartChar: uni00B5
Encoding: 181 181 345
Width: 552
VWidth: 0
Flags: W
HStem: -10 40<210.163 336.841> 440 20G<62 183 364 484>
VStem: 62 121<-140 2 56.3672 460> 364 120<55.0557 460>
LayerCount: 2
Fore
SplineSet
183 460 m 1
 183 150 l 2
 183 70 201 30 274 30 c 0
 347 30 364 74 364 140 c 2
 364 460 l 1
 484 460 l 1
 484 0 l 1
 371 0 l 1
 345 -7 312 -10 274 -10 c 0
 239 -10 208 -6 182 2 c 1
 182 -140 l 1
 62 -140 l 1
 62 460 l 1
 183 460 l 1
EndSplineSet
Validated: 1
EndChar

StartChar: uni00B2
Encoding: 178 178 347
Width: 324
VWidth: 0
Flags: W
HStem: 288 28<122 279> 470 21G<45 117> 546 28<132.101 196.973>
VStem: 45 72<481 538.687> 207 72<456.419 541.723>
LayerCount: 2
Fore
SplineSet
45 288 m 1
 45 390 207 434 207 496 c 0
 207 530 194 546 163 546 c 0
 129 546 117 520 117 470 c 1
 45 481 l 1
 45 533 77 574 163 574 c 0
 249 574 279 543 279 491 c 0
 279 409 152 374 122 316 c 1
 279 316 l 1
 279 288 l 1
 45 288 l 1
EndSplineSet
Validated: 1
EndChar

StartChar: uni00B3
Encoding: 179 179 348
Width: 354
VWidth: 0
Flags: W
HStem: 282 28<135.409 225.199> 420 28<159 210.133> 470 21G<60 132> 546 28<146.89 212.201>
VStem: 45 72<319.733 376> 60 72<480 539.828> 222 72<455.14 541.734> 237 72<317.586 405.028>
LayerCount: 2
Fore
SplineSet
159 420 m 1xf9
 159 448 l 1
 196 448 222 457 222 495 c 0
 222 529 212 546 178 546 c 0
 143 546 132 520 132 470 c 1
 60 480 l 1
 60 532 92 574 178 574 c 0
 264 574 294 542 294 490 c 0xf6
 294 461 271 444 239 434 c 1
 277 424 309 406 309 376 c 0
 309 324 273 282 177 282 c 0
 81 282 45 324 45 376 c 1
 117 386 l 1
 117 335 131 310 177 310 c 0
 222 310 237 324 237 366 c 0
 237 403 199 420 159 420 c 1xf9
EndSplineSet
Validated: 1
EndChar

StartChar: uni00B9
Encoding: 185 185 349
Width: 222
VWidth: 0
Flags: W
HStem: 288 284<163.412 177>
VStem: 105 72<288 504>
LayerCount: 2
Fore
SplineSet
177 288 m 1
 105 288 l 1
 105 504 l 1
 45 474 l 1
 45 504 l 1
 177 572 l 1
 177 288 l 1
EndSplineSet
Validated: 1
EndChar

StartChar: onequarter
Encoding: 188 188 350
Width: 576
VWidth: 0
Flags: W
HStem: 0 21G<390 462> 63 28<304 390 462 505>
VStem: 120 72<288 504> 390 72<0 63 91 172>
LayerCount: 2
Fore
SplineSet
192 288 m 1
 120 288 l 1
 120 504 l 1
 60 474 l 1
 60 504 l 1
 192 572 l 1
 192 288 l 1
487 501 m 1
 508 480 l 1
 105 77 l 1
 84 98 l 1
 487 501 l 1
390 63 m 1
 259 63 l 1
 259 96 l 1
 462 284 l 1
 462 91 l 1
 505 91 l 1
 505 63 l 1
 462 63 l 1
 462 0 l 1
 390 0 l 1
 390 63 l 1
390 91 m 1
 390 172 l 1
 304 91 l 1
 390 91 l 1
EndSplineSet
Validated: 1
EndChar

StartChar: onehalf
Encoding: 189 189 351
Width: 630
VWidth: 0
Flags: W
HStem: 0 28<405 562> 258 28<415.101 479.973>
VStem: 120 72<288 504> 328 72<193 250.687> 490 72<168.419 253.723>
LayerCount: 2
Fore
SplineSet
328 0 m 1
 328 102 490 146 490 208 c 0
 490 242 477 258 446 258 c 0
 412 258 400 232 400 182 c 1
 328 193 l 1
 328 245 360 286 446 286 c 0
 532 286 562 255 562 203 c 0
 562 121 435 86 405 28 c 1
 562 28 l 1
 562 0 l 1
 328 0 l 1
192 288 m 1
 120 288 l 1
 120 504 l 1
 60 474 l 1
 60 504 l 1
 192 572 l 1
 192 288 l 1
487 501 m 1
 508 480 l 1
 105 77 l 1
 84 98 l 1
 487 501 l 1
EndSplineSet
Validated: 1
EndChar

StartChar: threequarters
Encoding: 190 190 352
Width: 656
VWidth: 0
Flags: W
HStem: 0 21G<470 542> 63 28<384 470 542 585> 282 28<150.409 240.199> 420 28<174 225.133> 470 21G<75 147> 546 28<161.89 227.201>
VStem: 60 72<319.733 376> 75 72<480 539.828> 237 72<455.14 541.734> 252 72<317.586 405.028> 470 72<0 63 91 172>
LayerCount: 2
Fore
SplineSet
174 420 m 1xfe60
 174 448 l 1
 211 448 237 457 237 495 c 0
 237 529 227 546 193 546 c 0
 158 546 147 520 147 470 c 1
 75 480 l 1
 75 532 107 574 193 574 c 0
 279 574 309 542 309 490 c 0xfda0
 309 461 286 444 254 434 c 1
 292 424 324 406 324 376 c 0
 324 324 288 282 192 282 c 0
 96 282 60 324 60 376 c 1
 132 386 l 1
 132 335 146 310 192 310 c 0
 237 310 252 324 252 366 c 0
 252 403 214 420 174 420 c 1xfe60
567 501 m 1
 588 480 l 1
 185 77 l 1
 164 98 l 1
 567 501 l 1
470 63 m 1
 339 63 l 1
 339 96 l 1
 542 284 l 1
 542 91 l 1
 585 91 l 1
 585 63 l 1
 542 63 l 1
 542 0 l 1
 470 0 l 1
 470 63 l 1
470 91 m 1
 470 172 l 1
 384 91 l 1
 470 91 l 1
EndSplineSet
Validated: 1
EndChar

StartChar: guilsinglleft
Encoding: 8249 8249 354
Width: 296
VWidth: 0
Flags: W
HStem: 140 300
VStem: 64 166
LayerCount: 2
Fore
SplineSet
64 292 m 1
 204 440 l 1
 230 424 l 1
 164 292 l 1
 232 156 l 1
 206 140 l 1
 64 292 l 1
EndSplineSet
Validated: 1
EndChar

StartChar: guilsinglright
Encoding: 8250 8250 355
Width: 296
VWidth: 0
Flags: W
HStem: 140 300
VStem: 66 166
LayerCount: 2
Fore
SplineSet
232 288 m 1
 92 140 l 1
 66 156 l 1
 132 288 l 1
 64 424 l 1
 90 440 l 1
 232 288 l 1
EndSplineSet
Validated: 1
EndChar

StartChar: quoteleft
Encoding: 8216 8216 362
Width: 230
VWidth: 0
Flags: W
HStem: 385 215<133 162>
VStem: 47 145
LayerCount: 2
Fore
SplineSet
162 385 m 1
 47 385 l 1
 133 600 l 1
 192 600 l 1
 162 385 l 1
EndSplineSet
Validated: 1
EndChar

StartChar: perthousand
Encoding: 8240 8240 366
Width: 857
VWidth: 0
Flags: W
HStem: 20 40<425.049 470.951 669.049 714.951> 200 40<425.049 470.951 669.049 714.951> 360 40<142.049 187.951> 520 20G<415.583 529> 540 40<142.049 187.951>
VStem: 55 77<404.155 535.845> 198 77<404.155 535.845> 338 77<64.1552 195.845> 481 77<64.1552 195.845> 582 77<64.1552 195.845> 725 77<64.1552 195.845>
LayerCount: 2
Fore
SplineSet
659 130 m 0
 659 104 666 60 692 60 c 0
 718 60 725 104 725 130 c 0
 725 156 718 200 692 200 c 0
 666 200 659 156 659 130 c 0
582 130 m 0
 582 191 631 240 692 240 c 0
 753 240 802 191 802 130 c 0
 802 69 753 20 692 20 c 0
 631 20 582 69 582 130 c 0
132 470 m 0
 132 444 139 400 165 400 c 0
 191 400 198 444 198 470 c 0
 198 496 191 540 165 540 c 0
 139 540 132 496 132 470 c 0
55 470 m 0
 55 531 104 580 165 580 c 0
 226 580 275 531 275 470 c 0
 275 409 226 360 165 360 c 0
 104 360 55 409 55 470 c 0
415 130 m 0
 415 104 422 60 448 60 c 0
 474 60 481 104 481 130 c 0
 481 156 474 200 448 200 c 0
 422 200 415 156 415 130 c 0
338 130 m 0
 338 191 387 240 448 240 c 0
 509 240 558 191 558 130 c 0
 558 69 509 20 448 20 c 0
 387 20 338 69 338 130 c 0
430 540 m 1
 529 540 l 1
 182 60 l 1
 84 60 l 1
 430 540 l 1
EndSplineSet
Validated: 1
EndChar

StartChar: endash
Encoding: 8211 8211 367
Width: 400
VWidth: 0
Flags: W
HStem: 206 50<42 358>
VStem: 42 316<206 256>
LayerCount: 2
Fore
SplineSet
42 256 m 1
 358 256 l 1
 358 206 l 1
 42 206 l 1
 42 256 l 1
EndSplineSet
Validated: 1
EndChar

StartChar: emdash
Encoding: 8212 8212 368
Width: 569
VWidth: 0
Flags: W
HStem: 206 50<42 527>
LayerCount: 2
Fore
SplineSet
42 256 m 1
 527 256 l 1
 527 206 l 1
 42 206 l 1
 42 256 l 1
EndSplineSet
Validated: 1
EndChar

StartChar: dagger
Encoding: 8224 8224 370
Width: 326
VWidth: 0
Flags: W
HStem: 0 21G<134 192> 460 58<55 134 192 271> 580 20G<134 192>
VStem: 134 58<0 460 518 600>
LayerCount: 2
Fore
SplineSet
134 600 m 1
 192 600 l 1
 192 518 l 1
 271 518 l 1
 271 460 l 1
 192 460 l 1
 192 0 l 1
 134 0 l 1
 134 460 l 1
 55 460 l 1
 55 518 l 1
 134 518 l 1
 134 600 l 1
EndSplineSet
Validated: 1
EndChar

StartChar: daggerdbl
Encoding: 8225 8225 371
Width: 326
VWidth: 0
Flags: W
HStem: 0 21G<134 192> 82 58<55 134 192 271> 460 58<55 134 192 271> 580 20G<134 192>
VStem: 134 58<0 82 140 460 518 600>
LayerCount: 2
Fore
SplineSet
134 600 m 1
 192 600 l 1
 192 518 l 1
 271 518 l 1
 271 460 l 1
 192 460 l 1
 192 140 l 1
 271 140 l 1
 271 82 l 1
 192 82 l 1
 192 0 l 1
 134 0 l 1
 134 82 l 1
 55 82 l 1
 55 140 l 1
 134 140 l 1
 134 460 l 1
 55 460 l 1
 55 518 l 1
 134 518 l 1
 134 600 l 1
EndSplineSet
Validated: 1
EndChar

StartChar: bullet
Encoding: 8226 8226 372
Width: 422
VWidth: 0
Flags: W
HStem: 178 292<135.131 286.869>
VStem: 65 292<248.131 399.869>
LayerCount: 2
Fore
SplineSet
65 324 m 0
 65 405 130 470 211 470 c 0
 292 470 357 405 357 324 c 0
 357 243 292 178 211 178 c 0
 130 178 65 243 65 324 c 0
EndSplineSet
Validated: 1
EndChar

StartChar: paragraph
Encoding: 182 182 373
Width: 653
VWidth: 0
Flags: W
HStem: 0 21G<275 395 444 564> 280 40<226.492 275> 560 40<226.492 275 395 444>
VStem: 75 120<354.28 525.72> 275 120<0 280 320 560> 444 120<0 560>
LayerCount: 2
Fore
SplineSet
275 560 m 1
 215 560 195 500 195 440 c 0
 195 380 215 320 275 320 c 1
 275 560 l 1
275 280 m 1
 135 280 75 340 75 440 c 0
 75 540 135 600 275 600 c 2
 564 600 l 1
 564 0 l 1
 444 0 l 1
 444 560 l 1
 395 560 l 1
 395 0 l 1
 275 0 l 1
 275 280 l 1
EndSplineSet
Validated: 1
EndChar

StartChar: germandbls
Encoding: 223 223 374
Width: 613
VWidth: 0
Flags: W
HStem: -10 40<362.071 421.618> 0 21G<75 195> 570 40<232.794 353.192>
VStem: 75 120<0 515.83> 219 117<72.3047 132.137> 286 120<293.367 367> 386 120<439.136 524.419> 432 120<50.9363 184.499>
LayerCount: 2
Fore
SplineSet
75 0 m 9x72
 75 430 l 2
 75 530 150 610 291 610 c 0
 431 610 506 527 506 460 c 0x72
 506 382 406 387 406 329 c 0x74
 406 266 552 272 552 128 c 0
 552 52 501 -10 398 -10 c 0
 300 -10 232 50 219 131 c 1
 336 150 l 1xb9
 336 70 365 30 398 30 c 0
 424 30 432 72 432 118 c 0
 432 236 286 230 286 342 c 0xb5
 286 414 386 421 386 480 c 0
 386 533 351 570 291 570 c 0
 230 570 195 530 195 450 c 2
 195 0 l 17
 75 0 l 9x72
EndSplineSet
Validated: 1
EndChar

StartChar: divide
Encoding: 247 247 375
Width: 318
VWidth: 0
Flags: W
HStem: 98 65<123 195> 206 50<42 276> 298 65<123 195>
VStem: 123 72<98 163 298 363>
LayerCount: 2
Fore
SplineSet
123 163 m 1
 195 163 l 1
 195 98 l 1
 123 98 l 1
 123 163 l 1
42 256 m 1
 276 256 l 1
 276 206 l 1
 42 206 l 1
 42 256 l 1
123 363 m 1
 195 363 l 1
 195 298 l 1
 123 298 l 1
 123 363 l 1
EndSplineSet
Validated: 1
EndChar

StartChar: afii10049
Encoding: 1071 1071 387
Width: 573
VWidth: 0
Flags: W
HStem: 0 21G<66 198 376 497> 300 40<249.151 352.082> 560 40<242.574 377>
VStem: 96 120<9.28619 241.307 373.865 536.271> 376 121<0 300 362.778 560>
LayerCount: 2
Fore
SplineSet
297 600 m 2
 497 599 l 1
 497 0 l 1
 376 0 l 9
 376 300 l 1
 286 300 l 2
 236 300 216 220 216 140 c 0
 216 20 195 0 195 0 c 1
 66 0 l 1
 66 0 96 20 96 100 c 0
 96 240 136 305 197 318 c 1
 136 345 96 370 96 460 c 0
 96 550 157 600 297 600 c 2
297 560 m 2
 237 560 216 520 216 460 c 0
 216 361 236 340 296 340 c 0
 356 340 376 380 376 440 c 2
 377 560 l 1
 297 560 l 2
EndSplineSet
Validated: 1
EndChar

StartChar: afii10018
Encoding: 1041 1041 388
Width: 576
VWidth: 0
Flags: W
HStem: 0 40<228.42 337.754> 320 40<218.918 340.878> 560 40<195 476>
VStem: 75 120<74.6461 320 382.778 560> 375 140<81.7826 251.756>
LayerCount: 2
Fore
SplineSet
476 560 m 9
 195 560 l 1
 195 460 l 2
 195 400 215 360 275 360 c 0
 366 360 515 318 515 160 c 0
 515 60 435 0 275 0 c 2
 75 0 l 1
 75 600 l 1
 476 600 l 17
 476 560 l 9
285 40 m 0
 345 40 375 80 375 180 c 0
 375 280 345 320 285 320 c 2
 195 320 l 1
 195 180 l 2
 195 80 225 40 285 40 c 0
EndSplineSet
Validated: 1
EndChar

StartChar: afii10020
Encoding: 1043 1043 389
Width: 531
VWidth: 0
Flags: W
HStem: 0 21G<75 195> 560 40<195 455>
VStem: 75 120<0 560>
LayerCount: 2
Fore
SplineSet
195 0 m 1
 75 0 l 1
 75 600 l 1
 455 600 l 1
 455 560 l 1
 195 560 l 1
 195 0 l 1
EndSplineSet
Validated: 1
EndChar

StartChar: afii10025
Encoding: 1047 1047 390
Width: 582
VWidth: 0
Flags: W
HStem: -10 40<218.848 351.269> 290 40<180 320.132> 570 40<237.509 334.401>
VStem: 68 120<80.1421 170> 93 120<430 523.598> 363 120<370.366 530.438> 388 120<90.5928 232.068>
LayerCount: 2
Fore
SplineSet
180 290 m 1xf2
 180 330 l 1
 258 330 l 2
 320 330 363 373 363 445 c 0
 363 511 349 570 289 570 c 0
 229 570 213 530 213 450 c 2
 213 410 l 1
 93 430 l 1
 93 530 145 610 289 610 c 0
 433 610 483 535 483 435 c 0xec
 483 380 445 331 392 311 c 1
 455 292 508 243 508 185 c 0
 508 85 448 -10 288 -10 c 0
 128 -10 68 70 68 170 c 1
 188 190 l 1
 188 150 l 2
 188 70 208 30 288 30 c 0
 368 30 388 85 388 165 c 0
 388 235 324 290 258 290 c 2
 180 290 l 1xf2
EndSplineSet
Validated: 1
EndChar

StartChar: afii10047
Encoding: 1069 1069 392
Width: 576
VWidth: 0
Flags: W
HStem: -10 40<216.848 355.152> 290 40<180 386> 570 40<216.848 355.152>
VStem: 66 120<80.1421 170 430 519.858> 386 120<80.1421 290 330 519.858>
LayerCount: 2
Fore
SplineSet
386 450 m 2
 386 530 366 570 286 570 c 0
 206 570 186 530 186 450 c 2
 186 410 l 1
 66 430 l 1
 66 530 126 610 286 610 c 0
 446 610 506 530 506 430 c 2
 506 170 l 2
 506 70 446 -10 286 -10 c 0
 126 -10 66 70 66 170 c 1
 186 190 l 1
 186 150 l 2
 186 70 206 30 286 30 c 0
 366 30 386 70 386 150 c 2
 386 290 l 1
 180 290 l 1
 180 330 l 1
 386 330 l 1
 386 450 l 2
EndSplineSet
Validated: 1
EndChar

StartChar: afii10021
Encoding: 1044 1044 393
Width: 611
VWidth: 0
Flags: W
HStem: -100 140<36 76 504 544> 0 40<212 366> 560 40<258 366>
VStem: 36 40<-100 -24.3073> 366 120<40 560> 504 40<-100 -24.3073>
LayerCount: 2
Fore
SplineSet
258 560 m 1x7c
 212 40 l 1
 366 40 l 1
 366 560 l 1
 258 560 l 1x7c
141 600 m 1
 486 600 l 1
 486 40 l 1x7c
 544 40 l 1
 544 -100 l 1
 504 -100 l 1xbc
 504 -40 484 0 424 0 c 2
 156 0 l 2x7c
 96 0 76 -40 76 -100 c 1
 36 -100 l 1
 36 40 l 1xbc
 92 40 l 1
 141 600 l 1
EndSplineSet
Validated: 1
EndChar

StartChar: afii10026
Encoding: 1048 1048 394
Width: 611
VWidth: 0
Flags: W
HStem: 0 21G<75 195 415 535> 580 20G<75 195 415 535>
VStem: 75 120<0 158 229 600> 415 120<0 378 449 600>
LayerCount: 2
Fore
SplineSet
195 0 m 1
 75 0 l 1
 75 600 l 1
 195 600 l 1
 195 229 l 1
 415 449 l 1
 415 600 l 1
 535 600 l 1
 535 0 l 1
 415 0 l 1
 415 378 l 1
 195 158 l 1
 195 0 l 1
EndSplineSet
Validated: 1
EndChar

StartChar: afii10053
Encoding: 1028 1028 396
Width: 576
VWidth: 0
Flags: W
HStem: -10 40<216.848 355.152> 290 40<186 392> 570 40<216.848 355.152>
VStem: 66 120<80.1421 290 330 519.858> 386 120<80.1421 170 430 519.858>
LayerCount: 2
Fore
SplineSet
186 450 m 2
 186 330 l 1
 392 330 l 1
 392 290 l 1
 186 290 l 1
 186 150 l 2
 186 70 206 30 286 30 c 0
 366 30 386 70 386 150 c 2
 386 190 l 1
 506 170 l 1
 506 70 446 -10 286 -10 c 0
 126 -10 66 70 66 170 c 2
 66 430 l 2
 66 530 126 610 286 610 c 0
 446 610 506 530 506 430 c 1
 386 410 l 1
 386 450 l 2
 386 530 366 570 286 570 c 0
 206 570 186 530 186 450 c 2
EndSplineSet
Validated: 1
EndChar

StartChar: afii10033
Encoding: 1055 1055 402
Width: 611
VWidth: 0
Flags: W
HStem: 0 21G<75 195 415 535> 560 40<195 415>
VStem: 75 120<0 560> 415 120<0 560>
LayerCount: 2
Fore
SplineSet
195 0 m 1
 75 0 l 1
 75 600 l 1
 535 600 l 1
 535 0 l 1
 415 0 l 1
 415 560 l 1
 195 560 l 1
 195 0 l 1
EndSplineSet
Validated: 1
EndChar

StartChar: afii10040
Encoding: 1062 1062 403
Width: 651
VWidth: 0
Flags: W
HStem: 0 40<195 415> 580 20G<75 195 415 535>
VStem: 75 120<40 600> 415 120<40 600> 544 40<-100 -24.3073>
LayerCount: 2
Fore
SplineSet
415 600 m 1
 535 600 l 1
 535 40 l 1
 584 40 l 1
 584 -100 l 1
 544 -100 l 1
 544 -40 524 0 464 0 c 2
 75 0 l 1
 75 600 l 1
 195 600 l 1
 195 40 l 1
 415 40 l 1
 415 600 l 1
EndSplineSet
Validated: 1
EndChar

StartChar: afii10041
Encoding: 1063 1063 404
Width: 579
VWidth: 0
Flags: W
HStem: 0 21G<383 503> 216 40<224.095 352.273> 580 20G<71 191 383 503>
VStem: 71 120<306.142 600> 383 120<0 229 286 600>
LayerCount: 2
Fore
SplineSet
383 600 m 1
 503 600 l 1
 503 0 l 1
 383 0 l 1
 383 229 l 1
 356 221 324 216 287 216 c 0
 131 216 71 296 71 396 c 2
 71 600 l 1
 191 600 l 1
 191 376 l 2
 191 296 215 256 287 256 c 0
 359 256 383 296 383 376 c 2
 383 600 l 1
EndSplineSet
Validated: 1
EndChar

StartChar: afii10046
Encoding: 1068 1068 405
Width: 576
VWidth: 0
Flags: W
HStem: 0 40<228.42 337.754> 320 40<218.918 340.878> 580 20G<75 195>
VStem: 75 120<74.6461 320 382.778 600> 375 140<81.7826 251.756>
LayerCount: 2
Fore
SplineSet
195 600 m 1
 195 460 l 6
 195 400 215 360 275 360 c 4
 366 360 515 318 515 160 c 4
 515 60 435 0 275 0 c 6
 75 0 l 1
 75 600 l 1
 195 600 l 1
285 40 m 4
 345 40 375 80 375 180 c 4
 375 280 345 320 285 320 c 6
 195 320 l 5
 195 180 l 6
 195 80 225 40 285 40 c 4
EndSplineSet
Validated: 1
EndChar

StartChar: afii10044
Encoding: 1066 1066 406
Width: 671
VWidth: 0
Flags: W
HStem: 0 40<323.42 432.754> 320 40<313.918 435.878> 560 40<-26 170>
VStem: 170 120<74.6461 320 382.778 560> 470 140<81.7826 251.756>
LayerCount: 2
Fore
SplineSet
380 40 m 0
 440 40 470 80 470 180 c 0
 470 280 440 320 380 320 c 2
 290 320 l 1
 290 180 l 2
 290 80 320 40 380 40 c 0
290 600 m 1
 290 460 l 2
 290 400 310 360 370 360 c 0
 461 360 610 318 610 160 c 0
 610 60 530 0 370 0 c 2
 170 0 l 1
 170 560 l 1
 -26 560 l 1
 -26 600 l 1
 290 600 l 1
EndSplineSet
Validated: 1
EndChar

StartChar: afii10029
Encoding: 1051 1051 409
Width: 644
VWidth: 0
Flags: W
HStem: 0 40<68 115.758> 560 40<252.242 448>
VStem: 124 120<45.1176 554.882> 448 120<0 560>
LayerCount: 2
Fore
SplineSet
68 40 m 1
 118 40 124 50 124 114 c 2
 124 466 l 2
 124 566 160 600 300 600 c 2
 568 600 l 1
 568 0 l 1
 448 0 l 1
 448 560 l 1
 300 560 l 2
 250 560 244 550 244 486 c 2
 244 134 l 2
 244 34 208 0 68 0 c 1
 68 40 l 1
EndSplineSet
Validated: 1
EndChar

StartChar: afii10042
Encoding: 1064 1064 410
Width: 797
VWidth: 0
Flags: W
HStem: 0 40<195 338 458 601> 580 20G<75 195 338 458 601 721>
VStem: 75 120<40 600> 338 120<40 600> 601 120<40 600>
CounterMasks: 1 38
LayerCount: 2
Fore
SplineSet
601 600 m 1
 721 600 l 1
 721 0 l 1
 75 0 l 1
 75 600 l 1
 195 600 l 1
 195 40 l 1
 338 40 l 1
 338 600 l 1
 458 600 l 1
 458 40 l 1
 601 40 l 1
 601 600 l 1
EndSplineSet
Validated: 1
EndChar

StartChar: afii10043
Encoding: 1065 1065 411
Width: 841
VWidth: 0
Flags: W
HStem: 0 40<195 338 458 601> 580 20G<75 195 338 458 601 721>
VStem: 75 120<40 600> 338 120<40 600> 601 120<40 600> 734 40<-100 -24.3073>
LayerCount: 2
Fore
SplineSet
601 600 m 1
 721 600 l 1
 721 40 l 1
 774 40 l 1
 774 -100 l 1
 734 -100 l 1
 734 -40 714 0 654 0 c 2
 75 0 l 1
 75 600 l 1
 195 600 l 1
 195 40 l 1
 338 40 l 1
 338 600 l 1
 458 600 l 1
 458 40 l 1
 601 40 l 1
 601 600 l 1
EndSplineSet
Validated: 1
EndChar

StartChar: afii10028
Encoding: 1050 1050 413
Width: 624
VWidth: 0
Flags: W
HStem: 0 21G<75 195 430 550> 580 20G<75 195 439 555>
VStem: 75 120<0 240 336 600> 430 120<0 134.356>
LayerCount: 2
Fore
SplineSet
195 240 m 1
 195 0 l 1
 75 0 l 1
 75 600 l 1
 195 600 l 1
 195 336 l 1
 459 600 l 1
 555 600 l 1
 301 346 l 1
 474 314 550 152 550 0 c 1
 430 0 l 1
 430 126 373 286 264 309 c 1
 195 240 l 1
EndSplineSet
Validated: 1
EndChar

StartChar: afii10145
Encoding: 1039 1039 415
Width: 651
VWidth: 0
Flags: W
HStem: 0 40<195 282.082 346 415> 580 20G<75 195 415 535>
VStem: 75 120<40 600> 306 40<-100 -24.3073> 415 120<40 600>
LayerCount: 2
Fore
SplineSet
415 600 m 1
 535 600 l 1
 535 0 l 1
 346 0 l 1
 346 -100 l 1
 306 -100 l 1
 306 -40 286 0 226 0 c 2
 75 0 l 1
 75 600 l 1
 195 600 l 1
 195 40 l 1
 415 40 l 1
 415 600 l 1
EndSplineSet
Validated: 1
EndChar

StartChar: afii10024
Encoding: 1046 1046 416
Width: 831
VWidth: 0
Flags: W
HStem: 0 21G<44 164 354 474 664 784> 580 20G<90 190.109 354 474 637.891 738>
VStem: 44 120<0 143.587> 354 120<0 336 417 600> 664 120<0 143.587>
CounterMasks: 1 38
LayerCount: 2
Fore
SplineSet
474 0 m 1
 354 0 l 1
 354 336 l 1
 323 367 l 1
 218 331 164 124 164 0 c 1
 44 0 l 1
 44 151 118 358 287 403 c 1
 90 600 l 1
 170 600 l 1
 354 417 l 1
 354 600 l 1
 474 600 l 1
 474 417 l 1
 658 600 l 1
 738 600 l 1
 541 403 l 1
 710 358 784 151 784 0 c 1
 664 0 l 1
 664 124 610 331 505 367 c 1
 474 336 l 1
 474 0 l 1
EndSplineSet
Validated: 1
EndChar

StartChar: afii10038
Encoding: 1060 1060 417
Width: 704
VWidth: 0
Flags: W
HStem: 0 21G<290 410> 114 45<410 452.588> 441 45<247.412 290> 580 20G<290 410>
VStem: 60 120<223.503 375.538> 290 120<0 115.22 159 441 484.78 600> 520 120<224.462 376.497>
CounterMasks: 1 0e
LayerCount: 2
Fore
SplineSet
410 0 m 1
 290 0 l 1
 290 113 l 1
 180 123 60 165 60 300 c 0
 60 430 193 474 290 486 c 1
 290 600 l 1
 410 600 l 1
 410 487 l 1
 520 477 640 435 640 300 c 0
 640 170 507 126 410 114 c 1
 410 0 l 1
410 441 m 1
 410 159 l 1
 471 178 520 225 520 300 c 0
 520 374 471 422 410 441 c 1
290 159 m 1
 290 441 l 1
 229 422 180 375 180 300 c 0
 180 226 229 178 290 159 c 1
EndSplineSet
Validated: 1
EndChar

StartChar: afii10059
Encoding: 1034 1034 418
Width: 916
VWidth: 0
Flags: W
HStem: 0 40<568.42 677.754> 320 40<218.918 415 558.918 680.878> 580 20G<75 195 415 535>
VStem: 75 120<0 320 382.778 600> 415 120<74.6461 320 382.778 600> 715 140<81.7826 251.756>
LayerCount: 2
Fore
SplineSet
535 460 m 2
 535 400 555 360 615 360 c 0
 706 360 855 318 855 160 c 0
 855 60 775 0 615 0 c 2
 415 0 l 1
 415 320 l 1
 195 320 l 1
 195 0 l 1
 75 0 l 1
 75 600 l 1
 195 600 l 1
 195 460 l 2
 195 400 215 360 275 360 c 2
 415 360 l 1
 415 600 l 1
 535 600 l 1
 535 460 l 2
625 40 m 0
 685 40 715 80 715 180 c 0
 715 280 685 320 625 320 c 2
 535 320 l 1
 535 180 l 2
 535 80 565 40 625 40 c 0
EndSplineSet
Validated: 1
EndChar

StartChar: afii10058
Encoding: 1033 1033 419
Width: 916
VWidth: 0
Flags: W
HStem: 0 40<68 115.758 568.42 677.754> 320 40<558.918 680.878> 560 40<252.242 415>
VStem: 124 120<45.1176 554.882> 415 120<74.6461 320 382.778 560> 715 140<81.7826 251.756>
LayerCount: 2
Fore
SplineSet
535 460 m 2
 535 400 555 360 615 360 c 0
 706 360 855 318 855 160 c 0
 855 60 775 0 615 0 c 2
 415 0 l 1
 415 560 l 1
 300 560 l 2
 250 560 244 550 244 486 c 2
 244 134 l 2
 244 34 208 0 68 0 c 1
 68 40 l 1
 118 40 124 50 124 114 c 2
 124 466 l 2
 124 566 160 600 300 600 c 2
 535 600 l 1
 535 460 l 2
625 40 m 0
 685 40 715 80 715 180 c 0
 715 280 685 320 625 320 c 2
 535 320 l 1
 535 180 l 2
 535 80 565 40 625 40 c 0
EndSplineSet
Validated: 1
EndChar

StartChar: afii10060
Encoding: 1035 1035 420
Width: 702
VWidth: 0
Flags: W
HStem: 0 21G<194 314 506 626> 344 40<344.727 472.905> 560 40<-26 170.082 314 534>
VStem: 194 120<0 314 371 537.222> 506 120<0 293.858>
LayerCount: 2
Fore
SplineSet
314 0 m 1
 194 0 l 1
 194 460 l 2
 194 520 174 560 114 560 c 2
 -26 560 l 1
 -26 600 l 1
 534 600 l 1
 534 560 l 1
 314 560 l 1
 314 371 l 1
 341 379 373 384 410 384 c 0
 566 384 626 304 626 204 c 2
 626 0 l 1
 506 0 l 1
 506 224 l 2
 506 304 482 344 410 344 c 0
 338 344 314 304 314 224 c 2
 314 0 l 1
EndSplineSet
Validated: 1
EndChar

StartChar: afii10051
Encoding: 1026 1026 421
Width: 702
VWidth: 0
Flags: W
HStem: -150 40<366 470.961> 0 21G<194 314> 344 40<344.727 472.905> 560 40<-26 170.082 314 534>
VStem: 194 120<0 314 371 537.222> 506 120<-62.3971 293.858>
LayerCount: 2
Fore
SplineSet
366 -150 m 13
 366 -110 l 21
 422 -110 l 6
 472 -110 506 -68 506 28 c 6
 506 224 l 2
 506 304 482 344 410 344 c 0
 338 344 314 304 314 224 c 2
 314 0 l 1
 194 0 l 1
 194 460 l 2
 194 520 174 560 114 560 c 2
 -26 560 l 1
 -26 600 l 1
 534 600 l 1
 534 560 l 1
 314 560 l 1
 314 371 l 1
 341 379 373 384 410 384 c 0
 566 384 626 304 626 204 c 2
 626 48 l 6
 626 -88 562 -150 422 -150 c 6
 366 -150 l 13
EndSplineSet
Validated: 1
EndChar

StartChar: afii10048
Encoding: 1070 1070 422
Width: 810
VWidth: 0
Flags: W
HStem: -10 40<450.848 589.152> 0 21G<75 195> 278 50<195 300> 570 40<450.848 589.152> 580 20G<75 195>
VStem: 75 120<0 278 328 600> 300 120<80.1421 278 328 519.858> 620 120<80.1421 519.858>
LayerCount: 2
Fore
SplineSet
195 0 m 1x67
 75 0 l 1
 75 600 l 1
 195 600 l 1x6f
 195 328 l 1
 300 328 l 1
 300 430 l 2
 300 530 360 610 520 610 c 0
 680 610 740 530 740 430 c 2
 740 170 l 2
 740 70 680 -10 520 -10 c 0xb7
 360 -10 300 70 300 170 c 2
 300 278 l 1
 195 278 l 1
 195 0 l 1x67
620 450 m 2
 620 530 600 570 520 570 c 0
 440 570 420 530 420 450 c 2
 420 150 l 2
 420 70 440 30 520 30 c 0xb7
 600 30 620 70 620 150 c 2
 620 450 l 2
EndSplineSet
Validated: 1
EndChar

StartChar: afii10066
Encoding: 1073 1073 436
Width: 557
VWidth: 0
Flags: W
HStem: -10 40<229.751 324.249> 390 40<227.06 324.249> 525 75<244.884 419.146> 540 70<184.146 353.585>
VStem: 58 120<93.9614 327.23> 376 120<95.2304 326.039> 421 26<612.963 626>
LayerCount: 2
Fore
SplineSet
277 30 m 0xcc
 359 30 376 142 376 210 c 0
 376 278 359 390 277 390 c 0
 195 390 178 278 178 210 c 0
 178 142 195 30 277 30 c 0xcc
277 430 m 0
 481 430 496 286 496 210 c 0
 496 140 481 -10 277 -10 c 0
 73 -10 58 134 58 210 c 0
 58 541 148 610 239 610 c 0xdc
 289 610 297 600 347 600 c 0
 389 600 421 614 421 626 c 1
 447 626 l 1
 447 529 399 525 365 525 c 0xea
 311 525 278 540 247 540 c 0xda
 206 540 157 534 135 393 c 1
 167 416 213 430 277 430 c 0
EndSplineSet
Validated: 1
EndChar

StartChar: afii10094
Encoding: 1100 1100 437
Width: 576
VWidth: 0
Flags: W
HStem: 0 40<228.42 344.141> 240 40<218.918 340.878> 440 20G<75 195>
VStem: 75 120<74.6461 240 302.778 460> 375 140<69.0666 207.897>
LayerCount: 2
Fore
SplineSet
195 460 m 1
 195 380 l 2
 195 320 215 280 275 280 c 0
 366 280 515 252 515 146 c 0
 515 42 435 0 275 0 c 2
 75 0 l 1
 75 460 l 1
 195 460 l 1
285 40 m 0
 345 40 375 80 375 138 c 0
 375 192 345 240 285 240 c 2
 195 240 l 1
 195 180 l 2
 195 80 225 40 285 40 c 0
EndSplineSet
Validated: 1
EndChar

StartChar: afii10069
Encoding: 1076 1076 438
Width: 587
VWidth: 0
Flags: W
HStem: -100 140<36 76 480 520> 0 40<96 96 216 342> 420 40<283 342>
VStem: 36 40<-100 -24.3073> 342 120<40 420> 480 40<-100 -24.3073>
LayerCount: 2
Fore
SplineSet
283 420 m 1x7c
 216 40 l 1
 342 40 l 1
 342 420 l 1
 283 420 l 1x7c
170 460 m 1
 462 460 l 1
 462 40 l 1x7c
 520 40 l 1
 520 -100 l 1
 480 -100 l 1xbc
 480 -40 460 0 400 0 c 2
 156 0 l 2x7c
 96 0 76 -40 76 -100 c 1
 36 -100 l 1
 36 40 l 1xbc
 96 40 l 1
 170 460 l 1
EndSplineSet
Validated: 1
EndChar

StartChar: afii10067
Encoding: 1074 1074 439
Width: 576
VWidth: 0
Flags: W
HStem: 0 40<228.42 344.141> 240 40<218.918 328.506> 420 40<195 321.141>
VStem: 75 120<74.6461 240 302.778 420> 350 120<298.983 396.563> 375 140<69.0666 207.739>
LayerCount: 2
Fore
SplineSet
285 40 m 0xf4
 345 40 375 80 375 138 c 0
 375 192 345 240 285 240 c 2
 195 240 l 1
 195 180 l 2
 195 80 225 40 285 40 c 0xf4
195 420 m 1
 195 380 l 2
 195 320 215 280 275 280 c 0
 321 280 350 310 350 348 c 0xf8
 350 386 320 420 260 420 c 2
 195 420 l 1
401 263 m 1
 463 245 515 209 515 146 c 0xf4
 515 42 435 0 275 0 c 2
 75 0 l 1
 75 460 l 1
 260 460 l 2
 420 460 470 398 470 348 c 0
 470 318 452 284 401 263 c 1
EndSplineSet
Validated: 1
EndChar

StartChar: afii10068
Encoding: 1075 1075 440
Width: 476
VWidth: 0
Flags: W
HStem: 0 21G<75 195> 420 40<195 418>
VStem: 75 120<0 420>
LayerCount: 2
Fore
SplineSet
195 0 m 1
 75 0 l 1
 75 460 l 1
 418 460 l 1
 418 420 l 1
 195 420 l 1
 195 0 l 1
EndSplineSet
Validated: 1
EndChar

StartChar: afii10072
Encoding: 1078 1078 441
Width: 805
VWidth: 0
Flags: W
HStem: 0 21G<50 181 341 461 621 752> 440 20G<77 177.109 341 461 624.891 725>
VStem: 50 119<0 60.9015> 341 120<0 196 277 460> 633 119<0 60.9015>
CounterMasks: 1 38
LayerCount: 2
Fore
SplineSet
461 277 m 1
 645 460 l 1
 725 460 l 1
 528 263 l 1
 648 231 721 117 752 0 c 1
 633 0 l 1
 609 101 561 202 491 226 c 1
 461 196 l 1
 461 0 l 1
 341 0 l 1
 341 196 l 1
 311 226 l 1
 241 202 193 101 169 0 c 1
 50 0 l 1
 81 117 154 231 274 263 c 1
 77 460 l 1
 157 460 l 1
 341 277 l 1
 341 460 l 1
 461 460 l 1
 461 277 l 1
EndSplineSet
Validated: 1
EndChar

StartChar: afii10073
Encoding: 1079 1079 442
Width: 574
VWidth: 0
Flags: W
HStem: -10 40<209.883 350.023> 225 40<228 335.108> 430 40<238.436 330.912>
VStem: 68 112<67.7245 113.438> 355 120<280.443 401.792> 380 120<56.7006 187.676>
LayerCount: 2
Fore
SplineSet
104 381 m 1xf8
 130 434 185 470 281 470 c 0
 390 470 475 417 475 339 c 0xf8
 475 294 456 258 412 246 c 1
 475 227 500 178 500 130 c 0
 500 45 440 -10 280 -10 c 0
 153 -10 89 40 68 111 c 1
 180 150 l 17
 180 70 200 30 280 30 c 0
 360 30 380 68 380 128 c 0xf4
 380 200 316 225 250 225 c 2
 228 225 l 1
 228 265 l 1
 250 265 l 2
 312 265 355 268 355 340 c 0
 355 406 321 430 281 430 c 0
 249 430 216 401 207 342 c 1
 104 381 l 1xf8
EndSplineSet
Validated: 1
EndChar

StartChar: afii10074
Encoding: 1080 1080 443
Width: 611
VWidth: 0
Flags: W
HStem: 0 21G<75 195 415 535> 440 20G<75 195 415 535>
VStem: 75 120<0 84 155 460> 415 120<0 304 375 460>
LayerCount: 2
Fore
SplineSet
195 0 m 1
 75 0 l 1
 75 460 l 1
 195 460 l 1
 195 155 l 1
 415 375 l 1
 415 460 l 1
 535 460 l 1
 535 0 l 1
 415 0 l 1
 415 304 l 1
 195 84 l 1
 195 0 l 1
EndSplineSet
Validated: 1
EndChar

StartChar: afii10077
Encoding: 1083 1083 445
Width: 611
VWidth: 0
Flags: W
HStem: 0 40<68 115.758> 420 40<252.242 415>
VStem: 124 120<45.1176 414.882> 415 120<0 420>
LayerCount: 2
Fore
SplineSet
68 40 m 1
 118 40 124 50 124 114 c 2
 124 326 l 2
 124 426 160 460 300 460 c 2
 535 460 l 1
 535 0 l 1
 415 0 l 1
 415 420 l 1
 300 420 l 2
 250 420 244 410 244 346 c 2
 244 134 l 2
 244 34 208 0 68 0 c 1
 68 40 l 1
EndSplineSet
Validated: 1
EndChar

StartChar: afii10078
Encoding: 1084 1084 446
Width: 699
VWidth: 0
Flags: W
HStem: 0 21G<75 195 503 623> 440 20G<75 206.045 480.881 623>
VStem: 75 120<0 346> 503 120<0 368>
LayerCount: 2
Fore
SplineSet
343 192 m 1
 492 460 l 1
 623 460 l 1
 623 0 l 1
 503 0 l 1
 503 368 l 1
 343 81 l 1
 195 346 l 1
 195 0 l 1
 75 0 l 1
 75 460 l 1
 195 460 l 1
 343 192 l 1
EndSplineSet
Validated: 1
EndChar

StartChar: afii10079
Encoding: 1085 1085 447
Width: 611
VWidth: 0
Flags: W
HStem: 0 21G<75 195 415 535> 240 40<218.918 415> 440 20G<75 195 415 535>
VStem: 75 120<0 240 302.778 460> 415 120<0 240 280 460>
LayerCount: 2
Fore
SplineSet
195 240 m 1
 195 0 l 1
 75 0 l 1
 75 460 l 1
 195 460 l 1
 195 380 l 2
 195 320 215 280 275 280 c 2
 415 280 l 1
 415 460 l 1
 535 460 l 1
 535 0 l 1
 415 0 l 1
 415 240 l 1
 195 240 l 1
EndSplineSet
Validated: 1
EndChar

StartChar: afii10081
Encoding: 1087 1087 448
Width: 586
VWidth: 0
Flags: W
HStem: 0 21G<75 195 390 510> 420 40<195 390>
VStem: 75 120<0 420> 390 120<0 420>
LayerCount: 2
Fore
SplineSet
195 0 m 1
 75 0 l 1
 75 460 l 1
 510 460 l 1
 510 0 l 1
 390 0 l 1
 390 420 l 1
 195 420 l 1
 195 0 l 1
EndSplineSet
Validated: 1
EndChar

StartChar: afii10084
Encoding: 1090 1090 449
Width: 610
VWidth: 0
Flags: W
HStem: 0 21G<232 352> 420 40<42 208.082 352 542>
VStem: 232 120<0 397.222>
LayerCount: 2
Fore
SplineSet
352 420 m 1
 352 0 l 1
 232 0 l 1
 232 320 l 2
 232 380 212 420 152 420 c 2
 42 420 l 1
 42 460 l 1
 542 460 l 1
 542 420 l 1
 352 420 l 1
EndSplineSet
Validated: 1
EndChar

StartChar: afii10086
Encoding: 1092 1092 450
Width: 817
VWidth: 0
Flags: W
HStem: -10 40<205.599 317.936 488.592 610.187> 430 40<205.599 317.936 490.666 606.391> 580 20G<343 463>
VStem: 58 120<58.6138 401.386> 343 120<-141 0 54.6387 403.633 460 600> 636 120<59.25 398.75>
LayerCount: 2
Fore
SplineSet
636 139 m 2
 636 319 l 2
 636 385 619 429 550 429 c 0
 481 429 463 389 463 309 c 2
 463 149 l 2
 463 69 481 29 550 29 c 0
 619 29 636 73 636 139 c 2
178 140 m 2
 178 74 194 30 260 30 c 0
 326 30 343 70 343 150 c 2
 343 310 l 2
 343 390 326 430 260 430 c 0
 194 430 178 386 178 320 c 2
 178 140 l 2
343 0 m 1
 320 -7 292 -10 260 -10 c 0
 108 -10 58 50 58 150 c 2
 58 310 l 2
 58 410 108 470 260 470 c 0
 292 470 320 467 343 460 c 1
 343 600 l 1
 463 600 l 1
 463 458 l 1
 487 465 516 469 550 469 c 0
 706 469 756 409 756 309 c 2
 756 149 l 2
 756 49 706 -11 550 -11 c 0
 516 -11 487 -7 463 0 c 1
 463 -141 l 1
 343 -141 l 1
 343 0 l 1
EndSplineSet
Validated: 1
EndChar

StartChar: afii10088
Encoding: 1094 1094 451
Width: 604
VWidth: 0
Flags: W
HStem: 0 40<195 368> 440 20G<75 195 368 488>
VStem: 75 120<40 460> 368 120<40 460> 497 40<-100 -24.3073>
LayerCount: 2
Fore
SplineSet
368 460 m 1
 488 460 l 1
 488 40 l 1
 537 40 l 1
 537 -100 l 1
 497 -100 l 1
 497 -40 477 0 417 0 c 2
 75 0 l 1
 75 460 l 1
 195 460 l 1
 195 40 l 1
 368 40 l 1
 368 460 l 1
EndSplineSet
Validated: 1
EndChar

StartChar: afii10089
Encoding: 1095 1095 452
Width: 544
VWidth: 0
Flags: W
HStem: 0 21G<348 468> 160 40<208.122 322.652> 440 20G<62 183 348 468>
VStem: 62 121<243.394 460> 348 120<0 168 223.423 460>
LayerCount: 2
Fore
SplineSet
183 460 m 1
 183 320 l 2
 183 240 200 200 266 200 c 0
 332 200 348 244 348 310 c 2
 348 460 l 1
 468 460 l 1
 468 0 l 1
 348 0 l 1
 348 168 l 1
 325 163 298 160 266 160 c 0
 134 160 62 225 62 328 c 2
 62 460 l 1
 183 460 l 1
EndSplineSet
Validated: 1
EndChar

StartChar: afii10090
Encoding: 1096 1096 453
Width: 767
VWidth: 0
Flags: W
HStem: 0 40<195 323 443 571> 440 20G<75 195 323 443 571 691>
VStem: 75 120<40 460> 323 120<40 460> 571 120<40 460>
CounterMasks: 1 38
LayerCount: 2
Fore
SplineSet
571 460 m 1
 691 460 l 1
 691 0 l 1
 75 0 l 1
 75 460 l 1
 195 460 l 1
 195 40 l 1
 323 40 l 1
 323 460 l 1
 443 460 l 1
 443 40 l 1
 571 40 l 1
 571 460 l 1
EndSplineSet
Validated: 1
EndChar

StartChar: afii10091
Encoding: 1097 1097 454
Width: 811
VWidth: 0
Flags: W
HStem: 0 40<195 323 443 571> 440 20G<75 195 323 443 571 691>
VStem: 75 120<40 460> 323 120<40 460> 571 120<40 460> 704 40<-100 -24.3073>
LayerCount: 2
Fore
SplineSet
571 460 m 1
 691 460 l 1
 691 40 l 1
 744 40 l 1
 744 -100 l 1
 704 -100 l 1
 704 -40 684 0 624 0 c 2
 75 0 l 1
 75 460 l 1
 195 460 l 1
 195 40 l 1
 323 40 l 1
 323 460 l 1
 443 460 l 1
 443 40 l 1
 571 40 l 1
 571 460 l 1
EndSplineSet
Validated: 1
EndChar

StartChar: afii10092
Encoding: 1098 1098 455
Width: 656
VWidth: 0
Flags: W
HStem: 0 40<308.42 424.141> 240 40<298.918 420.878> 420 40<16 155>
VStem: 155 120<74.6461 240 302.778 420> 455 140<69.0666 207.897>
LayerCount: 2
Fore
SplineSet
365 40 m 0
 425 40 455 80 455 138 c 0
 455 192 425 240 365 240 c 2
 275 240 l 1
 275 180 l 2
 275 80 305 40 365 40 c 0
275 460 m 1
 275 380 l 2
 275 320 295 280 355 280 c 0
 446 280 595 252 595 146 c 0
 595 42 515 0 355 0 c 2
 155 0 l 1
 155 420 l 1
 16 420 l 1
 16 460 l 1
 275 460 l 1
EndSplineSet
Validated: 1
EndChar

StartChar: afii10095
Encoding: 1101 1101 456
Width: 519
VWidth: 0
Flags: W
HStem: -10 40<200.654 312.401> 216 40<192 340> 430 40<200.654 312.401>
VStem: 58 117<70.1074 132.137 327.863 389.893> 340 120<58.6138 216 256 401.386>
LayerCount: 2
Fore
SplineSet
340 320 m 2
 340 386 324 430 258 430 c 0
 192 430 175 390 175 310 c 1
 58 329 l 1
 71 410 126 470 258 470 c 0
 410 470 460 410 460 310 c 2
 460 150 l 2
 460 50 410 -10 258 -10 c 0
 126 -10 71 50 58 131 c 1
 175 150 l 1
 175 70 192 30 258 30 c 0
 324 30 340 74 340 140 c 2
 340 216 l 5
 192 216 l 5
 192 256 l 5
 340 256 l 5
 340 320 l 2
EndSplineSet
Validated: 1
EndChar

StartChar: afii10097
Encoding: 1103 1103 457
Width: 591
VWidth: 0
Flags: W
HStem: 0 40<48 99.4663> 180 40<274.414 371.082> 420 40<245.859 361.58>
VStem: 75 140<252.687 390.933> 395 120<0 157.222 220 385.354>
LayerCount: 2
Fore
SplineSet
305 420 m 0
 245 420 215 380 215 322 c 0
 215 268 245 220 305 220 c 0
 335 220 365 220 395 220 c 1
 395 280 l 2
 395 380 365 420 305 420 c 0
395 0 m 1
 395 80 l 2
 395 140 375 180 315 180 c 0
 222 180 291 0 48 0 c 1
 48 40 l 1
 146 40 108 147 195 196 c 1
 131 214 75 249 75 314 c 0
 75 418 155 460 315 460 c 2
 515 460 l 1
 515 0 l 1
 395 0 l 1
EndSplineSet
Validated: 1
EndChar

StartChar: afii10096
Encoding: 1102 1102 458
Width: 776
VWidth: 0
Flags: W
HStem: -10 40<436.311 559.689> 0 21G<75 195> 216 40<195 288> 430 40<436.311 559.689> 440 20G<75 195>
VStem: 75 120<0 216 256 460> 288 120<61.8671 216 256 398.133> 588 120<61.8671 398.133>
LayerCount: 2
Fore
SplineSet
195 0 m 1x67
 75 0 l 1
 75 460 l 1
 195 460 l 1x6f
 195 256 l 1
 288 256 l 1
 288 310 l 2
 288 410 338 470 498 470 c 0
 658 470 708 410 708 310 c 2
 708 150 l 2
 708 50 658 -10 498 -10 c 0xb7
 338 -10 288 50 288 150 c 2
 288 216 l 1
 195 216 l 1
 195 0 l 1x67
498 30 m 0xb7
 571 30 588 74 588 140 c 2
 588 320 l 2
 588 386 571 430 498 430 c 0
 425 430 408 386 408 320 c 2
 408 140 l 2
 408 74 425 30 498 30 c 0xb7
EndSplineSet
Validated: 1
EndChar

StartChar: afii10193
Encoding: 1119 1119 467
Width: 586
VWidth: 0
Flags: W
HStem: 0 40<195 266.082 330 390> 440 20G<75 195 390 510>
VStem: 75 120<40 460> 290 40<-100 -24.3073> 390 120<40 460>
LayerCount: 2
Fore
SplineSet
390 460 m 1
 510 460 l 1
 510 0 l 1
 330 0 l 1
 330 -100 l 1
 290 -100 l 1
 290 -40 270 0 210 0 c 2
 75 0 l 1
 75 460 l 1
 195 460 l 1
 195 40 l 1
 390 40 l 1
 390 460 l 1
EndSplineSet
Validated: 1
EndChar

StartChar: afii10101
Encoding: 1108 1108 468
Width: 519
VWidth: 0
Flags: W
HStem: -10 40<205.599 317.346> 216 40<178 326> 430 40<205.599 317.346>
VStem: 58 120<58.6138 216 256 401.386> 343 117<70.1074 132.137 327.863 389.893>
LayerCount: 2
Fore
SplineSet
178 320 m 2
 178 256 l 1
 326 256 l 1
 326 216 l 1
 178 216 l 1
 178 140 l 2
 178 74 194 30 260 30 c 0
 326 30 343 70 343 150 c 1
 460 131 l 1
 447 50 392 -10 260 -10 c 0
 108 -10 58 50 58 150 c 2
 58 310 l 2
 58 410 108 470 260 470 c 0
 392 470 447 410 460 329 c 1
 343 310 l 1
 343 390 326 430 260 430 c 0
 194 430 178 386 178 320 c 2
EndSplineSet
Validated: 1
EndChar

StartChar: afii10106
Encoding: 1113 1113 469
Width: 916
VWidth: 0
Flags: W
HStem: 0 40<68 115.758 568.42 684.141> 240 40<558.918 680.878> 420 40<252.242 415>
VStem: 124 120<45.1176 414.882> 415 120<74.6461 240 302.778 420> 715 140<69.0666 207.897>
LayerCount: 2
Fore
SplineSet
68 40 m 1
 118 40 124 50 124 114 c 2
 124 326 l 2
 124 426 160 460 300 460 c 2
 535 460 l 1
 535 380 l 2
 535 320 555 280 615 280 c 0
 706 280 855 252 855 146 c 0
 855 42 775 0 615 0 c 2
 415 0 l 1
 415 420 l 1
 300 420 l 2
 250 420 244 410 244 346 c 2
 244 134 l 2
 244 34 208 0 68 0 c 1
 68 40 l 1
625 40 m 0
 685 40 715 80 715 138 c 0
 715 192 685 240 625 240 c 2
 535 240 l 1
 535 180 l 2
 535 80 565 40 625 40 c 0
EndSplineSet
Validated: 1
EndChar

StartChar: afii10107
Encoding: 1114 1114 470
Width: 916
VWidth: 0
Flags: W
HStem: 0 40<568.42 684.141> 240 40<218.918 415 558.918 680.878> 440 20G<75 195 415 535>
VStem: 75 120<0 240 302.778 460> 415 120<74.6461 240 302.778 460> 715 140<69.0666 207.897>
LayerCount: 2
Fore
SplineSet
195 240 m 1
 195 0 l 1
 75 0 l 1
 75 460 l 1
 195 460 l 1
 195 380 l 2
 195 320 215 280 275 280 c 2
 415 280 l 1
 415 460 l 1
 535 460 l 1
 535 380 l 2
 535 320 555 280 615 280 c 0
 706 280 855 252 855 146 c 0
 855 42 775 0 615 0 c 2
 415 0 l 1
 415 240 l 1
 195 240 l 1
625 40 m 0
 685 40 715 80 715 138 c 0
 715 192 685 240 625 240 c 2
 535 240 l 1
 535 180 l 2
 535 80 565 40 625 40 c 0
EndSplineSet
Validated: 1
EndChar

StartChar: afii10108
Encoding: 1115 1115 471
Width: 565
VWidth: 0
Flags: W
HStem: 0 21G<96 216 381 502> 332 40<241.348 355.878> 420 40<56 96 216 340> 580 20G<96 216>
VStem: 96 120<0 308.577 364 420 460 600> 381 121<0 288.606>
LayerCount: 2
Fore
SplineSet
381 0 m 1
 381 212 l 2
 381 292 364 332 298 332 c 0
 232 332 216 288 216 222 c 2
 216 0 l 1
 96 0 l 1
 96 420 l 1
 56 420 l 1
 56 460 l 1
 96 460 l 1
 96 600 l 1
 216 600 l 1
 216 460 l 1
 340 460 l 1
 340 420 l 1
 216 420 l 1
 216 364 l 1
 239 369 266 372 298 372 c 0
 430 372 502 307 502 204 c 2
 502 0 l 1
 381 0 l 1
EndSplineSet
Validated: 1
EndChar

StartChar: afii10099
Encoding: 1106 1106 472
Width: 565
VWidth: 0
Flags: W
HStem: -150 40<242 346.961> 0 21G<96 216> 332 40<241.348 356.059> 420 40<56 96 216 340> 580 20G<96 216>
VStem: 96 120<0 308.577 364 420 460 600> 382 120<-62.3971 288.606>
LayerCount: 2
Fore
SplineSet
382 212 m 2
 382 292 364 332 298 332 c 0
 232 332 216 288 216 222 c 2
 216 0 l 1
 96 0 l 1
 96 420 l 1
 56 420 l 1
 56 460 l 1
 96 460 l 1
 96 600 l 1
 216 600 l 1
 216 460 l 1
 340 460 l 1
 340 420 l 1
 216 420 l 1
 216 364 l 1
 239 369 266 372 298 372 c 0
 430 372 502 307 502 204 c 2
 502 48 l 2
 502 -88 438 -150 298 -150 c 2
 242 -150 l 9
 242 -110 l 17
 298 -110 l 2
 348 -110 382 -68 382 28 c 2
 382 212 l 2
EndSplineSet
Validated: 1
EndChar

StartChar: afii10050
Encoding: 1168 1168 473
Width: 531
VWidth: 0
Flags: W
HStem: 0 21G<75 195> 560 110<355 455> 560 40<195 355>
VStem: 75 120<0 560> 355 100<600 670>
LayerCount: 2
Fore
SplineSet
195 0 m 1xb8
 75 0 l 1
 75 600 l 1
 355 600 l 5xb8
 355 670 l 5
 455 670 l 5
 455 560 l 5xd8
 195 560 l 1
 195 0 l 1xb8
EndSplineSet
Validated: 1
EndChar

StartChar: afii10098
Encoding: 1169 1169 474
Width: 476
VWidth: 0
Flags: W
HStem: 0 21G<75 195> 420 110<318 418> 420 40<195 318>
VStem: 75 120<0 420> 318 100<460 530>
LayerCount: 2
Fore
SplineSet
195 0 m 1xb8
 75 0 l 1
 75 460 l 1
 318 460 l 1xb8
 318 530 l 1
 418 530 l 1
 418 420 l 1xd8
 195 420 l 1
 195 0 l 1xb8
EndSplineSet
Validated: 1
EndChar

StartChar: breve_acute
Encoding: 57666 57666 475
Width: 268
VWidth: 0
Flags: W
HStem: 668 42<82.2746 185.725>
VStem: 10 44<737.798 780.114> 214 44<737.798 780.114>
LayerCount: 2
Fore
SplineSet
214 786 m 1
 258 779 l 1
 249 726 208 668 134 668 c 0
 60 668 19 726 10 779 c 1
 54 786 l 1
 62 741 92 710 134 710 c 0
 176 710 206 741 214 786 c 1
179 918 m 5
 255 854 l 5
 134 754 l 5
 111 774 l 5
 179 918 l 5
EndSplineSet
Validated: 1
EndChar

StartChar: breve_grave
Encoding: 57669 57669 476
Width: 268
VWidth: 0
Flags: W
HStem: 668 42<82.2746 185.725>
VStem: 10 44<737.798 780.114> 214 44<737.798 780.114>
LayerCount: 2
Fore
SplineSet
54 786 m 1
 62 741 92 710 134 710 c 0
 176 710 206 741 214 786 c 1
 258 779 l 1
 249 726 208 668 134 668 c 0
 60 668 19 726 10 779 c 1
 54 786 l 1
89 918 m 1
 157 774 l 1
 134 754 l 1
 13 854 l 1
 89 918 l 1
EndSplineSet
Validated: 1
EndChar

StartChar: hookabovecomb
Encoding: 777 777 478
Width: 0
VWidth: 0
Flags: W
HStem: 603 21G<-295 -278.5> 709 23<-306.851 -266.284>
VStem: -310 36<603.843 646.851> -264 48<661.381 708.477>
AnchorPoint: "above" -286 574 mark 0
LayerCount: 2
Fore
SplineSet
-289 709 m 0
 -319 709 -301 674 -318 674 c 0
 -332 674 -344 682 -344 697 c 0
 -344 707 -325 732 -282 732 c 0
 -239 732 -216 712 -216 691 c 0
 -216 653 -274 647 -274 633 c 0
 -274 626 -269 621 -269 614 c 0
 -269 608 -272 603 -285 603 c 0
 -305 603 -310 618 -310 631 c 0
 -310 653 -264 668 -264 689 c 0
 -264 700 -271 709 -289 709 c 0
EndSplineSet
Validated: 1
EndChar

StartChar: breve_tilde
Encoding: 57675 57675 479
Width: 268
VWidth: 0
Flags: W
HStem: 668 42<82.2746 185.725> 813 62<136.138 232.749> 851 62<33.2513 129.862>
VStem: -1 27<813 840.304> 10 44<737.798 780.114> 214 44<737.798 780.114> 240 27<885.696 913>
LayerCount: 2
Fore
SplineSet
214 786 m 1x8c
 258 779 l 1
 249 726 208 668 134 668 c 0
 60 668 19 726 10 779 c 1
 54 786 l 1
 62 741 92 710 134 710 c 0
 176 710 206 741 214 786 c 1x8c
78 851 m 0xb2
 58 851 32 850 26 812 c 1
 -1 813 l 17xd2
 7 862 32 913 84 913 c 0xb2
 143 913 139 875 188 875 c 0xd2
 208 875 234 876 240 914 c 1
 267 913 l 17xb2
 259 864 234 813 182 813 c 0xd2
 123 813 127 851 78 851 c 0xb2
EndSplineSet
Validated: 1
EndChar

StartChar: circumflex_acute
Encoding: 57688 57688 480
Width: 321
VWidth: 0
Flags: W
HStem: 669 249
LayerCount: 2
Fore
SplineSet
162 834 m 1
 311 694 l 1
 294 669 l 1
 163 735 l 1
 27 666 l 1
 10 692 l 1
 162 834 l 1
329 918 m 1
 405 854 l 1
 284 754 l 1
 261 774 l 1
 329 918 l 1
EndSplineSet
Validated: 1
EndChar

StartChar: circumflex_grave
Encoding: 57691 57691 481
Width: 321
VWidth: 0
Flags: W
HStem: 669 249
LayerCount: 2
Fore
SplineSet
162 834 m 1
 311 694 l 1
 294 669 l 1
 163 735 l 1
 27 666 l 1
 10 692 l 1
 162 834 l 1
-8 918 m 1
 60 774 l 1
 37 754 l 1
 -84 854 l 1
 -8 918 l 1
EndSplineSet
Validated: 1
EndChar

StartChar: circumflex_tilde
Encoding: 57697 57697 483
Width: 321
VWidth: 0
Flags: W
HStem: 814 62<166.138 262.749> 852 62<63.2513 159.862>
VStem: 29 27<814 841.424> 270 27<886.696 914>
LayerCount: 2
Fore
SplineSet
108 852 m 0x70
 88 852 62 852 56 814 c 1
 29 814 l 17xb0
 37 863 62 914 114 914 c 0x70
 173 914 169 876 218 876 c 0xb0
 238 876 264 877 270 915 c 1
 297 914 l 17x70
 289 865 264 814 212 814 c 0xb0
 153 814 157 852 108 852 c 0x70
162 805 m 1
 311 694 l 1
 299 669 l 1
 163 716 l 1
 22 666 l 1
 10 692 l 1
 162 805 l 1
EndSplineSet
Validated: 1
EndChar

StartChar: uni031B
Encoding: 795 795 484
Width: 0
VWidth: 0
HStem: 460 36<-198 -93.1703>
VStem: -60 74<520.326 610.562>
AnchorPoint: "above" -352 560 mark 0
LayerCount: 2
Fore
SplineSet
-60 565 m 0
 -60 627 -100 601 -100 633 c 0
 -100 644 -86 656 -76 656 c 0
 -20 656 14 624 14 564 c 0
 14 499 -40 460 -198 460 c 1
 -198 496 l 17
 -90 496 -60 525 -60 565 c 0
EndSplineSet
Validated: 1
EndChar

StartChar: Ohorn
Encoding: 416 416 485
Width: 604
VWidth: 0
Flags: W
HStem: -10 40<216.848 355.152> 570 40<216.848 355.841>
VStem: 66 120<80.1421 519.858> 386 120<80.1421 471.445> 544 74<520.683 610.562>
AnchorPoint: "above" 287 640 basechar 0
AnchorPoint: "below" 287 0 basechar 0
LayerCount: 2
Fore
SplineSet
506 170 m 2
 506 70 446 -10 286 -10 c 0
 126 -10 66 70 66 170 c 2
 66 430 l 2
 66 530 126 610 286 610 c 0
 403 610 466 568 492 506 c 1
 531 518 544 539 544 565 c 0
 544 627 504 601 504 633 c 0
 504 644 518 656 528 656 c 0
 584 656 618 624 618 564 c 0
 618 515 587 481 503 467 c 1
 505 455 506 443 506 430 c 2
 506 170 l 2
386 450 m 2
 386 530 366 570 286 570 c 0
 206 570 186 530 186 450 c 2
 186 150 l 2
 186 70 206 30 286 30 c 0
 366 30 386 70 386 150 c 2
 386 450 l 2
EndSplineSet
Validated: 1
EndChar

StartChar: ohorn
Encoding: 417 417 486
Width: 569
VWidth: 0
Flags: W
HStem: -10 40<206.311 329.689> 430 40<206.311 329.549>
VStem: 58 120<61.8671 398.133> 358 120<61.8671 351.39> 509 74<403.821 494.562>
AnchorPoint: "above" 269 500 basechar 0
AnchorPoint: "below" 269 0 basechar 0
LayerCount: 2
Fore
SplineSet
509 449 m 0
 509 511 469 485 469 517 c 0
 469 528 483 540 493 540 c 0
 549 540 583 508 583 448 c 0
 583 400 554 366 475 352 c 1
 477 339 478 325 478 310 c 2
 478 150 l 2
 478 50 428 -10 268 -10 c 0
 108 -10 58 50 58 150 c 2
 58 310 l 2
 58 410 108 470 268 470 c 0
 378 470 437 441 462 391 c 1
 498 403 509 424 509 449 c 0
268 30 m 0
 341 30 358 74 358 140 c 2
 358 320 l 2
 358 386 341 430 268 430 c 0
 195 430 178 386 178 320 c 2
 178 140 l 2
 178 74 195 30 268 30 c 0
EndSplineSet
Validated: 1
EndChar

StartChar: Uhorn
Encoding: 431 431 487
Width: 641
VWidth: 0
Flags: W
HStem: -10 40<224.095 349.905> 462 38<503 554.532> 580 20G<71 191 383 503>
VStem: 71 120<80.1421 600> 383 120<80.1421 464.013 500 600> 581 74<520.811 610.562>
AnchorPoint: "above" 290 640 basechar 0
AnchorPoint: "below" 288 0 basechar 0
LayerCount: 2
Fore
SplineSet
581 565 m 0
 581 627 541 601 541 633 c 0
 541 644 555 656 565 656 c 0
 621 656 655 624 655 564 c 0
 655 508 615 471 503 462 c 1
 503 170 l 2
 503 70 443 -10 287 -10 c 0
 131 -10 71 70 71 170 c 2
 71 600 l 1
 191 600 l 1
 191 150 l 2
 191 70 215 30 287 30 c 0
 359 30 383 70 383 150 c 2
 383 600 l 1
 503 600 l 1
 503 500 l 1
 563 509 581 534 581 565 c 0
EndSplineSet
Validated: 1
EndChar

StartChar: uhorn
Encoding: 432 432 488
Width: 630
VWidth: 0
Flags: W
HStem: -10 40<211.576 336.841> 346 37<484 542.583> 440 20G<62 183 364 484>
VStem: 62 121<73.3943 460> 364 120<55.0557 347.838 383 460> 570 74<404.691 494.562>
AnchorPoint: "above" 275 500 basechar 0
AnchorPoint: "below" 274 0 basechar 0
LayerCount: 2
Fore
SplineSet
570 449 m 0
 570 511 530 485 530 517 c 0
 530 528 544 540 554 540 c 0
 610 540 644 508 644 448 c 0
 644 391 602 354 484 346 c 1
 484 0 l 1
 371 0 l 1
 345 -7 312 -10 274 -10 c 0
 134 -10 62 55 62 158 c 2
 62 460 l 1
 183 460 l 1
 183 150 l 2
 183 70 201 30 274 30 c 0
 347 30 364 74 364 140 c 2
 364 460 l 1
 484 460 l 1
 484 383 l 1
 550 391 570 416 570 449 c 0
EndSplineSet
Validated: 1
EndChar

StartChar: uni13A1
Encoding: 5025 5025 578
Width: 557
VWidth: 0
Flags: W
HStem: -5 44<471.416 510> 560 40<195 323.508>
VStem: 75 120<0 280 342.778 560> 355 120<353.227 525.72>
LayerCount: 2
Fore
SplineSet
510 -5 m 1
 213 -5 413 209 195 280 c 1
 195 0 l 1
 75 0 l 1
 75 600 l 1
 275 600 l 2
 415 600 475 540 475 440 c 0
 475 357 433 301 338 285 c 1
 397 260 420 228 429 180 c 0
 448 73 456 39 510 39 c 1
 510 -5 l 1
275 320 m 0
 335 320 355 380 355 440 c 0
 355 500 335 560 275 560 c 2
 195 560 l 1
 195 420 l 2
 195 360 215 320 275 320 c 0
EndSplineSet
Validated: 1
EndChar

StartChar: uni13A3
Encoding: 5027 5027 580
Width: 735
VWidth: 0
Flags: W
HStem: -10 40<198.203 257.797 464 525.141> 430 170<364.288 480.885> 430 37<351 362 482 497>
VStem: 58 120<61.8671 237.921> 174 120<298.226 381.702> 278 120<61.8671 239.75> 362 120<464.883 600> 554 120<61.8671 382.346>
LayerCount: 2
Fore
SplineSet
228 30 m 4x95
 258 30 278 74 278 140 c 6
 278 160 l 2
 278 226 258 270 228 270 c 0
 198 270 178 226 178 160 c 2
 178 140 l 2
 178 74 198 30 228 30 c 4x95
294 301 m 1xcb
 362 281 398 228 398 150 c 4
 398 50 338 -10 228 -10 c 4
 118 -10 58 50 58 150 c 0xd5
 58 232 99 287 174 304 c 1
 174 310 l 2
 174 396 241 453 362 467 c 1xab
 362 600 l 1
 482 600 l 1xcb
 482 467 l 1xab
 606 454 674 397 674 310 c 2
 674 150 l 2
 674 50 624 -10 464 -10 c 1
 464 30 l 1
 537 30 554 74 554 140 c 2
 554 320 l 2
 554 386 497 430 424 430 c 0
 351 430 294 386 294 320 c 2
 294 301 l 1xcb
EndSplineSet
Validated: 1
EndChar

StartChar: uni13A4
Encoding: 5028 5028 581
Width: 740
VWidth: 0
Flags: W
HStem: -10 40<216.848 355.152> 310 40<506 573.806> 570 40<216.848 355.152>
VStem: 66 120<80.1421 519.858> 386 120<80.1421 310 350 519.858> 602 82<375.519 479.547>
LayerCount: 2
Fore
SplineSet
584 541 m 1
 656 516 684 477 684 430 c 0
 684 370 632 310 506 310 c 1
 506 170 l 2
 506 70 446 -10 286 -10 c 0
 126 -10 66 70 66 170 c 2
 66 430 l 2
 66 530 126 610 286 610 c 0
 446 610 506 530 506 430 c 2
 506 350 l 1
 536 350 602 360 602 430 c 0
 602 471 588 480 555 490 c 1
 584 541 l 1
386 450 m 2
 386 530 366 570 286 570 c 0
 206 570 186 530 186 450 c 2
 186 150 l 2
 186 70 206 30 286 30 c 0
 366 30 386 70 386 150 c 2
 386 450 l 2
EndSplineSet
Validated: 1
EndChar

StartChar: uni13A5
Encoding: 5029 5029 582
Width: 271
VWidth: 0
Flags: W
HStem: 0 21G<75 195> 520 80<75 195>
VStem: 75 120<0 430 520 600>
LayerCount: 2
Fore
SplineSet
75 600 m 1
 195 600 l 1
 195 520 l 1
 75 520 l 1
 75 600 l 1
195 0 m 5
 75 0 l 5
 75 430 l 5
 195 430 l 5
 195 0 l 5
EndSplineSet
Validated: 1
EndChar

StartChar: uni13A6
Encoding: 5030 5030 583
Width: 564
VWidth: 0
Flags: W
HStem: -10 40<212.796 348.58> 286 40<50 149 429 514> 570 40<221.388 324.253>
VStem: 69 113<71.7871 119.044> 77 120<411.425 541.458> 347 116<476.31 533.654> 382 120<68.2146 194.889>
LayerCount: 2
Fore
SplineSet
182 150 m 1xf2
 182 70 202 30 282 30 c 0
 362 30 382 74 382 140 c 0xf2
 382 211 297 244 216 286 c 1
 50 286 l 5
 50 326 l 5
 149 326 l 1
 107 356 77 395 77 450 c 0
 77 550 128 610 272 610 c 0
 392 610 448 554 463 478 c 1
 347 450 l 1
 347 530 332 570 272 570 c 0
 212 570 197 526 197 460 c 0xec
 197 396 283 368 364 326 c 1
 514 326 l 5
 514 286 l 5
 429 286 l 1
 471 254 502 212 502 150 c 0
 502 50 432 -10 282 -10 c 0
 160 -10 90 43 69 117 c 1
 182 150 l 1xf2
EndSplineSet
Validated: 1
EndChar

StartChar: uni13A7
Encoding: 5031 5031 584
Width: 686
VWidth: 0
Flags: W
HStem: -10 40<273.135 415.891> 420 40<202.314 251.274> 570 40<285 367.41>
VStem: 66 120<154.109 391.181> 267 120<189.966 391.763> 506 120<180.883 424.414>
LayerCount: 2
Fore
SplineSet
216 109 m 1
 266 159 267 240 267 331 c 0
 267 380 249 420 227 420 c 0
 204 420 186 380 186 331 c 2
 186 250 l 2
 186 190 197 143 216 109 c 1
252 64 m 1
 279 40 313 30 346 30 c 0
 390 30 506 43 506 329 c 0
 506 470 403 570 285 570 c 1
 285 610 l 1
 521 610 626 447 626 329 c 0
 626 48 449 -10 346 -10 c 0
 186 -10 66 99 66 270 c 2
 66 311 l 2
 66 393 121 460 227 460 c 0
 333 460 387 393 387 311 c 0
 387 201 344 114 252 64 c 1
EndSplineSet
Validated: 1
EndChar

StartChar: uni13A8
Encoding: 5032 5032 585
Width: 481
VWidth: 0
Flags: W
HStem: 0 21G<75 195> 259 67<305.998 374.978> 440 20G<380 411.5> 580 20G<75 195>
VStem: 75 120<0 268 370 600> 386 32<341.164 457.074>
LayerCount: 2
Fore
SplineSet
195 0 m 1
 75 0 l 1
 75 600 l 1
 195 600 l 1
 195 370 l 1
 220 378 264 391 286 394 c 1
 292 361 314 326 340 326 c 0
 358 326 386 338 386 398 c 0
 386 414 384 434 380 457 c 1
 408 460 l 1
 415 422 418 390 418 365 c 0
 418 276 372 259 342 259 c 0
 309 259 272 292 266 328 c 1
 195 268 l 1
 195 0 l 1
EndSplineSet
Validated: 1
EndChar

StartChar: uni13A9
Encoding: 5033 5033 586
Width: 578
VWidth: 0
Flags: W
HStem: -10 40<184.105 253.923> 580 20G<82 225.283 451.696 522>
VStem: 40 120<76.875 170>
LayerCount: 2
Fore
SplineSet
366 170 m 6
 339 96 316 -10 216 -10 c 4
 102 -10 40 70 40 170 c 5
 160 190 l 5
 160 150 l 6
 160 70 186 30 216 30 c 4
 236 30 258 45 268 75 c 6
 294 146 l 1
 82 600 l 1
 216 600 l 1
 352 307 l 1
 459 600 l 1
 522 600 l 1
 366 170 l 6
EndSplineSet
Validated: 1
EndChar

StartChar: uni13AA
Encoding: 5034 5034 587
Width: 555
VWidth: 0
Flags: W
HStem: 0 21G<42 109.364 348.636 479> 220 40<174 284> 580 20G<197.633 323.367>
LayerCount: 2
Fore
SplineSet
42 0 m 1
 203 600 l 1
 318 600 l 1
 479 0 l 1
 354 0 l 1
 295 220 l 1
 163 220 l 1
 104 0 l 1
 42 0 l 1
174 260 m 1
 284 260 l 1
 229 466 l 1
 174 260 l 1
EndSplineSet
Validated: 1
EndChar

StartChar: uni13AD
Encoding: 5037 5037 590
Width: 801
VWidth: 0
Flags: W
HStem: 0 21G<413 486.68> 174 40<163.92 234.878> 313 40<376.858 413 533 692> 454 40<163.92 234.894> 580 20G<413 533>
VStem: 20 120<249.189 418.811> 260 119<246.079 313 353 421.921> 413 120<143 313 353 600>
LayerCount: 2
Fore
SplineSet
533 313 m 1
 533 143 l 1
 692 313 l 1
 533 313 l 1
413 0 m 1
 413 313 l 1
 379 313 l 1
 370 226 308 174 200 174 c 0
 84 174 20 234 20 334 c 0
 20 434 84 494 200 494 c 0
 308 494 371 442 379 353 c 1
 413 353 l 1
 413 600 l 1
 533 600 l 1
 533 353 l 1
 751 353 l 1
 751 303 l 1
 468 0 l 1
 413 0 l 1
200 214 m 0
 236 214 260 258 260 324 c 2
 260 344 l 2
 260 410 236 454 200 454 c 0
 164 454 140 410 140 344 c 2
 140 324 l 2
 140 258 164 214 200 214 c 0
EndSplineSet
Validated: 1
EndChar

StartChar: uni13AE
Encoding: 5038 5038 591
Width: 511
VWidth: 0
Flags: W
HStem: 0 21G<86 206> 198 40<206 290.76> 570 40<203.021 292.979>
VStem: 58 120<460 541.386> 86 120<0 198 238 368> 318 120<266.614 541.386>
LayerCount: 2
Fore
SplineSet
206 0 m 1xec
 86 0 l 1
 86 368 l 1
 206 368 l 1
 206 238 l 1xec
 248 238 l 2
 302 238 318 282 318 348 c 2
 318 460 l 2
 318 526 302 570 248 570 c 0
 194 570 178 526 178 460 c 1
 58 450 l 1xf4
 58 550 108 610 248 610 c 0
 388 610 438 550 438 450 c 2
 438 358 l 2
 438 258 388 198 248 198 c 2
 206 198 l 1
 206 0 l 1xec
EndSplineSet
Validated: 1
EndChar

StartChar: uni13AF
Encoding: 5039 5039 592
Width: 650
VWidth: 0
Flags: W
HStem: -10 40<93.8116 140.443 403.812 450.443> 296 40<270 460> 570 40<307.372 422.628>
VStem: 20 68<32.2699 66> 150 120<62.5131 296 336 515.83> 330 68<32.2699 66> 460 120<62.5131 296 336 515.83>
LayerCount: 2
Fore
SplineSet
150 430 m 2
 150 530 225 610 365 610 c 0
 505 610 580 530 580 430 c 2
 580 168 l 2
 580 40 513 -10 430 -10 c 0
 374 -10 330 26 330 66 c 1
 398 88 l 1
 398 50 406 30 430 30 c 0
 448 30 460 54 460 118 c 2
 460 296 l 1
 270 296 l 1
 270 168 l 2
 270 40 203 -10 120 -10 c 0
 64 -10 20 26 20 66 c 1
 88 88 l 1
 88 50 96 30 120 30 c 0
 138 30 150 54 150 118 c 2
 150 430 l 2
460 450 m 2
 460 530 425 570 365 570 c 0
 305 570 270 530 270 450 c 2
 270 336 l 1
 460 336 l 1
 460 450 l 2
EndSplineSet
Validated: 1
EndChar

StartChar: uni13B0
Encoding: 5040 5040 593
Width: 469
VWidth: 0
Flags: W
HStem: 0 21G<75 195> 330 40<195 404> 580 20G<75 195>
VStem: 75 120<0 330 370 600>
LayerCount: 2
Fore
SplineSet
195 0 m 1
 75 0 l 1
 75 600 l 1
 195 600 l 1
 195 370 l 1
 404 370 l 1
 404 330 l 1
 195 330 l 1
 195 0 l 1
EndSplineSet
Validated: 1
EndChar

StartChar: uni13B2
Encoding: 5042 5042 595
Width: 770
VWidth: 0
Flags: W
HStem: -10 40<171.637 299.14 407.557 505.977> 220 40<547 577 694.474 735> 570 40<331.171 377.836>
VStem: 35 106<61.1314 190.734> 188 120<198.842 480.501> 401 120<186.999 479.181> 577 119<128.442 220>
LayerCount: 2
Fore
SplineSet
547 260 m 1
 735 260 l 1
 735 220 l 1
 696 220 l 1
 683 47 564 -10 443 -10 c 0
 409 -10 378 -3 351 9 c 1
 319 -3 282 -10 239 -10 c 0
 110 -10 35 38 35 145 c 0
 35 206 64 237 98 264 c 1
 185 179 l 1
 157 159 141 143 141 109 c 0
 141 45 203 30 239 30 c 0
 262 30 282 35 300 43 c 1
 224 110 188 232 188 361 c 0
 188 510 275 610 355 610 c 0
 434 610 520 510 521 361 c 0
 521 231 494 107 407 40 c 1
 419 33 431 30 443 30 c 0
 489 30 573 58 577 220 c 1
 547 220 l 1
 547 260 l 1
356 96 m 1
 386 146 401 226 401 341 c 0
 401 544 375 570 355 570 c 0
 334 570 308 550 308 341 c 0
 308 226 328 146 356 96 c 1
EndSplineSet
Validated: 1
EndChar

StartChar: uni13B3
Encoding: 5043 5043 596
Width: 930
VWidth: 0
Flags: W
HStem: 0 21G<197.633 323.372 572.628 698.367> 580 20G<42 172.365 411.635 547.365 786.635 854>
LayerCount: 2
Fore
SplineSet
854 600 m 1
 693 0 l 1
 578 0 l 1
 448 484 l 1
 318 0 l 1
 203 0 l 1
 42 600 l 1
 167 600 l 1
 292 134 l 1
 417 600 l 1
 542 600 l 1
 667 134 l 1
 792 600 l 1
 854 600 l 1
EndSplineSet
Validated: 1
EndChar

StartChar: uni13B4
Encoding: 5044 5044 597
Width: 693
VWidth: 0
Flags: W
HStem: -10 40<206.311 329.689> 430 40<206.311 330.341> 570 40<484.28 533.322>
VStem: 58 120<61.8671 398.133> 358 120<61.8671 404.944 462 559.726> 541 120<460 559.726>
LayerCount: 2
Fore
SplineSet
661 460 m 17
 541 460 l 9
 541 496 l 2
 541 560 528 570 510 570 c 0
 492 570 478 560 478 496 c 2
 478 150 l 2
 478 50 428 -10 268 -10 c 0
 108 -10 58 50 58 150 c 2
 58 310 l 2
 58 410 108 470 268 470 c 0
 303 470 333 468 358 462 c 1
 358 476 l 2
 358 576 415 610 510 610 c 0
 605 610 661 576 661 476 c 2
 661 460 l 17
268 30 m 0
 341 30 358 74 358 140 c 2
 358 320 l 2
 358 386 341 430 268 430 c 0
 195 430 178 386 178 320 c 2
 178 140 l 2
 178 74 195 30 268 30 c 0
EndSplineSet
Validated: 1
EndChar

StartChar: uni13B5
Encoding: 5045 5045 598
Width: 576
VWidth: 0
Flags: W
HStem: 0 21G<66 186> 219 40<286 353.828> 570 40<216.848 355.152>
VStem: 66 120<0 519.858> 386 120<309.142 519.858>
LayerCount: 2
Fore
SplineSet
186 450 m 6
 186 0 l 17
 66 0 l 9
 66 430 l 6
 66 530 126 610 286 610 c 4
 446 610 506 530 506 430 c 6
 506 399 l 6
 506 299 446 219 286 219 c 5
 286 259 l 5
 366 259 386 299 386 379 c 6
 386 450 l 6
 386 530 366 570 286 570 c 4
 206 570 186 530 186 450 c 6
EndSplineSet
Validated: 1
EndChar

StartChar: uni13B6
Encoding: 5046 5046 599
Width: 576
VWidth: 0
Flags: W
HStem: -10 40<216.848 354.777> 277 42<319 359.628> 570 40<216.848 355.152>
VStem: 66 120<80.1421 519.858> 279 40<212 277 317.006 386> 386 120<77.6273 232.621 430 519.858>
LayerCount: 2
Fore
SplineSet
186 450 m 2
 186 150 l 2
 186 70 206 30 286 30 c 0
 377 30 386 84 386 155 c 0
 386 216 379 265 319 277 c 1
 319 212 l 1
 279 212 l 1
 279 386 l 1
 319 386 l 1
 319 319 l 1
 454 308 506 228 506 155 c 0
 506 76 446 -10 286 -10 c 0
 126 -10 66 70 66 170 c 2
 66 430 l 2
 66 530 126 610 286 610 c 0
 446 610 506 530 506 430 c 1
 386 410 l 1
 386 450 l 2
 386 530 366 570 286 570 c 0
 206 570 186 530 186 450 c 2
EndSplineSet
Validated: 1
EndChar

StartChar: uni13B8
Encoding: 5048 5048 601
Width: 530
VWidth: 0
Flags: W
HStem: 0 21G<340 460> 133 40<252.613 340> 232 40<60 145.387> 570 40<185.997 314.003>
VStem: 40 120<430 523.598> 340 120<0 133 173 523.598>
LayerCount: 2
Fore
SplineSet
118 232 m 2
 60 232 l 1
 60 272 l 1
 170 272 l 2
 236 272 240 173 280 173 c 2
 340 173 l 1
 340 450 l 2
 340 530 330 570 250 570 c 0
 170 570 160 530 160 450 c 2
 160 410 l 1
 40 430 l 1
 40 530 90 610 250 610 c 0
 410 610 460 530 460 430 c 2
 460 0 l 1
 340 0 l 1
 340 133 l 1
 228 133 l 18
 162 133 158 232 118 232 c 2
EndSplineSet
Validated: 1
EndChar

StartChar: uni13B9
Encoding: 5049 5049 602
Width: 703
VWidth: 0
Flags: W
HStem: -10 40<187.078 263.246> 325 45<395.601 449.196> 360 40<59 128.92> 432 46<510.658 563.241> 580 20G<241 361>
VStem: 45 120<61.815 224.711> 241 120<486.482 600> 285 120<61.815 222.47> 572 103<385 427.415>
LayerCount: 2
Fore
SplineSet
572 361 m 1xde80
 572 393 565 432 535 432 c 0
 523 432 507 406 490 380 c 0
 473 353 454 325 416 325 c 0xde80
 378 325 329 340 293 390 c 1
 283 375 273 360 263 346 c 1
 354 292 405 209 405 148 c 0
 405 46 340 -10 225 -10 c 0
 111 -10 45 46 45 148 c 0
 45 233 86 289 130 346 c 1
 107 355 82 360 59 360 c 1
 59 400 l 1xbd80
 96 400 130 396 162 388 c 1
 204 444 241 506 241 600 c 1
 361 600 l 1
 361 387 409 370 428 370 c 0
 449 370 483 478 550 478 c 0
 644 478 675 446 675 385 c 1
 572 361 l 1xde80
220 285 m 1
 189 238 165 189 165 128 c 0
 165 54 195 30 225 30 c 0
 256 30 285 54 285 128 c 0x9d80
 285 190 259 244 220 285 c 1
EndSplineSet
Validated: 1
EndChar

StartChar: uni13BA
Encoding: 5050 5050 603
Width: 810
VWidth: 0
Flags: W
HStem: -10 40<225.848 364.152> 0 21G<620 740> 272 50<515 620> 570 40<225.848 364.152> 580 20G<620 740>
VStem: 75 120<80.1421 519.858> 395 120<80.1421 272 322 519.858> 620 120<0 272 322 600>
LayerCount: 2
Fore
SplineSet
620 600 m 5x2f
 740 600 l 5
 740 0 l 1
 620 0 l 1x6f
 620 272 l 1
 515 272 l 1
 515 170 l 2
 515 70 455 -10 295 -10 c 0
 135 -10 75 70 75 170 c 2
 75 430 l 2
 75 530 135 610 295 610 c 0xb7
 455 610 515 530 515 430 c 2
 515 322 l 1
 620 322 l 1
 620 600 l 5x2f
195 150 m 2
 195 70 215 30 295 30 c 0
 375 30 395 70 395 150 c 2
 395 450 l 2
 395 530 375 570 295 570 c 0xb7
 215 570 195 530 195 450 c 2
 195 150 l 2
EndSplineSet
Validated: 1
EndChar

StartChar: uni13BC
Encoding: 5052 5052 605
Width: 576
VWidth: 0
Flags: W
HStem: -10 40<216.848 355.152> 430 170<225.217 344.643> 430 36<219.661 225 345 350.386>
VStem: 66 120<80.1421 170 290 380.752> 225 120<462.013 600> 386 120<80.1421 379.174>
LayerCount: 2
Fore
SplineSet
386 310 m 2xbc
 386 390 366 430 286 430 c 0xdc
 206 430 186 390 186 310 c 2
 186 270 l 1
 66 290 l 1
 66 376 110 448 225 466 c 1xbc
 225 600 l 1
 345 600 l 1xdc
 345 466 l 1
 461 448 506 377 506 290 c 2
 506 170 l 2
 506 70 446 -10 286 -10 c 0
 126 -10 66 70 66 170 c 1
 186 190 l 1
 186 150 l 2
 186 70 206 30 286 30 c 0
 366 30 386 70 386 150 c 2
 386 310 l 2xbc
EndSplineSet
Validated: 1
EndChar

StartChar: uni13BD
Encoding: 5053 5053 606
Width: 578
VWidth: 0
Flags: W
HStem: -10 40<184.105 253.923> 170 40<160 225> 580 20G<82 225.283 451.696 522>
VStem: 40 120<76.875 170>
LayerCount: 2
Fore
SplineSet
366 170 m 2
 339 96 316 -10 216 -10 c 0
 102 -10 40 70 40 170 c 2
 40 210 l 1
 225 210 l 1
 225 170 l 1
 160 170 l 1
 160 150 l 2
 160 70 186 30 216 30 c 0
 236 30 258 45 268 75 c 2
 294 146 l 1
 82 600 l 1
 216 600 l 1
 352 307 l 1
 459 600 l 1
 522 600 l 1
 366 170 l 2
EndSplineSet
Validated: 1
EndChar

StartChar: uni13BE
Encoding: 5054 5054 607
Width: 576
VWidth: 0
Flags: W
HStem: -10 40<216.848 355.152> 272 50<186 386> 570 40<216.848 355.152>
VStem: 66 120<80.1421 272 322 519.858> 386 120<80.1421 272 322 519.858>
LayerCount: 2
Fore
SplineSet
506 170 m 2
 506 70 446 -10 286 -10 c 0
 126 -10 66 70 66 170 c 2
 66 430 l 2
 66 530 126 610 286 610 c 0
 446 610 506 530 506 430 c 2
 506 170 l 2
386 450 m 2
 386 530 366 570 286 570 c 0
 206 570 186 530 186 450 c 2
 186 322 l 1
 386 322 l 1
 386 450 l 2
386 272 m 1
 186 272 l 1
 186 150 l 2
 186 70 206 30 286 30 c 0
 366 30 386 70 386 150 c 2
 386 272 l 1
EndSplineSet
Validated: 1
EndChar

StartChar: uni13BF
Encoding: 5055 5055 608
Width: 576
VWidth: 0
Flags: W
HStem: 0 40<218.172 386> 281 40<298 386> 420 40<32 66 186 298> 580 20G<66 186>
VStem: 66 120<90.1421 420 460 600> 386 120<40 281>
LayerCount: 2
Fore
SplineSet
386 40 m 9
 386 281 l 1
 298 281 l 1
 298 321 l 1
 506 321 l 1
 506 0 l 17
 286 0 l 2
 126 0 66 80 66 180 c 2
 66 420 l 1
 32 420 l 1
 32 460 l 1
 66 460 l 1
 66 600 l 1
 186 600 l 1
 186 460 l 1
 298 460 l 1
 298 420 l 1
 186 420 l 1
 186 160 l 2
 186 80 206 40 286 40 c 2
 386 40 l 9
EndSplineSet
Validated: 1
EndChar

StartChar: uni13C1
Encoding: 5057 5057 610
Width: 731
VWidth: 0
Flags: W
HStem: -10 40<184.105 247.264> 0 21G<564.635 695> 580 20G<401 528>
VStem: 40 120<76.875 170> 570 125<0 98.8266>
LayerCount: 2
Fore
SplineSet
447 600 m 2xb8
 466 600 l 2
 590 600 695 0 695 0 c 1
 570 0 l 1x78
 570 0 478 466 445 466 c 0
 373 466 390 -10 216 -10 c 0
 102 -10 40 70 40 170 c 1
 160 190 l 1
 160 150 l 2
 160 70 186 30 216 30 c 0
 321 30 355 600 447 600 c 2xb8
EndSplineSet
Validated: 1
EndChar

StartChar: uni13C2
Encoding: 5058 5058 611
Width: 579
VWidth: 0
Flags: W
HStem: 0 21G<71 191 383 503> 344 40<221.727 349.905> 580 20G<71 191>
VStem: 71 120<0 314 371 600> 383 120<0 293.858>
LayerCount: 2
Fore
SplineSet
191 0 m 1
 71 0 l 1
 71 600 l 1
 191 600 l 1
 191 371 l 1
 218 379 250 384 287 384 c 0
 443 384 503 304 503 204 c 2
 503 0 l 1
 383 0 l 1
 383 224 l 2
 383 304 359 344 287 344 c 0
 215 344 191 304 191 224 c 2
 191 0 l 1
EndSplineSet
Validated: 1
EndChar

StartChar: uni13C4
Encoding: 5060 5060 613
Width: 530
VWidth: 0
Flags: W
HStem: 0 21G<340 460> 133 40<188.859 340> 570 40<185.997 314.003>
VStem: 40 120<219.402 313 430 523.598> 340 120<0 133 173 523.598>
LayerCount: 2
Fore
SplineSet
340 173 m 1
 340 450 l 2
 340 530 330 570 250 570 c 0
 170 570 160 530 160 450 c 2
 160 410 l 1
 40 430 l 1
 40 530 90 610 250 610 c 0
 410 610 460 530 460 430 c 2
 460 0 l 1
 340 0 l 1
 340 133 l 1
 250 133 l 2
 90 133 40 213 40 313 c 1
 160 333 l 1
 160 293 l 2
 160 213 170 173 250 173 c 2
 340 173 l 1
EndSplineSet
Validated: 1
EndChar

StartChar: uni13C5
Encoding: 5061 5061 614
Width: 792
VWidth: 0
Flags: W
HStem: -10 40<216.848 355.152> 259 67<616.998 685.978> 440 20G<691 722.5> 570 40<216.848 355.152>
VStem: 66 120<80.1421 519.858> 386 120<80.1421 268 370 519.858> 697 32<341.164 457.074>
LayerCount: 2
Fore
SplineSet
729 365 m 0
 729 276 683 259 653 259 c 0
 620 259 583 292 577 328 c 1
 506 268 l 1
 506 170 l 2
 506 70 446 -10 286 -10 c 0
 126 -10 66 70 66 170 c 2
 66 430 l 2
 66 530 126 610 286 610 c 0
 446 610 506 530 506 430 c 2
 506 370 l 1
 531 378 575 391 597 394 c 1
 603 361 625 326 651 326 c 0
 669 326 697 338 697 398 c 0
 697 414 695 434 691 457 c 1
 719 460 l 1
 726 422 729 390 729 365 c 0
386 450 m 2
 386 530 366 570 286 570 c 0
 206 570 186 530 186 450 c 2
 186 150 l 2
 186 70 206 30 286 30 c 0
 366 30 386 70 386 150 c 2
 386 450 l 2
EndSplineSet
Validated: 1
EndChar

StartChar: uni13C6
Encoding: 5062 5062 615
Width: 696
VWidth: 0
Flags: W
HStem: 0 40<60 280 423.918 620> 560 40<60 256.082 400 620>
VStem: 280 120<62.7779 537.222>
LayerCount: 2
Fore
SplineSet
60 600 m 1
 620 600 l 1
 620 560 l 1
 400 560 l 1
 400 140 l 2
 400 80 420 40 480 40 c 2
 620 40 l 1
 620 0 l 1
 60 0 l 1
 60 40 l 1
 280 40 l 1
 280 460 l 2
 280 520 260 560 200 560 c 2
 60 560 l 1
 60 600 l 1
EndSplineSet
Validated: 1
EndChar

StartChar: uni13C7
Encoding: 5063 5063 616
Width: 828
VWidth: 0
Flags: W
HStem: -10 40<222.144 342.284 478.984 585.695> 460 21G<234 354> 570 40<390.468 543.957>
VStem: 60 105<133.413 293.221> 234 120<460 532.054> 326 105<121.312 292.036> 648 120<150.957 416.912>
LayerCount: 2
Fore
SplineSet
460 314 m 1xf6
 447 278 431 224 431 169 c 0xf6
 431 64 493 30 534 30 c 0
 580 30 648 78 648 242 c 0
 648 478 572 570 478 570 c 0
 386 570 354 540 354 460 c 1
 234 460 l 1xfa
 234 540 302 610 432 610 c 0
 608 610 768 522 768 282 c 0
 768 112 676 -10 544 -10 c 0
 493 -10 452 4 420 27 c 1
 383 2 338 -10 290 -10 c 0
 137 -10 60 120 60 242 c 0
 60 276 65 312 81 355 c 1
 194 314 l 1
 170 248 165 202 165 174 c 0
 165 64 238 30 280 30 c 0
 305 30 341 33 368 82 c 1
 339 126 326 182 326 236 c 0
 326 281 335 321 347 355 c 1
 460 314 l 1xf6
EndSplineSet
Validated: 1
EndChar

StartChar: uni13C8
Encoding: 5064 5064 617
Width: 863
VWidth: 0
Flags: W
HStem: -10 40<294.522 315.478> 307 41<471.399 552.478> 570 40<184.769 257.056 378.997 517.098>
VStem: 16 120<414 506.588> 162 120<80.1562 401.26> 328 120<80.1562 425.38> 573 120<374.895 519.296>
LayerCount: 2
Fore
SplineSet
474 353 m 1
 486 350 497 348 507 348 c 0
 549 348 573 378 573 447 c 0
 573 540 502 570 432 570 c 0
 411 570 389 561 369 542 c 1
 416 486 448 390 448 234 c 0
 448 102 417 -10 305 -10 c 0
 193 -10 162 102 162 234 c 0
 162 389 206 486 264 542 c 1
 250 561 236 570 224 570 c 0
 186 570 136 510 136 414 c 1
 16 414 l 1
 16 550 118 610 224 610 c 0
 257 610 291 602 322 583 c 1
 359 602 397 610 432 610 c 0
 611 610 693 549 693 447 c 0
 693 351 605 307 521 307 c 0
 501 307 482 309 464 314 c 1
 474 353 l 1
308 435 m 1
 292 384 282 318 282 234 c 0
 282 88 294 30 305 30 c 0
 316 30 328 88 328 234 c 0
 328 318 320 384 308 435 c 1
EndSplineSet
Validated: 1
EndChar

StartChar: uni13C9
Encoding: 5065 5065 618
Width: 913
VWidth: 0
Flags: W
HStem: 0 21G<289.621 415.368> 325 45<30 82.7789 605.565 659.196> 432 46<720.658 773.241> 580 20G<134 264.365 451 571>
VStem: 451 120<458.742 600> 782 103<385 427.415>
LayerCount: 2
Fore
SplineSet
782 361 m 1
 782 393 775 432 745 432 c 0
 733 432 717 406 700 380 c 0
 683 353 664 325 626 325 c 0
 591 325 547 339 512 380 c 1
 410 0 l 1
 295 0 l 1
 185 409 l 1
 148 362 97 328 30 328 c 1
 30 368 l 1
 128 368 134 534 134 600 c 1
 259 600 l 1
 384 134 l 1
 471 457 l 1
 459 494 451 541 451 600 c 1
 571 600 l 1
 571 387 619 370 638 370 c 0
 659 370 693 478 760 478 c 0
 854 478 885 446 885 385 c 1
 782 361 l 1
EndSplineSet
Validated: 1
EndChar

StartChar: uni13CA
Encoding: 5066 5066 619
Width: 828
VWidth: 0
Flags: W
HStem: -10 40<222.144 342.067 466.529 585.695> 289 52<443.514 533.276> 460 21G<234 354> 570 40<390.468 543.957>
VStem: 60 105<133.413 293.221> 234 120<460 532.054> 315 98<84.0583 257.478> 648 120<150.957 416.912>
LayerCount: 2
Fore
SplineSet
537 274 m 1xfb
 524 283 510 289 491 289 c 0
 451 289 413 256 413 164 c 0xfb
 413 67 478 30 534 30 c 0
 580 30 648 78 648 242 c 0
 648 478 572 570 478 570 c 0
 386 570 354 540 354 460 c 1
 234 460 l 1xfd
 234 540 302 610 432 610 c 0
 608 610 768 522 768 282 c 0
 768 112 676 -10 544 -10 c 0
 484 -10 439 0 404 18 c 1
 370 0 331 -10 290 -10 c 0
 137 -10 60 120 60 242 c 0
 60 276 65 312 81 355 c 1
 194 314 l 1
 170 248 165 202 165 174 c 0
 165 64 238 30 280 30 c 0
 301 30 328 32 352 59 c 1
 326 92 315 135 315 185 c 0
 315 283 385 341 458 341 c 0
 478 341 520 334 559 301 c 1
 537 274 l 1xfb
EndSplineSet
Validated: 1
EndChar

StartChar: uni13CB
Encoding: 5067 5067 620
Width: 582
VWidth: 0
Flags: W
HStem: -10 40<233.631 369.425> 180 40<286 369.299> 320 40<261.37 344> 570 40<237.27 338.491>
VStem: 68 120<89.8389 248.331> 93 120<406.375 541.898> 363 120<450 523.598> 391 110<50.3439 162.799>
LayerCount: 2
Fore
SplineSet
363 450 m 17xf6
 363 530 347 570 287 570 c 0
 227 570 213 518 213 475 c 0xf6
 213 416 256 360 318 360 c 2
 344 360 l 1
 344 320 l 1
 318 320 l 2
 252 320 188 245 188 175 c 0
 188 76 224 30 304 30 c 0
 379 30 391 69 391 110 c 0
 391 169 352 180 286 180 c 9
 286 220 l 17
 382 220 501 192 501 112 c 0
 501 59 458 -10 304 -10 c 0
 144 -10 68 58 68 195 c 0xf9
 68 253 121 322 184 341 c 1
 131 361 93 415 93 465 c 0
 93 542 143 610 287 610 c 0
 431 610 483 530 483 430 c 1
 363 450 l 17xf6
EndSplineSet
Validated: 1
EndChar

StartChar: uni13CC
Encoding: 5068 5068 621
Width: 576
VWidth: 0
Flags: W
HStem: -10 40<216.848 355.152> 272 50<186 386> 580 20G<66 186 386 506>
VStem: 66 120<80.1421 272 322 600> 386 120<80.1421 272 322 600>
LayerCount: 2
Fore
SplineSet
186 600 m 9
 186 322 l 1
 386 322 l 1
 386 600 l 17
 506 600 l 9
 506 170 l 2
 506 70 446 -10 286 -10 c 0
 126 -10 66 70 66 170 c 2
 66 600 l 17
 186 600 l 9
386 272 m 1
 186 272 l 1
 186 150 l 2
 186 70 206 30 286 30 c 0
 366 30 386 70 386 150 c 2
 386 272 l 1
EndSplineSet
Validated: 1
EndChar

StartChar: uni13CD
Encoding: 5069 5069 622
Width: 950
VWidth: 0
Flags: W
HStem: -10 40<200.203 259.669 602.111 707.695> 270 40<200.203 259.762> 460 21G<356 476> 570 40<512.468 665.957>
VStem: 60 120<61.8671 238.133> 280 120<60.5751 147> 356 120<460 532.054> 448 105<209.422 300> 770 120<150.957 416.912>
LayerCount: 2
Fore
SplineSet
553 300 m 1xfd80
 553 169 l 2xfd80
 553 64 615 30 656 30 c 0
 702 30 770 78 770 242 c 0
 770 478 694 570 600 570 c 0
 508 570 476 540 476 460 c 1
 356 460 l 1xfa80
 356 540 424 610 554 610 c 0
 730 610 890 522 890 282 c 0
 890 112 798 -10 666 -10 c 0
 544 -10 476 72 455 167 c 1
 400 147 l 1
 399 49 339 -10 230 -10 c 0
 120 -10 60 50 60 150 c 0
 60 250 120 310 230 310 c 0
 324 310 382 266 396 190 c 1
 449 209 l 1
 448 218 448 227 448 236 c 2
 448 300 l 1
 553 300 l 1xfd80
280 160 m 2
 280 226 260 270 230 270 c 0
 200 270 180 226 180 160 c 2
 180 140 l 2
 180 74 200 30 230 30 c 0
 260 30 280 74 280 140 c 2
 280 160 l 2
EndSplineSet
Validated: 1
EndChar

StartChar: uni13CE
Encoding: 5070 5070 623
Width: 500
VWidth: 0
Flags: W
HStem: 0 21G<263 383> 236 40<104 263 383 455> 580 20G<319.338 383>
VStem: 263 120<0 236 276 446>
LayerCount: 2
Fore
SplineSet
383 600 m 1
 383 276 l 1
 455 276 l 1
 455 236 l 1
 383 236 l 1
 383 0 l 1
 263 0 l 1
 263 236 l 1
 45 236 l 1
 45 286 l 1
 338 600 l 1
 383 600 l 1
263 276 m 1
 263 446 l 1
 104 276 l 1
 263 276 l 1
EndSplineSet
Validated: 1
EndChar

StartChar: uni13D0
Encoding: 5072 5072 625
Width: 616
VWidth: 0
Flags: W
HStem: 0 21G<248 368> 261 50<177.1 248> 315 50<368 438.9> 580 20G<248 368>
VStem: 60 110<316.033 386> 248 120<0 267 359 600> 446 110<240 309.967>
CounterMasks: 1 0e
LayerCount: 2
Fore
SplineSet
368 0 m 1
 248 0 l 1
 248 267 l 1
 231 263 213 261 190 261 c 0
 96 261 60 334 60 386 c 1
 170 386 l 1
 170 341 180 311 200 311 c 0
 218 311 234 313 248 316 c 1
 248 600 l 1
 368 600 l 1
 368 359 l 1
 385 363 403 365 426 365 c 0
 520 365 556 292 556 240 c 1
 446 240 l 1
 446 285 436 315 416 315 c 0
 398 315 382 313 368 310 c 1
 368 0 l 1
EndSplineSet
Validated: 1
EndChar

StartChar: uni13D1
Encoding: 5073 5073 626
Width: 801
VWidth: 0
Flags: W
HStem: -10 40<214.078 290.246> 314 40<537 600.747> 570 40<220.891 276.075 542.269 623.527>
VStem: 72 120<61.815 215.851> 90 120<429.172 559.062> 286 120<424.745 559.478> 312 120<61.815 207.982> 645 116<395.314 548.809>
LayerCount: 2
Fore
SplineSet
244 260 m 1xf3
 214 225 192 183 192 128 c 0
 192 54 222 30 252 30 c 0
 283 30 312 54 312 128 c 0
 312 185 285 230 244 260 c 1xf3
366 387 m 1
 444 414 464 610 577 610 c 0
 727 610 761 552 761 448 c 0
 761 368 653 314 537 314 c 1
 537 354 l 1
 597 354 645 396 645 460 c 0
 645 548 617 570 585 570 c 0
 543 570 520 526 490 465 c 0
 452 387 422 344 335 344 c 0
 333 344 330 344 328 344 c 1
 291 308 l 1
 381 268 432 205 432 148 c 0
 432 46 367 -10 252 -10 c 0
 138 -10 72 46 72 148 c 0xf3
 72 258 147 308 208 362 c 1
 139 384 90 429 90 503 c 0
 90 569 165 610 249 610 c 0
 333 610 406 569 406 503 c 0xed
 406 455 390 419 366 387 c 1
253 408 m 1
 273 434 286 464 286 503 c 0
 286 550 267 570 248 570 c 0
 229 570 210 550 210 503 c 0xed
 210 461 224 428 253 408 c 1
EndSplineSet
Validated: 1
EndChar

StartChar: uni13D2
Encoding: 5074 5074 627
Width: 549
VWidth: 0
Flags: W
HStem: 0 21G<75 196 356 476> 300 40<276 314.982> 560 40<195 329.426>
VStem: 75 121<0 560> 356 120<0 241.307 373.865 536.271>
LayerCount: 2
Fore
SplineSet
356 0 m 1
 356 140 l 2
 356 220 326 300 276 300 c 9
 276 340 l 1
 336 340 356 361 356 460 c 0
 356 520 335 560 275 560 c 2
 195 560 l 1
 196 0 l 17
 75 0 l 1
 75 599 l 1
 275 600 l 2
 415 600 476 550 476 460 c 0
 476 370 436 345 375 318 c 1
 436 305 476 240 476 100 c 2
 476 0 l 1
 356 0 l 1
EndSplineSet
Validated: 1
EndChar

StartChar: uni13D3
Encoding: 5075 5075 628
Width: 530
VWidth: 0
Flags: W
HStem: -10 40<221.997 350.003> 580 20G<76 196>
VStem: 76 120<76.402 600> 376 120<76.402 170>
LayerCount: 2
Fore
SplineSet
196 600 m 5
 196 150 l 6
 196 70 206 30 286 30 c 4
 366 30 376 70 376 150 c 6
 376 190 l 5
 496 170 l 5
 496 70 446 -10 286 -10 c 4
 126 -10 76 70 76 170 c 6
 76 600 l 5
 196 600 l 5
EndSplineSet
Validated: 1
EndChar

StartChar: uni13D4
Encoding: 5076 5076 629
Width: 753
VWidth: 0
Flags: W
HStem: 0 21G<197.633 323.419 395.71 521.367> 580 20G<42 172.365 240 370.361 411.639 479 609.635 677>
LayerCount: 2
Fore
SplineSet
677 600 m 1
 516 0 l 1
 401 0 l 1
 360 155 l 1
 318 0 l 1
 203 0 l 1
 42 600 l 1
 167 600 l 1
 292 134 l 1
 329 270 l 1
 240 600 l 1
 365 600 l 1
 391 503 l 1
 417 600 l 1
 479 600 l 1
 422 388 l 1
 490 134 l 1
 615 600 l 1
 677 600 l 1
EndSplineSet
Validated: 1
EndChar

StartChar: uni13D5
Encoding: 5077 5077 630
Width: 564
VWidth: 0
Flags: W
HStem: -10 40<212.796 348.58> 286 40<429 514> 441 40<250 346 457.507 514> 570 40<221.388 323.814>
VStem: 69 113<71.7871 119.044> 77 120<411.617 541.458> 346 116<481 535.088> 382 120<68.2146 194.801>
LayerCount: 2
Fore
SplineSet
77 450 m 0xf5
 77 550 128 610 272 610 c 0
 390 610 446 555 462 481 c 1
 514 481 l 1
 514 441 l 1
 250 441 l 1
 250 481 l 1
 346 481 l 1
 342 540 324 570 272 570 c 0
 212 570 197 526 197 460 c 0xf6
 197 396 283 368 364 326 c 1
 514 326 l 1
 514 286 l 1
 429 286 l 1
 471 254 502 212 502 150 c 0
 502 50 432 -10 282 -10 c 0
 160 -10 90 43 69 117 c 1
 182 150 l 1xf9
 182 70 202 30 282 30 c 0
 362 30 382 74 382 140 c 0
 382 274 77 275 77 450 c 0xf5
EndSplineSet
Validated: 1
EndChar

StartChar: uni13D6
Encoding: 5078 5078 631
Width: 800
VWidth: 0
Flags: W
HStem: -10 40<440.848 579.152> 310 40<510 577.828> 560 40<30 290>
VStem: 290 120<80.1421 560> 610 120<80.1421 259.858>
LayerCount: 2
Fore
SplineSet
290 560 m 1
 30 560 l 1
 30 600 l 1
 410 600 l 1
 410 150 l 2
 410 70 430 30 510 30 c 0
 590 30 610 70 610 150 c 2
 610 190 l 2
 610 270 590 310 510 310 c 1
 510 350 l 1
 670 350 730 270 730 170 c 0
 730 70 670 -10 510 -10 c 0
 350 -10 290 70 290 170 c 2
 290 560 l 1
EndSplineSet
Validated: 1
EndChar

StartChar: uni13D7
Encoding: 5079 5079 632
Width: 630
VWidth: 0
Flags: W
HStem: 0 21G<64 180 424 544> 580 20G<424 544>
VStem: 64 120<120 194> 424 120<0 264 360 600>
LayerCount: 2
Fore
SplineSet
424 360 m 1
 424 600 l 1
 544 600 l 1
 544 0 l 1
 424 0 l 1
 424 264 l 1
 160 0 l 1
 64 0 l 1
 64 194 l 1
 184 194 l 1
 184 120 l 1
 424 360 l 1
EndSplineSet
Validated: 1
EndChar

StartChar: uni13D8
Encoding: 5080 5080 633
Width: 630
VWidth: 0
Flags: W
HStem: 0 21G<64 180 424 544> 560 40<164 424>
VStem: 64 120<120 194> 424 120<0 264 360 560>
LayerCount: 2
Fore
SplineSet
544 0 m 1
 424 0 l 1
 424 264 l 1
 160 0 l 5
 64 0 l 5
 64 194 l 5
 184 194 l 5
 184 120 l 5
 424 360 l 1
 424 560 l 1
 164 560 l 1
 164 600 l 1
 544 600 l 1
 544 0 l 1
EndSplineSet
Validated: 1
EndChar

StartChar: uni13DB
Encoding: 5083 5083 636
Width: 780
VWidth: 0
Flags: W
HStem: -10 40<198.096 244.392> 245 43<488.419 507.41> 560 40<474.947 562.846> 570 40<235.921 311.29>
VStem: 54 120<118.346 396.573> 268 120<102.369 322.049> 599 113<376.566 518.858>
LayerCount: 2
Fore
SplineSet
282 610 m 0xde
 331 610 369 588 391 556 c 1
 419 581 463 600 533 600 c 0
 656 600 712 519 712 437 c 0
 712 339 613 274 492 245 c 1
 470 288 l 1
 531 315 599 372 599 444 c 0
 599 497 571 560 523 560 c 0xee
 459 560 409 454 386 401 c 1
 316 461 l 1
 320 466 329 481 329 509 c 0
 329 537 304 570 269 570 c 0
 243 570 215 539 196 460 c 1
 343 429 388 311 388 204 c 0
 388 80 302 -10 221 -10 c 0
 140 -10 54 88 54 241 c 0
 54 417 139 610 282 610 c 0xde
187 414 m 1
 179 362 174 295 174 211 c 0
 174 92 196 30 221 30 c 0
 246 30 268 84 268 174 c 0
 268 280 263 378 187 414 c 1
EndSplineSet
Validated: 1
EndChar

StartChar: uni13DC
Encoding: 5084 5084 637
Width: 833
VWidth: 0
Flags: W
HStem: -10 40<199.536 270.42 562.58 633.464> 570 40<384.159 448.387>
VStem: 58 120<51.019 185.407> 250 120<433.417 552.682> 286 110<44.1913 174.795> 437 110<44.1913 174.795> 463 120<434.128 552.682> 655 120<51.019 185.407>
LayerCount: 2
Fore
SplineSet
416 610 m 0xf1
 533 610 583 549 583 487 c 0xf3
 583 435 536 398 474 364 c 1
 594 295 775 256 775 114 c 0
 775 44 711 -10 596 -10 c 0
 492 -10 437 40 437 114 c 0
 437 170 471 204 578 246 c 1
 532 281 472 308 416 335 c 1
 360 308 301 281 255 246 c 1
 362 204 396 170 396 114 c 0xed
 396 40 341 -10 237 -10 c 0
 122 -10 58 44 58 114 c 0
 58 256 239 295 359 364 c 1
 297 398 250 435 250 487 c 0
 250 549 300 610 416 610 c 0xf1
614 213 m 1
 569 187 547 152 547 114 c 0xe5
 547 65 563 30 596 30 c 0
 627 30 655 60 655 114 c 0
 655 153 639 185 614 213 c 1
416 405 m 1
 444 431 463 463 463 504 c 0
 463 532 449 570 416 570 c 0
 384 570 370 532 370 504 c 0xf3
 370 463 388 431 416 405 c 1
219 213 m 1
 194 185 178 153 178 114 c 0
 178 60 206 30 237 30 c 0
 270 30 286 65 286 114 c 0xe9
 286 152 264 187 219 213 c 1
EndSplineSet
Validated: 1
EndChar

StartChar: uni13DD
Encoding: 5085 5085 638
Width: 535
VWidth: 0
Flags: W
HStem: 0 40<218.918 475> 570 40<220.997 349.003>
VStem: 75 120<62.7779 523.598> 375 120<430 523.598>
LayerCount: 2
Fore
SplineSet
195 450 m 6
 195 140 l 2
 195 80 215 40 275 40 c 2
 475 40 l 1
 475 0 l 1
 75 0 l 1
 75 430 l 6
 75 530 125 610 285 610 c 4
 445 610 495 530 495 430 c 5
 375 410 l 5
 375 450 l 6
 375 530 365 570 285 570 c 4
 205 570 195 530 195 450 c 6
EndSplineSet
Validated: 1
EndChar

StartChar: uni13E0
Encoding: 5088 5088 641
Width: 718
VWidth: 0
Flags: W
HStem: -10 40<381.9 470.1> 331 40<187.501 241 361 491 611 658> 548 40<178.017 228.823> 580 20G<491 611>
VStem: 48 120<387.76 525.675> 241 120<58.6213 331 371 513.292> 491 120<58.6213 331 371 600>
LayerCount: 2
Fore
SplineSet
241 371 m 1xee
 241 410 l 2
 241 540 225 548 203 548 c 0
 179 548 168 521 168 474 c 0
 168 407 184 371 220 371 c 2
 241 371 l 1xee
611 371 m 1
 658 371 l 1
 658 331 l 1
 611 331 l 1
 611 170 l 2
 611 70 586 -10 426 -10 c 0
 266 -10 241 70 241 170 c 2
 241 331 l 1
 230 331 l 2
 125 331 48 368 48 457 c 0
 48 536 118 588 203 588 c 0xee
 279 588 361 566 361 389 c 2
 361 371 l 1
 491 371 l 1
 491 600 l 1
 611 600 l 1xde
 611 371 l 1
491 331 m 1
 361 331 l 1
 361 150 l 2
 361 70 372 30 426 30 c 0
 480 30 491 70 491 150 c 2
 491 331 l 1
EndSplineSet
Validated: 1
EndChar

StartChar: uni13E1
Encoding: 5089 5089 642
Width: 770
VWidth: 0
Flags: W
HStem: -10 40<392.164 438.829> 340 40<35 75.5261 193 223> 570 40<264.023 362.443 470.86 586.622>
VStem: 74 119<380 471.558> 249 120<120.819 413.001> 462 120<119.498 401.158> 629 106<379.433 524.197>
LayerCount: 2
Fore
SplineSet
223 340 m 1
 35 340 l 1
 35 380 l 1
 74 380 l 1
 87 553 206 610 327 610 c 0
 361 610 392 603 419 591 c 1
 451 603 488 610 531 610 c 0
 660 610 735 544 735 437 c 0
 735 376 706 327 672 300 c 1
 585 385 l 1
 613 405 629 439 629 473 c 0
 629 537 567 570 531 570 c 0
 508 570 488 565 470 557 c 1
 546 490 582 368 582 239 c 0
 582 90 495 -10 415 -10 c 0
 336 -10 250 90 249 239 c 0
 249 369 276 493 363 560 c 1
 351 567 339 570 327 570 c 0
 281 570 197 542 193 380 c 1
 223 380 l 1
 223 340 l 1
414 504 m 1
 384 454 369 374 369 259 c 0
 369 56 395 30 415 30 c 0
 436 30 462 50 462 259 c 0
 462 374 442 454 414 504 c 1
EndSplineSet
Validated: 1
EndChar

StartChar: uni13E3
Encoding: 5091 5091 644
Width: 576
VWidth: 0
Flags: W
HStem: -10 40<216.848 354.777> 237 39<337 367.741> 390 40<319 386 506 520> 570 40<216.848 355.152>
VStem: 66 120<80.1421 519.858> 386 120<77.6273 223.418 430 519.858>
LayerCount: 2
Fore
SplineSet
337 276 m 1
 452 276 506 234 506 155 c 0
 506 76 446 -10 286 -10 c 0
 126 -10 66 70 66 170 c 2
 66 430 l 2
 66 530 126 610 286 610 c 0
 446 610 506 530 506 430 c 1
 520 430 l 1
 520 390 l 1
 319 390 l 1
 319 430 l 1
 386 430 l 1
 386 450 l 2
 386 530 366 570 286 570 c 0
 206 570 186 530 186 450 c 2
 186 150 l 2
 186 70 206 30 286 30 c 0
 377 30 386 84 386 155 c 0
 386 189 371 237 337 237 c 1
 337 276 l 1
EndSplineSet
Validated: 1
EndChar

StartChar: uni13E4
Encoding: 5092 5092 645
Width: 726
VWidth: 0
Flags: W
HStem: 0 21G<236 367.533> 560 40<46 236>
VStem: 236 120<116 560>
LayerCount: 2
Fore
SplineSet
236 560 m 1
 46 560 l 1
 46 600 l 1
 356 600 l 1
 356 116 l 1
 635 600 l 1
 702 600 l 1
 356 0 l 1
 236 0 l 1
 236 560 l 1
EndSplineSet
Validated: 1
EndChar

StartChar: uni13E5
Encoding: 5093 5093 646
Width: 720
VWidth: 0
Flags: W
HStem: 0 21G<75 195 370 490> 423 47<490.934 567.91> 580 20G<75 195>
VStem: 75 120<0 240 310 600> 370 120<0 341> 573 86<293.442 418.038>
LayerCount: 2
Fore
SplineSet
529 423 m 0
 513 423 500 416 490 410 c 1
 490 0 l 1
 370 0 l 1
 370 341 l 1
 195 240 l 1
 195 0 l 1
 75 0 l 1
 75 600 l 1
 195 600 l 1
 195 310 l 1
 355 402 l 2
 403 430 459 470 515 470 c 0
 643 470 659 402 659 337 c 0
 659 291 645 256 631 230 c 1
 537 273 l 1
 570 312 573 357 573 381 c 0
 573 414 547 423 529 423 c 0
EndSplineSet
Validated: 1
EndChar

StartChar: uni13E7
Encoding: 5095 5095 648
Width: 539
VWidth: 0
Flags: W
HStem: -10 40<206.311 329.689> 430 40<206.311 330.341> 580 20G<358 478>
VStem: 58 120<61.8671 398.133> 358 120<61.8671 404.944 462 600>
LayerCount: 2
Fore
SplineSet
268 30 m 0
 341 30 358 74 358 140 c 2
 358 320 l 2
 358 386 341 430 268 430 c 0
 195 430 178 386 178 320 c 2
 178 140 l 2
 178 74 195 30 268 30 c 0
478 600 m 1
 478 150 l 2
 478 50 428 -10 268 -10 c 0
 108 -10 58 50 58 150 c 2
 58 310 l 2
 58 410 108 470 268 470 c 0
 303 470 333 468 358 462 c 1
 358 600 l 1
 478 600 l 1
EndSplineSet
Validated: 1
EndChar

StartChar: uni13E8
Encoding: 5096 5096 649
Width: 684
VWidth: 0
Flags: W
HStem: -10 40<230.606 308.94> 0 21G<408 448 520.643 561> 570 40<230.606 309.085> 580 20G<408 447.649 521 561>
VStem: 66 120<112.598 487.402>
LayerCount: 2
Fore
SplineSet
271 -10 m 0x88
 166 -10 66 67 66 226 c 2
 66 374 l 6
 66 533 166 610 271 610 c 4xa8
 315 610 356 590 383 555 c 5
 428 600 l 5
 484 543 l 5
 541 600 l 5x18
 641 500 l 5
 585 443 l 5
 528 500 l 5
 472 443 l 5
 407 507 l 5
 353 453 l 5
 345 504 314 570 271 570 c 4
 241 570 186 540 186 394 c 6
 186 206 l 2
 186 60 241 30 271 30 c 0xa8
 314 30 345 96 353 147 c 1
 407 93 l 1
 472 157 l 1
 528 100 l 1
 585 157 l 1
 641 100 l 1
 541 0 l 1
 484 56 l 1
 428 0 l 1x48
 383 45 l 1
 351 3 304 -10 271 -10 c 0x88
EndSplineSet
Validated: 1
EndChar

StartChar: uni13E9
Encoding: 5097 5097 650
Width: 801
VWidth: 0
Flags: W
HStem: -10 40<216.848 355.876 528.231 612.09> 281 40<298 386> 570 40<216.848 355.152>
VStem: 66 120<80.1421 519.858> 386 120<58.1543 281 430 519.858> 636 120<76.875 170>
LayerCount: 2
Fore
SplineSet
298 281 m 1
 298 321 l 1
 506 321 l 1
 506 150 l 2
 506 70 526 30 571 30 c 0
 617 30 636 70 636 150 c 2
 636 190 l 1
 756 170 l 1
 756 70 697 -10 571 -10 c 0
 517 -10 475 6 444 32 c 1
 409 6 357 -10 286 -10 c 0
 126 -10 66 70 66 170 c 2
 66 430 l 2
 66 530 126 610 286 610 c 0
 446 610 506 530 506 430 c 1
 386 410 l 1
 386 450 l 2
 386 530 366 570 286 570 c 0
 206 570 186 530 186 450 c 2
 186 150 l 2
 186 70 206 30 286 30 c 0
 366 30 386 70 386 150 c 2
 386 281 l 1
 298 281 l 1
EndSplineSet
Validated: 1
EndChar

StartChar: uni13EA
Encoding: 5098 5098 651
Width: 906
VWidth: 0
Flags: W
HStem: -10 40<215.429 285.133 480.412 607.134> 570 40<314.976 364.834 660.577 700.882>
VStem: 58 120<88.667 190> 180 120<315.238 546.45> 380 120<239.802 547.227> 530 120<371.269 546.524> 726 120<302.931 484.651>
LayerCount: 2
Fore
SplineSet
724 302 m 1
 725 319 726 336 726 354 c 0
 726 526 704 570 676 570 c 0
 654 570 650 520 650 429 c 0
 650 379 681 333 724 302 c 1
355 209 m 1
 370 275 380 359 380 460 c 0
 380 540 362 570 340 570 c 0
 318 570 300 540 300 460 c 0
 300 373 321 284 355 209 c 1
424 99 m 1
 461 56 503 30 544 30 c 0
 623 30 691 116 716 245 c 1
 615 277 530 352 530 457 c 0
 530 548 578 610 676 610 c 0
 780 610 846 502 846 354 c 0
 846 130 718 -10 544 -10 c 0
 490 -10 434 11 383 48 c 1
 345 12 295 -10 230 -10 c 0
 132 -10 58 66 58 190 c 1
 178 190 l 1
 178 110 204 30 250 30 c 0
 272 30 298 55 321 104 c 1
 238 192 180 323 180 460 c 0
 180 562 244 610 342 610 c 0
 440 610 500 562 500 460 c 0
 500 346 486 198 424 99 c 1
EndSplineSet
Validated: 1
EndChar

StartChar: uni13EB
Encoding: 5099 5099 652
Width: 646
VWidth: 0
Flags: W
HStem: -10 40<237.971 403.305> 145 42<408.321 456> 411 42<186 233.069> 570 40<238.333 404.029>
VStem: 66 120<91.9922 411 453 506.901> 456 120<91.877 145 187 508.008>
LayerCount: 2
Fore
SplineSet
576 170 m 2
 576 70 481 -10 321 -10 c 0
 161 -10 66 70 66 170 c 2
 66 430 l 2
 66 530 161 610 321 610 c 0
 481 610 576 530 576 430 c 2
 576 170 l 2
456 450 m 2
 456 530 401 570 321 570 c 0
 242 570 187 531 186 453 c 1
 257 453 311 435 344 396 c 0
 397 333 371 252 407 209 c 0
 421 192 438 187 456 187 c 1
 456 450 l 2
186 411 m 1
 186 150 l 2
 186 70 241 30 321 30 c 0
 399 30 454 68 456 145 c 1
 383 145 331 163 298 202 c 0
 245 265 271 346 235 389 c 0
 221 406 204 411 186 411 c 1
EndSplineSet
Validated: 1
EndChar

StartChar: uni13EC
Encoding: 5100 5100 653
Width: 786
VWidth: 0
Flags: W
HStem: -10 40<309.712 472.782> 570 40<190.079 229.567>
VStem: 49 120<242.703 517.243> 250 120<325.51 528.824> 424 119<387 524> 606 120<197.757 436.887>
LayerCount: 2
Fore
SplineSet
199 183 m 1
 234 93 299 30 390 30 c 0
 434 30 606 55 606 303 c 0
 606 414 582 484 543 524 c 1
 543 387 l 1
 424 387 l 1
 424 610 l 1
 621 610 726 462 726 334 c 0
 726 36 493 -10 390 -10 c 0
 128 -10 49 204 49 375 c 0
 49 540 104 610 210 610 c 0
 316 610 370 540 370 416 c 0
 370 302 283 232 199 183 c 1
182 238 m 1
 219 279 250 332 250 436 c 0
 250 507 232 570 210 570 c 0
 187 570 169 507 169 395 c 2
 169 355 l 2
 169 314 173 275 182 238 c 1
EndSplineSet
Validated: 1
EndChar

StartChar: uni13ED
Encoding: 5101 5101 654
Width: 580
VWidth: 0
Flags: W
HStem: -10 40<176.945 281.134> 570 40<334.577 374.882>
VStem: 57 119<33.3537 225> 204 120<371.269 546.524> 400 120<302.931 484.651>
LayerCount: 2
Fore
SplineSet
398 302 m 1
 399 319 400 336 400 354 c 0
 400 526 378 570 350 570 c 0
 328 570 324 520 324 429 c 0
 324 379 355 333 398 302 c 1
57 225 m 1
 176 225 l 1
 176 39 l 1
 190 33 204 30 218 30 c 0
 297 30 365 116 390 245 c 1
 289 277 204 352 204 457 c 0
 204 548 252 610 350 610 c 0
 454 610 520 502 520 354 c 0
 520 130 392 -10 218 -10 c 0
 164 -10 108 11 57 48 c 1
 57 225 l 1
EndSplineSet
Validated: 1
EndChar

StartChar: uni13EE
Encoding: 5102 5102 655
Width: 539
VWidth: 0
Flags: W
HStem: -10 40<210.33 335.67> 326 40<208.69 335.67> 570 40<213.356 331.346>
VStem: 58 120<62.0788 297.53 357 490.99> 363 113<481.894 531.607> 368 120<62.0788 293.921>
LayerCount: 2
Fore
SplineSet
273 30 m 0xf4
 346 30 368 74 368 140 c 2
 368 216 l 2
 368 282 346 326 273 326 c 0
 200 326 178 282 178 216 c 2
 178 140 l 2
 178 74 200 30 273 30 c 0xf4
273 366 m 0
 433 366 488 306 488 206 c 2
 488 150 l 2xf4
 488 50 433 -10 273 -10 c 0
 113 -10 58 50 58 150 c 2
 58 329 l 2
 58 508 103 610 263 610 c 0
 393 610 456 557 476 484 c 1
 363 450 l 1xf8
 363 530 343 570 263 570 c 0
 184 570 178 491 178 357 c 1
 204 363 236 366 273 366 c 0
EndSplineSet
Validated: 1
EndChar

StartChar: uni13EF
Encoding: 5103 5103 656
Width: 828
VWidth: 0
Flags: W
HStem: -10 40<222.144 342.284 478.984 585.695> 460 21G<234 354> 570 40<390.468 543.957>
VStem: 60 105<133.413 293.221> 234 120<460 532.054> 326 105<121.312 278.419> 648 120<150.957 416.912>
LayerCount: 2
Fore
SplineSet
194 314 m 1xfa
 170 248 165 202 165 174 c 0
 165 64 238 30 280 30 c 0
 305 30 341 33 368 82 c 1
 339 126 326 182 326 236 c 0
 326 250 326 264 328 277 c 1
 296 309 l 1
 253 266 l 1
 232 286 l 1
 315 369 l 1
 378 307 l 1
 441 369 l 1
 504 306 l 1
 566 369 l 1
 587 349 l 1
 485 246 l 1
 449 282 l 1
 439 249 431 209 431 169 c 0xf6
 431 64 493 30 534 30 c 0
 580 30 648 78 648 242 c 0
 648 478 572 570 478 570 c 0
 386 570 354 540 354 460 c 1
 234 460 l 1
 234 540 302 610 432 610 c 0
 608 610 768 522 768 282 c 0
 768 112 676 -10 544 -10 c 0
 493 -10 452 4 420 27 c 1
 383 2 338 -10 290 -10 c 0
 137 -10 60 120 60 242 c 0
 60 276 65 312 81 355 c 1
 194 314 l 1xfa
EndSplineSet
Validated: 1
EndChar

StartChar: uni13F0
Encoding: 5104 5104 657
Width: 628
VWidth: 0
Flags: W
HStem: -10 40<249.222 405.15> 0 40<57 112.899> 290 40<305 380.938> 570 40<274.311 397.689>
VStem: 126 120<135 538.133> 426 120<369.867 538.133> 448 120<76.2598 235.139>
LayerCount: 2
Fore
SplineSet
445 310 m 1x7c
 526 282 568 228 568 160 c 0
 568 60 496 -10 336 -10 c 0xba
 284 -10 237 6 196 27 c 1
 165 8 119 0 57 0 c 1
 57 40 l 1
 90 40 113 45 122 76 c 1
 79 111 54 144 54 144 c 1
 76 188 l 1
 76 188 95 164 126 135 c 1
 126 450 l 2
 126 550 176 610 336 610 c 0
 496 610 546 550 546 450 c 0
 546 384 515 335 445 310 c 1x7c
305 330 m 1
 387 330 426 374 426 440 c 2
 426 460 l 2xbc
 426 526 409 570 336 570 c 0
 263 570 246 526 246 460 c 2
 246 134 l 2
 246 103 241 78 229 59 c 1
 262 42 299 30 336 30 c 0
 409 30 448 74 448 140 c 2
 448 180 l 2
 448 246 388 290 305 290 c 1
 305 330 l 1
EndSplineSet
Validated: 1
EndChar

StartChar: uni13F1
Encoding: 5105 5105 658
Width: 755
VWidth: 0
Flags: W
HStem: -10 40<448.091 539.822> 0 21G<101.81 226> 223 39<453.056 476> 431 169<373.365 479.346>
VStem: 334 94<47.6089 182.272> 361 120<464.086 600> 575 120<116.931 332.511>
LayerCount: 2
Fore
SplineSet
476 262 m 1xba
 476 223 l 1
 448 209 428 176 428 122 c 0
 428 62 449 30 491 30 c 0xba
 549 30 575 80 575 192 c 0
 575 360 510 431 429 431 c 0
 285 431 229 58 223 0 c 1
 106 0 l 1
 62 210 l 1
 162 210 l 1
 207 323 276 431 361 462 c 1
 361 600 l 1
 481 600 l 1
 481 467 l 1x76
 587 454 695 402 695 232 c 0
 695 78 605 -10 475 -10 c 0
 379 -10 334 28 334 118 c 0
 334 180 406 262 476 262 c 1xba
EndSplineSet
Validated: 1
EndChar

StartChar: uni13F2
Encoding: 5106 5106 659
Width: 579
VWidth: 0
Flags: W
HStem: 0 21G<71 191 383 503> 344 40<221.727 349.905> 570 40<216.997 347.068>
VStem: 71 120<0 314 371 523.598> 371 114<482.851 535.328> 383 120<0 293.858>
LayerCount: 2
Fore
SplineSet
371 450 m 17xf8
 371 530 361 570 281 570 c 0
 201 570 191 530 191 450 c 2
 191 371 l 1
 218 379 250 384 287 384 c 0
 443 384 503 304 503 204 c 2
 503 0 l 1
 383 0 l 1
 383 224 l 2xf4
 383 304 359 344 287 344 c 0
 215 344 191 304 191 224 c 2
 191 0 l 1
 71 0 l 1
 71 430 l 2
 71 530 121 610 281 610 c 0
 410 610 468 558 485 485 c 1
 371 450 l 17xf8
EndSplineSet
Validated: 1
EndChar

StartChar: uni13F3
Encoding: 5107 5107 660
Width: 684
VWidth: 0
Flags: W
HStem: -10 40<216.848 355.152> 281 40<298 386> 570 40<230.606 309.085> 580 20G<408 447.649 521 561>
VStem: 66 120<80.1421 487.402> 386 120<80.1421 281>
LayerCount: 2
Fore
SplineSet
186 150 m 2xec
 186 70 206 30 286 30 c 0
 366 30 386 70 386 150 c 2
 386 281 l 1
 298 281 l 1
 298 321 l 1
 506 321 l 1
 506 170 l 2
 506 70 446 -10 286 -10 c 0
 126 -10 66 70 66 170 c 2
 66 374 l 2
 66 533 166 610 271 610 c 0xec
 315 610 356 590 383 555 c 1
 428 600 l 1
 484 543 l 1
 541 600 l 1xdc
 641 500 l 1
 585 443 l 1
 528 500 l 1
 472 443 l 1
 407 507 l 1
 353 453 l 1
 345 504 314 570 271 570 c 0
 241 570 186 540 186 394 c 2
 186 150 l 2xec
EndSplineSet
Validated: 1
EndChar

